<svg xmlns="http://www.w3.org/2000/svg" width="134" height="50"
     viewBox="0 0 134 50" fill="none">
    <path
            d="M24.7 34C24.7 34.7667 24.6333 35.4333 24.5 36C24.6333 36.5333 24.7 37.2 24.7 38C24.7 38.7667 24.6333 39.4333 24.5 40H20.5C20.3667 39.4333 20.3 38.7667 20.3 38C20.3 37.2 20.3667 36.5333 20.5 36C20.3667 35.4333 20.3 34.7667 20.3 34C20.3 33.2 20.3667 32.5333 20.5 32H12.5C12.6333 32.5333 12.7 33.2 12.7 34C12.7 34.7667 12.6333 35.4333 12.5 36C12.6333 36.5333 12.7 37.2 12.7 38C12.7 38.7667 12.6333 39.4333 12.5 40H8.5C8.36667 39.4333 8.3 38.7667 8.3 38C8.3 37.2 8.36667 36.5333 8.5 36C8.36667 35.4333 8.3 34.7667 8.3 34C8.3 33.2 8.36667 32.5333 8.5 32H10C9.86667 31.4333 9.8 30.7667 9.8 30C9.8 29.2 9.86667 28.5333 10 28C9.86667 27.4333 9.8 26.7667 9.8 26C9.8 25.2 9.86667 24.5333 10 24H11C10.8667 23.4333 10.8 22.7667 10.8 22C10.8 21.2 10.8667 20.5333 11 20H12.5C12.3667 19.4333 12.3 18.7667 12.3 18C12.3 17.2 12.3667 16.5333 12.5 16H13.5C13.3667 15.4333 13.3 14.7667 13.3 14C13.3 13.2 13.3667 12.5333 13.5 12H19.5C19.6333 12.5333 19.7 13.2 19.7 14C19.7 14.7667 19.6333 15.4333 19.5 16H20.5C20.6333 16.5333 20.7 17.2 20.7 18C20.7 18.7667 20.6333 19.4333 20.5 20H22C22.1333 20.5333 22.2 21.2 22.2 22C22.2 22.7667 22.1333 23.4333 22 24H23C23.1333 24.5333 23.2 25.2 23.2 26C23.2 26.7667 23.1333 27.4333 23 28C23.1333 28.5333 23.2 29.2 23.2 30C23.2 30.7667 23.1333 31.4333 23 32H24.5C24.6333 32.5333 24.7 33.2 24.7 34ZM19 28C18.8667 27.4333 18.8 26.7667 18.8 26C18.8 25.2 18.8667 24.5333 19 24H18C17.8667 23.4333 17.8 22.7667 17.8 22C17.8 21.2 17.8667 20.5333 18 20H15C15.1333 20.5333 15.2 21.2 15.2 22C15.2 22.7667 15.1333 23.4333 15 24H14C14.1333 24.5333 14.2 25.2 14.2 26C14.2 26.7667 14.1333 27.4333 14 28H19ZM44.5195 24C44.6529 24.5333 44.7195 25.2 44.7195 26C44.7195 26.7667 44.6529 27.4333 44.5195 28H40.5195C40.3862 27.4333 40.3195 26.7667 40.3195 26C40.3195 25.2 40.3862 24.5333 40.5195 24H37.0195C37.1529 24.5333 37.2195 25.2 37.2195 26C37.2195 26.7667 37.1529 27.4333 37.0195 28H35.5195C35.6529 28.5333 35.7195 29.2 35.7195 30C35.7195 30.7667 35.6529 31.4333 35.5195 32C35.6529 32.5333 35.7195 33.2 35.7195 34C35.7195 34.7667 35.6529 35.4333 35.5195 36H38.5195C38.6529 36.5333 38.7195 37.2 38.7195 38C38.7195 38.7667 38.6529 39.4333 38.5195 40H28.5195C28.3862 39.4333 28.3195 38.7667 28.3195 38C28.3195 37.2 28.3862 36.5333 28.5195 36H31.5195C31.3862 35.4333 31.3195 34.7667 31.3195 34C31.3195 33.2 31.3862 32.5333 31.5195 32C31.3862 31.4333 31.3195 30.7667 31.3195 30C31.3195 29.2 31.3862 28.5333 31.5195 28C31.3862 27.4333 31.3195 26.7667 31.3195 26C31.3195 25.2 31.3862 24.5333 31.5195 24H28.5195C28.3862 23.4333 28.3195 22.7667 28.3195 22C28.3195 21.2 28.3862 20.5333 28.5195 20H33.5195C33.6529 20.5333 33.7195 21.2 33.7195 22C33.7195 22.7667 33.6529 23.4333 33.5195 24H35.5195C35.3862 23.4333 35.3195 22.7667 35.3195 22C35.3195 21.2 35.3862 20.5333 35.5195 20H43.0195C43.1529 20.5333 43.2195 21.2 43.2195 22C43.2195 22.7667 43.1529 23.4333 43.0195 24H44.5195ZM64.5391 32C64.6724 32.5333 64.7391 33.2 64.7391 34C64.7391 34.7667 64.6724 35.4333 64.5391 36H62.5391C62.6724 36.5333 62.7391 37.2 62.7391 38C62.7391 38.7667 62.6724 39.4333 62.5391 40H52.5391C52.4057 39.4333 52.3391 38.7667 52.3391 38C52.3391 37.2 52.4057 36.5333 52.5391 36H50.5391C50.4057 35.4333 50.3391 34.7667 50.3391 34C50.3391 33.2 50.4057 32.5333 50.5391 32H48.5391C48.4057 31.4333 48.3391 30.7667 48.3391 30C48.3391 29.2 48.4057 28.5333 48.5391 28H50.5391C50.4057 27.4333 50.3391 26.7667 50.3391 26C50.3391 25.2 50.4057 24.5333 50.5391 24H52.5391C52.4057 23.4333 52.3391 22.7667 52.3391 22C52.3391 21.2 52.4057 20.5333 52.5391 20H62.5391C62.6724 20.5333 62.7391 21.2 62.7391 22C62.7391 22.7667 62.6724 23.4333 62.5391 24H64.5391C64.6724 24.5333 64.7391 25.2 64.7391 26C64.7391 26.7667 64.6724 27.4333 64.5391 28H60.5391C60.4057 27.4333 60.3391 26.7667 60.3391 26C60.3391 25.2 60.4057 24.5333 60.5391 24H54.5391C54.6724 24.5333 54.7391 25.2 54.7391 26C54.7391 26.7667 54.6724 27.4333 54.5391 28H52.5391C52.6724 28.5333 52.7391 29.2 52.7391 30C52.7391 30.7667 52.6724 31.4333 52.5391 32H54.5391C54.6724 32.5333 54.7391 33.2 54.7391 34C54.7391 34.7667 54.6724 35.4333 54.5391 36H60.5391C60.4057 35.4333 60.3391 34.7667 60.3391 34C60.3391 33.2 60.4057 32.5333 60.5391 32H64.5391ZM84.5586 36C84.6919 36.5333 84.7586 37.2 84.7586 38C84.7586 38.7667 84.6919 39.4333 84.5586 40H80.5586C80.4253 39.4333 80.3586 38.7667 80.3586 38C80.3586 37.2 80.4253 36.5333 80.5586 36H78.5586C78.4253 35.4333 78.3586 34.7667 78.3586 34C78.3586 33.2 78.4253 32.5333 78.5586 32H72.5586C72.6919 32.5333 72.7586 33.2 72.7586 34C72.7586 34.7667 72.6919 35.4333 72.5586 36H78.5586C78.6919 36.5333 78.7586 37.2 78.7586 38C78.7586 38.7667 78.6919 39.4333 78.5586 40H70.5586C70.4253 39.4333 70.3586 38.7667 70.3586 38C70.3586 37.2 70.4253 36.5333 70.5586 36H68.5586C68.4253 35.4333 68.3586 34.7667 68.3586 34C68.3586 33.2 68.4253 32.5333 68.5586 32H70.5586C70.4253 31.4333 70.3586 30.7667 70.3586 30C70.3586 29.2 70.4253 28.5333 70.5586 28H78.5586C78.4253 27.4333 78.3586 26.7667 78.3586 26C78.3586 25.2 78.4253 24.5333 78.5586 24H71.5586C71.4253 23.4333 71.3586 22.7667 71.3586 22C71.3586 21.2 71.4253 20.5333 71.5586 20H80.5586C80.6919 20.5333 80.7586 21.2 80.7586 22C80.7586 22.7667 80.6919 23.4333 80.5586 24H82.5586C82.6919 24.5333 82.7586 25.2 82.7586 26C82.7586 26.7667 82.6919 27.4333 82.5586 28C82.6919 28.5333 82.7586 29.2 82.7586 30C82.7586 30.7667 82.6919 31.4333 82.5586 32C82.6919 32.5333 82.7586 33.2 82.7586 34C82.7586 34.7667 82.6919 35.4333 82.5586 36H84.5586ZM104.578 16C104.711 16.5333 104.778 17.2 104.778 18C104.778 18.7667 104.711 19.4333 104.578 20C104.711 20.5333 104.778 21.2 104.778 22C104.778 22.7667 104.711 23.4333 104.578 24C104.711 24.5333 104.778 25.2 104.778 26C104.778 26.7667 104.711 27.4333 104.578 28C104.711 28.5333 104.778 29.2 104.778 30C104.778 30.7667 104.711 31.4333 104.578 32C104.711 32.5333 104.778 33.2 104.778 34C104.778 34.7667 104.711 35.4333 104.578 36C104.711 36.5333 104.778 37.2 104.778 38C104.778 38.7667 104.711 39.4333 104.578 40H100.578C100.445 39.4333 100.378 38.7667 100.378 38C100.378 37.2 100.445 36.5333 100.578 36H99.0781C98.9448 35.4333 98.8781 34.7667 98.8781 34C98.8781 33.2 98.9448 32.5333 99.0781 32H100.578C100.445 31.4333 100.378 30.7667 100.378 30C100.378 29.2 100.445 28.5333 100.578 28H99.0781C98.9448 27.4333 98.8781 26.7667 98.8781 26C98.8781 25.2 98.9448 24.5333 99.0781 24H100.578C100.445 23.4333 100.378 22.7667 100.378 22C100.378 21.2 100.445 20.5333 100.578 20C100.445 19.4333 100.378 18.7667 100.378 18C100.378 17.2 100.445 16.5333 100.578 16C100.445 15.4333 100.378 14.7667 100.378 14C100.378 13.2 100.445 12.5333 100.578 12H104.578C104.711 12.5333 104.778 13.2 104.778 14C104.778 14.7667 104.711 15.4333 104.578 16ZM98.2781 22C98.2781 22.7667 98.2115 23.4333 98.0781 24H93.0781C93.2115 24.5333 93.2781 25.2 93.2781 26C93.2781 26.7667 93.2115 27.4333 93.0781 28H91.5781C91.7115 28.5333 91.7781 29.2 91.7781 30C91.7781 30.7667 91.7115 31.4333 91.5781 32H93.0781C93.2115 32.5333 93.2781 33.2 93.2781 34C93.2781 34.7667 93.2115 35.4333 93.0781 36H98.0781C98.2115 36.5333 98.2781 37.2 98.2781 38C98.2781 38.7667 98.2115 39.4333 98.0781 40H92.5781C92.4448 39.4333 92.3781 38.7667 92.3781 38C92.3781 37.2 92.4448 36.5333 92.5781 36H90.0781C89.9448 35.4333 89.8781 34.7667 89.8781 34C89.8781 33.2 89.9448 32.5333 90.0781 32H88.5781C88.4448 31.4333 88.3781 30.7667 88.3781 30C88.3781 29.2 88.4448 28.5333 88.5781 28H90.0781C89.9448 27.4333 89.8781 26.7667 89.8781 26C89.8781 25.2 89.9448 24.5333 90.0781 24H92.5781C92.4448 23.4333 92.3781 22.7667 92.3781 22C92.3781 21.2 92.4448 20.5333 92.5781 20H98.0781C98.2115 20.5333 98.2781 21.2 98.2781 22ZM124.798 26C124.798 26.7667 124.731 27.4333 124.598 28C124.731 28.5333 124.798 29.2 124.798 30C124.798 30.7667 124.731 31.4333 124.598 32H114.098C114.231 32.5333 114.298 33.2 114.298 34C114.298 34.7667 114.231 35.4333 114.098 36H122.598C122.731 36.5333 122.798 37.2 122.798 38C122.798 38.7667 122.731 39.4333 122.598 40H112.598C112.464 39.4333 112.398 38.7667 112.398 38C112.398 37.2 112.464 36.5333 112.598 36H110.098C109.964 35.4333 109.898 34.7667 109.898 34C109.898 33.2 109.964 32.5333 110.098 32H108.598C108.464 31.4333 108.398 30.7667 108.398 30C108.398 29.2 108.464 28.5333 108.598 28H110.098C109.964 27.4333 109.898 26.7667 109.898 26C109.898 25.2 109.964 24.5333 110.098 24H112.598C112.464 23.4333 112.398 22.7667 112.398 22C112.398 21.2 112.464 20.5333 112.598 20H122.598C122.731 20.5333 122.798 21.2 122.798 22C122.798 22.7667 122.731 23.4333 122.598 24H124.598C124.731 24.5333 124.798 25.2 124.798 26ZM120.598 28C120.464 27.4333 120.398 26.7667 120.398 26C120.398 25.2 120.464 24.5333 120.598 24H114.098C114.231 24.5333 114.298 25.2 114.298 26C114.298 26.7667 114.231 27.4333 114.098 28H120.598Z"
            fill="white" fill-opacity="0.6"/>
    <path
            d="M24.5 36L19.6329 34.8548L19.3551 36.0357L19.6493 37.2127L24.5 36ZM24.5 40V45H28.4601L29.3671 41.1452L24.5 40ZM20.5 40L15.6329 41.1452L16.5399 45H20.5V40ZM20.5 36L25.3507 37.2127L25.6449 36.0357L25.3671 34.8548L20.5 36ZM20.5 32L25.3507 33.2127L26.9039 27H20.5V32ZM12.5 32V27H6.09612L7.64929 33.2127L12.5 32ZM12.5 36L7.63291 34.8548L7.35505 36.0357L7.64929 37.2127L12.5 36ZM12.5 40V45H16.4601L17.3671 41.1452L12.5 40ZM8.5 40L3.63291 41.1452L4.53993 45H8.5V40ZM8.5 36L13.3507 37.2127L13.645 36.0357L13.3671 34.8548L8.5 36ZM8.5 32V27H4.59612L3.64929 30.7873L8.5 32ZM10 32V37H16.313L14.8671 30.8548L10 32ZM10 28L14.8507 29.2127L15.1449 28.0357L14.8671 26.8548L10 28ZM10 24V19H6.09612L5.14929 22.7873L10 24ZM11 24V29H17.313L15.8671 22.8548L11 24ZM11 20V15H7.09612L6.14929 18.7873L11 20ZM12.5 20V25H18.813L17.3671 18.8548L12.5 20ZM12.5 16V11H8.59612L7.64929 14.7873L12.5 16ZM13.5 16V21H19.813L18.3671 14.8548L13.5 16ZM13.5 12V7H9.59612L8.64929 10.7873L13.5 12ZM19.5 12L24.3507 10.7873L23.4039 7H19.5V12ZM19.5 16L14.6329 14.8548L13.187 21H19.5V16ZM20.5 16L25.3507 14.7873L24.4039 11H20.5V16ZM20.5 20L15.6329 18.8548L14.187 25H20.5V20ZM22 20L26.8507 18.7873L25.9039 15H22V20ZM22 24L17.1329 22.8548L15.687 29H22V24ZM23 24L27.8507 22.7873L26.9039 19H23V24ZM23 28L18.1329 26.8548L17.8551 28.0357L18.1493 29.2127L23 28ZM23 32L18.1329 30.8548L16.687 37H23V32ZM24.5 32L29.3507 30.7873L28.4039 27H24.5V32ZM19 28V33H25.313L23.8671 26.8548L19 28ZM19 24L23.8507 25.2127L25.4039 19H19V24ZM18 24L13.1329 25.1452L14.0399 29H18V24ZM18 20L22.8507 21.2127L24.4039 15H18V20ZM15 20V15H8.59612L10.1493 21.2127L15 20ZM15 24V29H18.9601L19.8671 25.1452L15 24ZM14 24V19H7.59612L9.14929 25.2127L14 24ZM14 28L9.13292 26.8548L7.68698 33H14V28ZM19.7 34C19.7 34.4949 19.6552 34.7601 19.6329 34.8548L29.3671 37.1452C29.6115 36.1066 29.7 35.0384 29.7 34H19.7ZM19.6493 37.2127C19.6461 37.2001 19.6606 37.2552 19.6748 37.3975C19.6888 37.5375 19.7 37.7354 19.7 38H29.7C29.7 36.9587 29.6169 35.8522 29.3507 34.7873L19.6493 37.2127ZM19.7 38C19.7 38.4949 19.6552 38.7601 19.6329 38.8548L29.3671 41.1452C29.6115 40.1066 29.7 39.0384 29.7 38H19.7ZM24.5 35H20.5V45H24.5V35ZM25.3671 38.8548C25.3448 38.7601 25.3 38.4949 25.3 38H15.3C15.3 39.0384 15.3885 40.1066 15.6329 41.1452L25.3671 38.8548ZM25.3 38C25.3 37.7354 25.3112 37.5375 25.3252 37.3975C25.3394 37.2552 25.3539 37.2001 25.3507 37.2127L15.6493 34.7873C15.3831 35.8522 15.3 36.9587 15.3 38H25.3ZM25.3671 34.8548C25.3448 34.7601 25.3 34.4949 25.3 34H15.3C15.3 35.0384 15.3885 36.1066 15.6329 37.1452L25.3671 34.8548ZM25.3 34C25.3 33.7354 25.3112 33.5375 25.3252 33.3975C25.3394 33.2552 25.3539 33.2001 25.3507 33.2127L15.6493 30.7873C15.3831 31.8522 15.3 32.9587 15.3 34H25.3ZM20.5 27H12.5V37H20.5V27ZM7.64929 33.2127C7.64613 33.2001 7.66058 33.2552 7.67481 33.3975C7.68881 33.5375 7.7 33.7354 7.7 34H17.7C17.7 32.9587 17.6169 31.8522 17.3507 30.7873L7.64929 33.2127ZM7.7 34C7.7 34.4949 7.6552 34.7601 7.63291 34.8548L17.3671 37.1452C17.6115 36.1066 17.7 35.0384 17.7 34H7.7ZM7.64929 37.2127C7.64613 37.2001 7.66058 37.2552 7.67481 37.3975C7.68881 37.5375 7.7 37.7354 7.7 38H17.7C17.7 36.9587 17.6169 35.8522 17.3507 34.7873L7.64929 37.2127ZM7.7 38C7.7 38.4949 7.6552 38.7601 7.63291 38.8548L17.3671 41.1452C17.6115 40.1066 17.7 39.0384 17.7 38H7.7ZM12.5 35H8.5V45H12.5V35ZM13.3671 38.8548C13.3448 38.7601 13.3 38.4949 13.3 38H3.3C3.3 39.0384 3.38853 40.1066 3.63291 41.1452L13.3671 38.8548ZM13.3 38C13.3 37.7354 13.3112 37.5375 13.3252 37.3975C13.3394 37.2552 13.3539 37.2001 13.3507 37.2127L3.64929 34.7873C3.38307 35.8522 3.3 36.9587 3.3 38H13.3ZM13.3671 34.8548C13.3448 34.7601 13.3 34.4949 13.3 34H3.3C3.3 35.0384 3.38853 36.1066 3.63291 37.1452L13.3671 34.8548ZM13.3 34C13.3 33.7354 13.3112 33.5375 13.3252 33.3975C13.3394 33.2552 13.3539 33.2001 13.3507 33.2127L3.64929 30.7873C3.38307 31.8522 3.3 32.9587 3.3 34H13.3ZM8.5 37H10V27H8.5V37ZM14.8671 30.8548C14.8448 30.7601 14.8 30.4949 14.8 30H4.8C4.8 31.0384 4.88853 32.1066 5.13291 33.1452L14.8671 30.8548ZM14.8 30C14.8 29.7354 14.8112 29.5375 14.8252 29.3975C14.8394 29.2552 14.8539 29.2001 14.8507 29.2127L5.14929 26.7873C4.88307 27.8522 4.8 28.9587 4.8 30H14.8ZM14.8671 26.8548C14.8448 26.7601 14.8 26.4949 14.8 26H4.8C4.8 27.0384 4.88853 28.1066 5.13291 29.1452L14.8671 26.8548ZM14.8 26C14.8 25.7354 14.8112 25.5375 14.8252 25.3975C14.8394 25.2552 14.8539 25.2001 14.8507 25.2127L5.14929 22.7873C4.88307 23.8522 4.8 24.9587 4.8 26H14.8ZM10 29H11V19H10V29ZM15.8671 22.8548C15.8448 22.7601 15.8 22.4949 15.8 22H5.8C5.8 23.0384 5.88853 24.1066 6.13291 25.1452L15.8671 22.8548ZM15.8 22C15.8 21.7354 15.8112 21.5375 15.8252 21.3975C15.8394 21.2552 15.8539 21.2001 15.8507 21.2127L6.14929 18.7873C5.88308 19.8522 5.8 20.9587 5.8 22H15.8ZM11 25H12.5V15H11V25ZM17.3671 18.8548C17.3448 18.7601 17.3 18.4949 17.3 18H7.3C7.3 19.0384 7.38853 20.1066 7.63291 21.1452L17.3671 18.8548ZM17.3 18C17.3 17.7354 17.3112 17.5375 17.3252 17.3975C17.3394 17.2552 17.3539 17.2001 17.3507 17.2127L7.64929 14.7873C7.38308 15.8522 7.3 16.9587 7.3 18H17.3ZM12.5 21H13.5V11H12.5V21ZM18.3671 14.8548C18.3448 14.7601 18.3 14.4949 18.3 14H8.3C8.3 15.0384 8.38853 16.1066 8.63291 17.1452L18.3671 14.8548ZM18.3 14C18.3 13.7354 18.3112 13.5375 18.3252 13.3975C18.3394 13.2552 18.3539 13.2001 18.3507 13.2127L8.64929 10.7873C8.38308 11.8522 8.3 12.9587 8.3 14H18.3ZM13.5 17H19.5V7H13.5V17ZM14.6493 13.2127C14.6461 13.2001 14.6606 13.2552 14.6748 13.3975C14.6888 13.5375 14.7 13.7354 14.7 14H24.7C24.7 12.9587 24.6169 11.8522 24.3507 10.7873L14.6493 13.2127ZM14.7 14C14.7 14.4949 14.6552 14.7601 14.6329 14.8548L24.3671 17.1452C24.6115 16.1066 24.7 15.0384 24.7 14H14.7ZM19.5 21H20.5V11H19.5V21ZM15.6493 17.2127C15.6461 17.2001 15.6606 17.2552 15.6748 17.3975C15.6888 17.5375 15.7 17.7354 15.7 18H25.7C25.7 16.9587 25.6169 15.8522 25.3507 14.7873L15.6493 17.2127ZM15.7 18C15.7 18.4949 15.6552 18.7601 15.6329 18.8548L25.3671 21.1452C25.6115 20.1066 25.7 19.0384 25.7 18H15.7ZM20.5 25H22V15H20.5V25ZM17.1493 21.2127C17.1461 21.2001 17.1606 21.2552 17.1748 21.3975C17.1888 21.5375 17.2 21.7354 17.2 22H27.2C27.2 20.9587 27.1169 19.8522 26.8507 18.7873L17.1493 21.2127ZM17.2 22C17.2 22.4949 17.1552 22.7601 17.1329 22.8548L26.8671 25.1452C27.1115 24.1066 27.2 23.0384 27.2 22H17.2ZM22 29H23V19H22V29ZM18.1493 25.2127C18.1461 25.2001 18.1606 25.2552 18.1748 25.3975C18.1888 25.5375 18.2 25.7354 18.2 26H28.2C28.2 24.9587 28.1169 23.8522 27.8507 22.7873L18.1493 25.2127ZM18.2 26C18.2 26.4949 18.1552 26.7601 18.1329 26.8548L27.8671 29.1452C28.1115 28.1066 28.2 27.0384 28.2 26H18.2ZM18.1493 29.2127C18.1461 29.2001 18.1606 29.2552 18.1748 29.3975C18.1888 29.5375 18.2 29.7354 18.2 30H28.2C28.2 28.9587 28.1169 27.8522 27.8507 26.7873L18.1493 29.2127ZM18.2 30C18.2 30.4949 18.1552 30.7601 18.1329 30.8548L27.8671 33.1452C28.1115 32.1066 28.2 31.0384 28.2 30H18.2ZM23 37H24.5V27H23V37ZM19.6493 33.2127C19.6461 33.2001 19.6606 33.2552 19.6748 33.3975C19.6888 33.5375 19.7 33.7354 19.7 34H29.7C29.7 32.9587 29.6169 31.8522 29.3507 30.7873L19.6493 33.2127ZM23.8671 26.8548C23.8448 26.7601 23.8 26.4949 23.8 26H13.8C13.8 27.0384 13.8885 28.1066 14.1329 29.1452L23.8671 26.8548ZM23.8 26C23.8 25.7354 23.8112 25.5375 23.8252 25.3975C23.8394 25.2552 23.8539 25.2001 23.8507 25.2127L14.1493 22.7873C13.8831 23.8522 13.8 24.9587 13.8 26H23.8ZM19 19H18V29H19V19ZM22.8671 22.8548C22.8448 22.7601 22.8 22.4949 22.8 22H12.8C12.8 23.0384 12.8885 24.1066 13.1329 25.1452L22.8671 22.8548ZM22.8 22C22.8 21.7354 22.8112 21.5375 22.8252 21.3975C22.8394 21.2552 22.8539 21.2001 22.8507 21.2127L13.1493 18.7873C12.8831 19.8522 12.8 20.9587 12.8 22H22.8ZM18 15H15V25H18V15ZM10.1493 21.2127C10.1461 21.2001 10.1606 21.2552 10.1748 21.3975C10.1888 21.5375 10.2 21.7354 10.2 22H20.2C20.2 20.9587 20.1169 19.8522 19.8507 18.7873L10.1493 21.2127ZM10.2 22C10.2 22.4949 10.1552 22.7601 10.1329 22.8548L19.8671 25.1452C20.1115 24.1066 20.2 23.0384 20.2 22H10.2ZM15 19H14V29H15V19ZM9.14929 25.2127C9.14613 25.2001 9.16058 25.2552 9.17481 25.3975C9.18882 25.5375 9.2 25.7354 9.2 26H19.2C19.2 24.9587 19.1169 23.8522 18.8507 22.7873L9.14929 25.2127ZM9.2 26C9.2 26.4949 9.1552 26.7601 9.13292 26.8548L18.8671 29.1452C19.1115 28.1066 19.2 27.0384 19.2 26H9.2ZM14 33H19V23H14V33ZM44.5195 24L49.3702 22.7873L48.4234 19H44.5195V24ZM44.5195 28V33H48.4796L49.3866 29.1452L44.5195 28ZM40.5195 28L35.6524 29.1452L36.5595 33H40.5195V28ZM40.5195 24L45.3702 25.2127L46.9234 19H40.5195V24ZM37.0195 24V19H30.6156L32.1688 25.2127L37.0195 24ZM37.0195 28V33H40.9796L41.8866 29.1452L37.0195 28ZM35.5195 28V23H29.1156L30.6688 29.2127L35.5195 28ZM35.5195 32L30.6524 30.8548L30.3746 32.0357L30.6688 33.2127L35.5195 32ZM35.5195 36L30.6524 34.8548L29.2065 41H35.5195V36ZM38.5195 36L43.3702 34.7873L42.4234 31H38.5195V36ZM38.5195 40V45H42.4796L43.3866 41.1452L38.5195 40ZM28.5195 40L23.6524 41.1452L24.5595 45H28.5195V40ZM28.5195 36V31H24.6157L23.6688 34.7873L28.5195 36ZM31.5195 36V41H37.8325L36.3866 34.8548L31.5195 36ZM31.5195 32L36.3702 33.2127L36.6645 32.0357L36.3866 30.8548L31.5195 32ZM31.5195 28L36.3702 29.2127L36.6645 28.0357L36.3866 26.8548L31.5195 28ZM31.5195 24L36.3702 25.2127L37.9234 19H31.5195V24ZM28.5195 24L23.6524 25.1452L24.5595 29H28.5195V24ZM28.5195 20V15H24.6157L23.6688 18.7873L28.5195 20ZM33.5195 20L38.3702 18.7873L37.4234 15H33.5195V20ZM33.5195 24L28.6524 22.8548L27.2065 29H33.5195V24ZM35.5195 24V29H41.8325L40.3866 22.8548L35.5195 24ZM35.5195 20V15H31.6156L30.6688 18.7873L35.5195 20ZM43.0195 20L47.8702 18.7873L46.9234 15H43.0195V20ZM43.0195 24L38.1524 22.8548L36.7065 29H43.0195V24ZM39.6688 25.2127C39.6657 25.2001 39.6801 25.2552 39.6943 25.3975C39.7083 25.5375 39.7195 25.7354 39.7195 26H49.7195C49.7195 24.9587 49.6365 23.8522 49.3702 22.7873L39.6688 25.2127ZM39.7195 26C39.7195 26.4949 39.6747 26.7601 39.6524 26.8548L49.3866 29.1452C49.631 28.1066 49.7195 27.0384 49.7195 26H39.7195ZM44.5195 23H40.5195V33H44.5195V23ZM45.3866 26.8548C45.3643 26.7601 45.3195 26.4949 45.3195 26H35.3195C35.3195 27.0384 35.4081 28.1066 35.6524 29.1452L45.3866 26.8548ZM45.3195 26C45.3195 25.7354 45.3307 25.5375 45.3447 25.3975C45.359 25.2552 45.3734 25.2 45.3702 25.2127L35.6688 22.7873C35.4026 23.8522 35.3195 24.9587 35.3195 26H45.3195ZM40.5195 19H37.0195V29H40.5195V19ZM32.1688 25.2127C32.1657 25.2001 32.1801 25.2552 32.1943 25.3975C32.2083 25.5375 32.2195 25.7354 32.2195 26H42.2195C42.2195 24.9587 42.1365 23.8522 41.8702 22.7873L32.1688 25.2127ZM32.2195 26C32.2195 26.4949 32.1747 26.7601 32.1524 26.8548L41.8866 29.1452C42.131 28.1066 42.2195 27.0384 42.2195 26H32.2195ZM37.0195 23H35.5195V33H37.0195V23ZM30.6688 29.2127C30.6657 29.2001 30.6801 29.2552 30.6943 29.3975C30.7083 29.5375 30.7195 29.7354 30.7195 30H40.7195C40.7195 28.9587 40.6365 27.8522 40.3702 26.7873L30.6688 29.2127ZM30.7195 30C30.7195 30.4949 30.6747 30.7601 30.6524 30.8548L40.3866 33.1452C40.631 32.1066 40.7195 31.0384 40.7195 30H30.7195ZM30.6688 33.2127C30.6657 33.2001 30.6801 33.2552 30.6943 33.3975C30.7083 33.5375 30.7195 33.7354 30.7195 34H40.7195C40.7195 32.9587 40.6365 31.8522 40.3702 30.7873L30.6688 33.2127ZM30.7195 34C30.7195 34.4949 30.6747 34.7601 30.6524 34.8548L40.3866 37.1452C40.631 36.1066 40.7195 35.0384 40.7195 34H30.7195ZM35.5195 41H38.5195V31H35.5195V41ZM33.6688 37.2127C33.6657 37.2001 33.6801 37.2552 33.6943 37.3975C33.7083 37.5375 33.7195 37.7354 33.7195 38H43.7195C43.7195 36.9587 43.6365 35.8522 43.3702 34.7873L33.6688 37.2127ZM33.7195 38C33.7195 38.4949 33.6747 38.7601 33.6524 38.8548L43.3866 41.1452C43.631 40.1066 43.7195 39.0384 43.7195 38H33.7195ZM38.5195 35H28.5195V45H38.5195V35ZM33.3866 38.8548C33.3643 38.7601 33.3195 38.4949 33.3195 38H23.3195C23.3195 39.0384 23.4081 40.1066 23.6524 41.1452L33.3866 38.8548ZM33.3195 38C33.3195 37.7354 33.3307 37.5375 33.3447 37.3975C33.3589 37.2552 33.3734 37.2001 33.3702 37.2127L23.6688 34.7873C23.4026 35.8522 23.3195 36.9587 23.3195 38H33.3195ZM28.5195 41H31.5195V31H28.5195V41ZM36.3866 34.8548C36.3643 34.7601 36.3195 34.4949 36.3195 34H26.3195C26.3195 35.0384 26.4081 36.1066 26.6524 37.1452L36.3866 34.8548ZM36.3195 34C36.3195 33.7354 36.3307 33.5375 36.3447 33.3975C36.3589 33.2552 36.3734 33.2001 36.3702 33.2127L26.6688 30.7873C26.4026 31.8522 26.3195 32.9587 26.3195 34H36.3195ZM36.3866 30.8548C36.3643 30.7601 36.3195 30.4949 36.3195 30H26.3195C26.3195 31.0384 26.4081 32.1066 26.6524 33.1452L36.3866 30.8548ZM36.3195 30C36.3195 29.7354 36.3307 29.5375 36.3447 29.3975C36.3589 29.2552 36.3734 29.2001 36.3702 29.2127L26.6688 26.7873C26.4026 27.8522 26.3195 28.9587 26.3195 30H36.3195ZM36.3866 26.8548C36.3643 26.7601 36.3195 26.4949 36.3195 26H26.3195C26.3195 27.0384 26.4081 28.1066 26.6524 29.1452L36.3866 26.8548ZM36.3195 26C36.3195 25.7354 36.3307 25.5375 36.3447 25.3975C36.3589 25.2552 36.3734 25.2001 36.3702 25.2127L26.6688 22.7873C26.4026 23.8522 26.3195 24.9587 26.3195 26H36.3195ZM31.5195 19H28.5195V29H31.5195V19ZM33.3866 22.8548C33.3643 22.7601 33.3195 22.4949 33.3195 22H23.3195C23.3195 23.0384 23.4081 24.1066 23.6524 25.1452L33.3866 22.8548ZM33.3195 22C33.3195 21.7354 33.3307 21.5375 33.3447 21.3975C33.3589 21.2552 33.3734 21.2001 33.3702 21.2127L23.6688 18.7873C23.4026 19.8522 23.3195 20.9587 23.3195 22H33.3195ZM28.5195 25H33.5195V15H28.5195V25ZM28.6688 21.2127C28.6657 21.2001 28.6801 21.2552 28.6943 21.3975C28.7083 21.5375 28.7195 21.7354 28.7195 22H38.7195C38.7195 20.9587 38.6365 19.8522 38.3702 18.7873L28.6688 21.2127ZM28.7195 22C28.7195 22.4949 28.6747 22.7601 28.6524 22.8548L38.3866 25.1452C38.631 24.1066 38.7195 23.0384 38.7195 22H28.7195ZM33.5195 29H35.5195V19H33.5195V29ZM40.3866 22.8548C40.3643 22.7601 40.3195 22.4949 40.3195 22H30.3195C30.3195 23.0384 30.4081 24.1066 30.6524 25.1452L40.3866 22.8548ZM40.3195 22C40.3195 21.7354 40.3307 21.5375 40.3447 21.3975C40.359 21.2552 40.3734 21.2001 40.3702 21.2127L30.6688 18.7873C30.4026 19.8522 30.3195 20.9587 30.3195 22H40.3195ZM35.5195 25H43.0195V15H35.5195V25ZM38.1688 21.2127C38.1657 21.2001 38.1801 21.2552 38.1943 21.3975C38.2083 21.5375 38.2195 21.7354 38.2195 22H48.2195C48.2195 20.9587 48.1365 19.8522 47.8702 18.7873L38.1688 21.2127ZM38.2195 22C38.2195 22.4949 38.1747 22.7601 38.1524 22.8548L47.8866 25.1452C48.131 24.1066 48.2195 23.0384 48.2195 22H38.2195ZM43.0195 29H44.5195V19H43.0195V29ZM64.5391 32L69.3898 30.7873L68.4429 27H64.5391V32ZM64.5391 36V41H68.4991L69.4061 37.1452L64.5391 36ZM62.5391 36V31H56.1352L57.6884 37.2127L62.5391 36ZM62.5391 40V45H66.4991L67.4062 41.1452L62.5391 40ZM52.5391 40L47.672 41.1452L48.579 45H52.5391V40ZM52.5391 36L57.3898 37.2127L58.9429 31H52.5391V36ZM50.5391 36L45.672 37.1452L46.579 41H50.5391V36ZM50.5391 32L55.3898 33.2127L56.9429 27H50.5391V32ZM48.5391 32L43.672 33.1452L44.579 37H48.5391V32ZM48.5391 28V23H44.6352L43.6884 26.7873L48.5391 28ZM50.5391 28V33H56.8521L55.4061 26.8548L50.5391 28ZM50.5391 24V19H46.6352L45.6884 22.7873L50.5391 24ZM52.5391 24V29H58.8521L57.4061 22.8548L52.5391 24ZM52.5391 20V15H48.6352L47.6884 18.7873L52.5391 20ZM62.5391 20L67.3898 18.7873L66.443 15H62.5391V20ZM62.5391 24L57.672 22.8548L56.2261 29H62.5391V24ZM64.5391 24L69.3898 22.7873L68.4429 19H64.5391V24ZM64.5391 28V33H68.4991L69.4061 29.1452L64.5391 28ZM60.5391 28L55.672 29.1452L56.579 33H60.5391V28ZM60.5391 24L65.3898 25.2127L66.9429 19H60.5391V24ZM54.5391 24V19H48.1352L49.6884 25.2127L54.5391 24ZM54.5391 28V33H58.4991L59.4062 29.1452L54.5391 28ZM52.5391 28V23H46.1352L47.6884 29.2127L52.5391 28ZM52.5391 32L47.672 30.8548L46.226 37H52.5391V32ZM54.5391 32L59.3898 30.7873L58.4429 27H54.5391V32ZM54.5391 36L49.672 34.8548L48.2261 41H54.5391V36ZM60.5391 36V41H66.8521L65.4062 34.8548L60.5391 36ZM60.5391 32V27H56.6352L55.6883 30.7873L60.5391 32ZM59.6884 33.2127C59.6852 33.2001 59.6996 33.2552 59.7139 33.3975C59.7279 33.5375 59.7391 33.7354 59.7391 34H69.7391C69.7391 32.9587 69.656 31.8522 69.3898 30.7873L59.6884 33.2127ZM59.7391 34C59.7391 34.4949 59.6943 34.7601 59.672 34.8548L69.4061 37.1452C69.6505 36.1066 69.7391 35.0384 69.7391 34H59.7391ZM64.5391 31H62.5391V41H64.5391V31ZM57.6884 37.2127C57.6852 37.2001 57.6996 37.2552 57.7139 37.3975C57.7279 37.5375 57.7391 37.7354 57.7391 38H67.7391C67.7391 36.9587 67.656 35.8522 67.3898 34.7873L57.6884 37.2127ZM57.7391 38C57.7391 38.4949 57.6943 38.7601 57.672 38.8548L67.4062 41.1452C67.6505 40.1066 67.7391 39.0384 67.7391 38H57.7391ZM62.5391 35H52.5391V45H62.5391V35ZM57.4061 38.8548C57.3839 38.7601 57.3391 38.4949 57.3391 38H47.3391C47.3391 39.0384 47.4276 40.1066 47.672 41.1452L57.4061 38.8548ZM57.3391 38C57.3391 37.7354 57.3502 37.5375 57.3643 37.3975C57.3785 37.2552 57.3929 37.2001 57.3898 37.2127L47.6884 34.7873C47.4221 35.8522 47.3391 36.9587 47.3391 38H57.3391ZM52.5391 31H50.5391V41H52.5391V31ZM55.4061 34.8548C55.3839 34.7601 55.3391 34.4949 55.3391 34H45.3391C45.3391 35.0384 45.4276 36.1066 45.672 37.1452L55.4061 34.8548ZM55.3391 34C55.3391 33.7354 55.3502 33.5375 55.3643 33.3975C55.3785 33.2552 55.3929 33.2001 55.3898 33.2127L45.6884 30.7873C45.4221 31.8522 45.3391 32.9587 45.3391 34H55.3391ZM50.5391 27H48.5391V37H50.5391V27ZM53.4061 30.8548C53.3839 30.7601 53.3391 30.4949 53.3391 30H43.3391C43.3391 31.0384 43.4276 32.1066 43.672 33.1452L53.4061 30.8548ZM53.3391 30C53.3391 29.7354 53.3502 29.5375 53.3643 29.3975C53.3785 29.2552 53.3929 29.2001 53.3898 29.2127L43.6884 26.7873C43.4221 27.8522 43.3391 28.9587 43.3391 30H53.3391ZM48.5391 33H50.5391V23H48.5391V33ZM55.4061 26.8548C55.3839 26.7601 55.3391 26.4949 55.3391 26H45.3391C45.3391 27.0384 45.4276 28.1066 45.672 29.1452L55.4061 26.8548ZM55.3391 26C55.3391 25.7354 55.3502 25.5375 55.3643 25.3975C55.3785 25.2552 55.3929 25.2001 55.3898 25.2127L45.6884 22.7873C45.4221 23.8522 45.3391 24.9587 45.3391 26H55.3391ZM50.5391 29H52.5391V19H50.5391V29ZM57.4061 22.8548C57.3839 22.7601 57.3391 22.4949 57.3391 22H47.3391C47.3391 23.0384 47.4276 24.1066 47.672 25.1452L57.4061 22.8548ZM57.3391 22C57.3391 21.7354 57.3502 21.5375 57.3643 21.3975C57.3785 21.2552 57.3929 21.2001 57.3898 21.2127L47.6884 18.7873C47.4221 19.8522 47.3391 20.9587 47.3391 22H57.3391ZM52.5391 25H62.5391V15H52.5391V25ZM57.6884 21.2127C57.6852 21.2001 57.6996 21.2552 57.7139 21.3975C57.7279 21.5375 57.7391 21.7354 57.7391 22H67.7391C67.7391 20.9587 67.656 19.8522 67.3898 18.7873L57.6884 21.2127ZM57.7391 22C57.7391 22.4949 57.6943 22.7601 57.672 22.8548L67.4062 25.1452C67.6505 24.1066 67.7391 23.0384 67.7391 22H57.7391ZM62.5391 29H64.5391V19H62.5391V29ZM59.6884 25.2127C59.6852 25.2001 59.6996 25.2552 59.7139 25.3975C59.7279 25.5375 59.7391 25.7354 59.7391 26H69.7391C69.7391 24.9587 69.656 23.8522 69.3898 22.7873L59.6884 25.2127ZM59.7391 26C59.7391 26.4949 59.6943 26.7601 59.672 26.8548L69.4061 29.1452C69.6505 28.1066 69.7391 27.0384 69.7391 26H59.7391ZM64.5391 23H60.5391V33H64.5391V23ZM65.4062 26.8548C65.3839 26.7601 65.3391 26.4949 65.3391 26H55.3391C55.3391 27.0384 55.4276 28.1066 55.672 29.1452L65.4062 26.8548ZM65.3391 26C65.3391 25.7354 65.3503 25.5375 65.3643 25.3975C65.3785 25.2552 65.3929 25.2 65.3898 25.2127L55.6883 22.7873C55.4221 23.8522 55.3391 24.9587 55.3391 26H65.3391ZM60.5391 19H54.5391V29H60.5391V19ZM49.6884 25.2127C49.6852 25.2001 49.6996 25.2552 49.7139 25.3975C49.7279 25.5375 49.7391 25.7354 49.7391 26H59.7391C59.7391 24.9587 59.656 23.8522 59.3898 22.7873L49.6884 25.2127ZM49.7391 26C49.7391 26.4949 49.6943 26.7601 49.672 26.8548L59.4062 29.1452C59.6505 28.1066 59.7391 27.0384 59.7391 26H49.7391ZM54.5391 23H52.5391V33H54.5391V23ZM47.6884 29.2127C47.6852 29.2001 47.6996 29.2552 47.7139 29.3975C47.7279 29.5375 47.7391 29.7354 47.7391 30H57.7391C57.7391 28.9587 57.656 27.8522 57.3898 26.7873L47.6884 29.2127ZM47.7391 30C47.7391 30.4949 47.6943 30.7601 47.672 30.8548L57.4061 33.1452C57.6505 32.1066 57.7391 31.0384 57.7391 30H47.7391ZM52.5391 37H54.5391V27H52.5391V37ZM49.6884 33.2127C49.6852 33.2001 49.6996 33.2552 49.7139 33.3975C49.7279 33.5375 49.7391 33.7354 49.7391 34H59.7391C59.7391 32.9587 59.656 31.8522 59.3898 30.7873L49.6884 33.2127ZM49.7391 34C49.7391 34.4949 49.6943 34.7601 49.672 34.8548L59.4062 37.1452C59.6505 36.1066 59.7391 35.0384 59.7391 34H49.7391ZM54.5391 41H60.5391V31H54.5391V41ZM65.4062 34.8548C65.3839 34.7601 65.3391 34.4949 65.3391 34H55.3391C55.3391 35.0384 55.4276 36.1066 55.672 37.1452L65.4062 34.8548ZM65.3391 34C65.3391 33.7354 65.3503 33.5375 65.3643 33.3975C65.3785 33.2552 65.3929 33.2001 65.3898 33.2127L55.6883 30.7873C55.4221 31.8522 55.3391 32.9587 55.3391 34H65.3391ZM60.5391 37H64.5391V27H60.5391V37ZM84.5586 36L89.4093 34.7873L88.4625 31H84.5586V36ZM84.5586 40V45H88.5187L89.4257 41.1452L84.5586 40ZM80.5586 40L75.6915 41.1452L76.5985 45H80.5586V40ZM80.5586 36L85.4093 37.2127L86.9625 31H80.5586V36ZM78.5586 36L73.6915 37.1452L74.5985 41H78.5586V36ZM78.5586 32L83.4093 33.2127L84.9625 27H78.5586V32ZM72.5586 32V27H66.1547L67.7079 33.2127L72.5586 32ZM72.5586 36L67.6915 34.8548L66.2456 41H72.5586V36ZM78.5586 36L83.4093 34.7873L82.4625 31H78.5586V36ZM78.5586 40V45H82.5187L83.4257 41.1452L78.5586 40ZM70.5586 40L65.6915 41.1452L66.5985 45H70.5586V40ZM70.5586 36L75.4093 37.2127L76.9625 31H70.5586V36ZM68.5586 36L63.6915 37.1452L64.5985 41H68.5586V36ZM68.5586 32V27H64.6547L63.7079 30.7873L68.5586 32ZM70.5586 32V37H76.8716L75.4257 30.8548L70.5586 32ZM70.5586 28V23H66.6547L65.7079 26.7873L70.5586 28ZM78.5586 28V33H84.8716L83.4257 26.8548L78.5586 28ZM78.5586 24L83.4093 25.2127L84.9625 19H78.5586V24ZM71.5586 24L66.6915 25.1452L67.5985 29H71.5586V24ZM71.5586 20V15H67.6547L66.7079 18.7873L71.5586 20ZM80.5586 20L85.4093 18.7873L84.4625 15H80.5586V20ZM80.5586 24L75.6915 22.8548L74.2456 29H80.5586V24ZM82.5586 24L87.4093 22.7873L86.4625 19H82.5586V24ZM82.5586 28L77.6915 26.8548L77.4136 28.0357L77.7079 29.2127L82.5586 28ZM82.5586 32L77.6915 30.8548L77.4136 32.0357L77.7079 33.2127L82.5586 32ZM82.5586 36L77.6915 34.8548L76.2456 41H82.5586V36ZM79.7079 37.2127C79.7047 37.2001 79.7192 37.2552 79.7334 37.3975C79.7474 37.5375 79.7586 37.7354 79.7586 38H89.7586C89.7586 36.9587 89.6755 35.8522 89.4093 34.7873L79.7079 37.2127ZM79.7586 38C79.7586 38.4949 79.7138 38.7601 79.6915 38.8548L89.4257 41.1452C89.6701 40.1066 89.7586 39.0384 89.7586 38H79.7586ZM84.5586 35H80.5586V45H84.5586V35ZM85.4257 38.8548C85.4034 38.7601 85.3586 38.4949 85.3586 38H75.3586C75.3586 39.0384 75.4471 40.1066 75.6915 41.1452L85.4257 38.8548ZM85.3586 38C85.3586 37.7354 85.3698 37.5375 85.3838 37.3975C85.398 37.2552 85.4125 37.2001 85.4093 37.2127L75.7079 34.7873C75.4417 35.8522 75.3586 36.9587 75.3586 38H85.3586ZM80.5586 31H78.5586V41H80.5586V31ZM83.4257 34.8548C83.4034 34.7601 83.3586 34.4949 83.3586 34H73.3586C73.3586 35.0384 73.4471 36.1066 73.6915 37.1452L83.4257 34.8548ZM83.3586 34C83.3586 33.7354 83.3698 33.5375 83.3838 33.3975C83.398 33.2552 83.4125 33.2001 83.4093 33.2127L73.7079 30.7873C73.4417 31.8522 73.3586 32.9587 73.3586 34H83.3586ZM78.5586 27H72.5586V37H78.5586V27ZM67.7079 33.2127C67.7047 33.2001 67.7192 33.2552 67.7334 33.3975C67.7474 33.5375 67.7586 33.7354 67.7586 34H77.7586C77.7586 32.9587 77.6755 31.8522 77.4093 30.7873L67.7079 33.2127ZM67.7586 34C67.7586 34.4949 67.7138 34.7601 67.6915 34.8548L77.4257 37.1452C77.6701 36.1066 77.7586 35.0384 77.7586 34H67.7586ZM72.5586 41H78.5586V31H72.5586V41ZM73.7079 37.2127C73.7047 37.2001 73.7192 37.2552 73.7334 37.3975C73.7474 37.5375 73.7586 37.7354 73.7586 38H83.7586C83.7586 36.9587 83.6755 35.8522 83.4093 34.7873L73.7079 37.2127ZM73.7586 38C73.7586 38.4949 73.7138 38.7601 73.6915 38.8548L83.4257 41.1452C83.6701 40.1066 83.7586 39.0384 83.7586 38H73.7586ZM78.5586 35H70.5586V45H78.5586V35ZM75.4257 38.8548C75.4034 38.7601 75.3586 38.4949 75.3586 38H65.3586C65.3586 39.0384 65.4471 40.1066 65.6915 41.1452L75.4257 38.8548ZM75.3586 38C75.3586 37.7354 75.3698 37.5375 75.3838 37.3975C75.398 37.2552 75.4125 37.2001 75.4093 37.2127L65.7079 34.7873C65.4417 35.8522 65.3586 36.9587 65.3586 38H75.3586ZM70.5586 31H68.5586V41H70.5586V31ZM73.4257 34.8548C73.4034 34.7601 73.3586 34.4949 73.3586 34H63.3586C63.3586 35.0384 63.4471 36.1066 63.6915 37.1452L73.4257 34.8548ZM73.3586 34C73.3586 33.7354 73.3698 33.5375 73.3838 33.3975C73.398 33.2552 73.4125 33.2001 73.4093 33.2127L63.7079 30.7873C63.4417 31.8522 63.3586 32.9587 63.3586 34H73.3586ZM68.5586 37H70.5586V27H68.5586V37ZM75.4257 30.8548C75.4034 30.7601 75.3586 30.4949 75.3586 30H65.3586C65.3586 31.0384 65.4471 32.1066 65.6915 33.1452L75.4257 30.8548ZM75.3586 30C75.3586 29.7354 75.3698 29.5375 75.3838 29.3975C75.398 29.2552 75.4125 29.2001 75.4093 29.2127L65.7079 26.7873C65.4417 27.8522 65.3586 28.9587 65.3586 30H75.3586ZM70.5586 33H78.5586V23H70.5586V33ZM83.4257 26.8548C83.4034 26.7601 83.3586 26.4949 83.3586 26H73.3586C73.3586 27.0384 73.4471 28.1066 73.6915 29.1452L83.4257 26.8548ZM83.3586 26C83.3586 25.7354 83.3698 25.5375 83.3838 25.3975C83.398 25.2552 83.4125 25.2001 83.4093 25.2127L73.7079 22.7873C73.4417 23.8522 73.3586 24.9587 73.3586 26H83.3586ZM78.5586 19H71.5586V29H78.5586V19ZM76.4257 22.8548C76.4034 22.7601 76.3586 22.4949 76.3586 22H66.3586C66.3586 23.0384 66.4471 24.1066 66.6915 25.1452L76.4257 22.8548ZM76.3586 22C76.3586 21.7354 76.3698 21.5375 76.3838 21.3975C76.398 21.2552 76.4125 21.2001 76.4093 21.2127L66.7079 18.7873C66.4417 19.8522 66.3586 20.9587 66.3586 22H76.3586ZM71.5586 25H80.5586V15H71.5586V25ZM75.7079 21.2127C75.7047 21.2001 75.7192 21.2552 75.7334 21.3975C75.7474 21.5375 75.7586 21.7354 75.7586 22H85.7586C85.7586 20.9587 85.6755 19.8522 85.4093 18.7873L75.7079 21.2127ZM75.7586 22C75.7586 22.4949 75.7138 22.7601 75.6915 22.8548L85.4257 25.1452C85.6701 24.1066 85.7586 23.0384 85.7586 22H75.7586ZM80.5586 29H82.5586V19H80.5586V29ZM77.7079 25.2127C77.7047 25.2 77.7192 25.2552 77.7334 25.3975C77.7474 25.5375 77.7586 25.7354 77.7586 26H87.7586C87.7586 24.9587 87.6755 23.8522 87.4093 22.7873L77.7079 25.2127ZM77.7586 26C77.7586 26.4949 77.7138 26.7601 77.6915 26.8548L87.4257 29.1452C87.6701 28.1066 87.7586 27.0384 87.7586 26H77.7586ZM77.7079 29.2127C77.7047 29.2001 77.7192 29.2552 77.7334 29.3975C77.7474 29.5375 77.7586 29.7354 77.7586 30H87.7586C87.7586 28.9587 87.6755 27.8522 87.4093 26.7873L77.7079 29.2127ZM77.7586 30C77.7586 30.4949 77.7138 30.7601 77.6915 30.8548L87.4257 33.1452C87.6701 32.1066 87.7586 31.0384 87.7586 30H77.7586ZM77.7079 33.2127C77.7047 33.2001 77.7192 33.2552 77.7334 33.3975C77.7474 33.5375 77.7586 33.7354 77.7586 34H87.7586C87.7586 32.9587 87.6755 31.8522 87.4093 30.7873L77.7079 33.2127ZM77.7586 34C77.7586 34.4949 77.7138 34.7601 77.6915 34.8548L87.4257 37.1452C87.6701 36.1066 87.7586 35.0384 87.7586 34H77.7586ZM82.5586 41H84.5586V31H82.5586V41ZM104.578 16L99.711 14.8548L99.4332 16.0357L99.7274 17.2127L104.578 16ZM104.578 20L99.711 18.8548L99.4332 20.0357L99.7274 21.2127L104.578 20ZM104.578 24L99.711 22.8548L99.4332 24.0357L99.7274 25.2127L104.578 24ZM104.578 28L99.711 26.8548L99.4332 28.0357L99.7274 29.2127L104.578 28ZM104.578 32L99.711 30.8548L99.4332 32.0357L99.7274 33.2127L104.578 32ZM104.578 36L99.711 34.8548L99.4332 36.0357L99.7274 37.2127L104.578 36ZM104.578 40V45H108.538L109.445 41.1452L104.578 40ZM100.578 40L95.711 41.1452L96.618 45H100.578V40ZM100.578 36L105.429 37.2127L106.982 31H100.578V36ZM99.0781 36L94.211 37.1452L95.118 41H99.0781V36ZM99.0781 32V27H95.1742L94.2274 30.7873L99.0781 32ZM100.578 32V37H106.891L105.445 30.8548L100.578 32ZM100.578 28L105.429 29.2127L106.982 23H100.578V28ZM99.0781 28L94.211 29.1452L95.118 33H99.0781V28ZM99.0781 24V19H95.1742L94.2274 22.7873L99.0781 24ZM100.578 24V29H106.891L105.445 22.8548L100.578 24ZM100.578 20L105.429 21.2127L105.723 20.0357L105.445 18.8548L100.578 20ZM100.578 16L105.429 17.2127L105.723 16.0357L105.445 14.8548L100.578 16ZM100.578 12V7H96.6742L95.7274 10.7873L100.578 12ZM104.578 12L109.429 10.7873L108.482 7H104.578V12ZM98.0781 24V29H102.038L102.945 25.1452L98.0781 24ZM93.0781 24V19H86.6742L88.2274 25.2127L93.0781 24ZM93.0781 28V33H97.0382L97.9452 29.1452L93.0781 28ZM91.5781 28V23H85.1742L86.7274 29.2127L91.5781 28ZM91.5781 32L86.711 30.8548L85.2651 37H91.5781V32ZM93.0781 32L97.9288 30.7873L96.982 27H93.0781V32ZM93.0781 36L88.211 34.8548L86.7651 41H93.0781V36ZM98.0781 36L102.929 34.7873L101.982 31H98.0781V36ZM98.0781 40V45H102.038L102.945 41.1452L98.0781 40ZM92.5781 40L87.711 41.1452L88.618 45H92.5781V40ZM92.5781 36L97.4288 37.2127L98.982 31H92.5781V36ZM90.0781 36L85.211 37.1452L86.118 41H90.0781V36ZM90.0781 32L94.9288 33.2127L96.482 27H90.0781V32ZM88.5781 32L83.711 33.1452L84.618 37H88.5781V32ZM88.5781 28V23H84.6742L83.7274 26.7873L88.5781 28ZM90.0781 28V33H96.3911L94.9452 26.8548L90.0781 28ZM90.0781 24V19H86.1742L85.2274 22.7873L90.0781 24ZM92.5781 24V29H98.8911L97.4452 22.8548L92.5781 24ZM92.5781 20V15H88.6742L87.7274 18.7873L92.5781 20ZM98.0781 20L102.929 18.7873L101.982 15H98.0781V20ZM99.7274 17.2127C99.7243 17.2001 99.7387 17.2552 99.7529 17.3975C99.7669 17.5375 99.7781 17.7354 99.7781 18H109.778C109.778 16.9587 109.695 15.8522 109.429 14.7873L99.7274 17.2127ZM99.7781 18C99.7781 18.4949 99.7333 18.7601 99.711 18.8548L109.445 21.1452C109.69 20.1066 109.778 19.0384 109.778 18H99.7781ZM99.7274 21.2127C99.7243 21.2001 99.7387 21.2552 99.7529 21.3975C99.7669 21.5375 99.7781 21.7354 99.7781 22H109.778C109.778 20.9587 109.695 19.8522 109.429 18.7873L99.7274 21.2127ZM99.7781 22C99.7781 22.4949 99.7333 22.7601 99.711 22.8548L109.445 25.1452C109.69 24.1066 109.778 23.0384 109.778 22H99.7781ZM99.7274 25.2127C99.7243 25.2001 99.7387 25.2552 99.7529 25.3975C99.7669 25.5375 99.7781 25.7354 99.7781 26H109.778C109.778 24.9587 109.695 23.8522 109.429 22.7873L99.7274 25.2127ZM99.7781 26C99.7781 26.4949 99.7333 26.7601 99.711 26.8548L109.445 29.1452C109.69 28.1066 109.778 27.0384 109.778 26H99.7781ZM99.7274 29.2127C99.7243 29.2001 99.7387 29.2552 99.7529 29.3975C99.7669 29.5375 99.7781 29.7354 99.7781 30H109.778C109.778 28.9587 109.695 27.8522 109.429 26.7873L99.7274 29.2127ZM99.7781 30C99.7781 30.4949 99.7333 30.7601 99.711 30.8548L109.445 33.1452C109.69 32.1066 109.778 31.0384 109.778 30H99.7781ZM99.7274 33.2127C99.7243 33.2001 99.7387 33.2552 99.7529 33.3975C99.7669 33.5375 99.7781 33.7354 99.7781 34H109.778C109.778 32.9587 109.695 31.8522 109.429 30.7873L99.7274 33.2127ZM99.7781 34C99.7781 34.4949 99.7333 34.7601 99.711 34.8548L109.445 37.1452C109.69 36.1066 109.778 35.0384 109.778 34H99.7781ZM99.7274 37.2127C99.7243 37.2001 99.7387 37.2552 99.7529 37.3975C99.7669 37.5375 99.7781 37.7354 99.7781 38H109.778C109.778 36.9587 109.695 35.8522 109.429 34.7873L99.7274 37.2127ZM99.7781 38C99.7781 38.4949 99.7333 38.7601 99.711 38.8548L109.445 41.1452C109.69 40.1066 109.778 39.0384 109.778 38H99.7781ZM104.578 35H100.578V45H104.578V35ZM105.445 38.8548C105.423 38.7601 105.378 38.4949 105.378 38H95.3781C95.3781 39.0384 95.4667 40.1066 95.711 41.1452L105.445 38.8548ZM105.378 38C105.378 37.7354 105.389 37.5375 105.403 37.3975C105.418 37.2552 105.432 37.2001 105.429 37.2127L95.7274 34.7873C95.4612 35.8522 95.3781 36.9587 95.3781 38H105.378ZM100.578 31H99.0781V41H100.578V31ZM103.945 34.8548C103.923 34.7601 103.878 34.4949 103.878 34H93.8781C93.8781 35.0384 93.9667 36.1066 94.211 37.1452L103.945 34.8548ZM103.878 34C103.878 33.7354 103.889 33.5375 103.903 33.3975C103.918 33.2552 103.932 33.2001 103.929 33.2127L94.2274 30.7873C93.9612 31.8522 93.8781 32.9587 93.8781 34H103.878ZM99.0781 37H100.578V27H99.0781V37ZM105.445 30.8548C105.423 30.7601 105.378 30.4949 105.378 30H95.3781C95.3781 31.0384 95.4667 32.1066 95.711 33.1452L105.445 30.8548ZM105.378 30C105.378 29.7354 105.389 29.5375 105.403 29.3975C105.418 29.2552 105.432 29.2001 105.429 29.2127L95.7274 26.7873C95.4612 27.8522 95.3781 28.9587 95.3781 30H105.378ZM100.578 23H99.0781V33H100.578V23ZM103.945 26.8548C103.923 26.7601 103.878 26.4949 103.878 26H93.8781C93.8781 27.0384 93.9667 28.1066 94.211 29.1452L103.945 26.8548ZM103.878 26C103.878 25.7354 103.889 25.5375 103.903 25.3975C103.918 25.2552 103.932 25.2001 103.929 25.2127L94.2274 22.7873C93.9612 23.8522 93.8781 24.9587 93.8781 26H103.878ZM99.0781 29H100.578V19H99.0781V29ZM105.445 22.8548C105.423 22.7601 105.378 22.4949 105.378 22H95.3781C95.3781 23.0384 95.4667 24.1066 95.711 25.1452L105.445 22.8548ZM105.378 22C105.378 21.7354 105.389 21.5375 105.403 21.3975C105.418 21.2552 105.432 21.2001 105.429 21.2127L95.7274 18.7873C95.4612 19.8522 95.3781 20.9587 95.3781 22H105.378ZM105.445 18.8548C105.423 18.7601 105.378 18.4949 105.378 18H95.3781C95.3781 19.0384 95.4667 20.1066 95.711 21.1452L105.445 18.8548ZM105.378 18C105.378 17.7354 105.389 17.5375 105.403 17.3975C105.418 17.2552 105.432 17.2 105.429 17.2127L95.7274 14.7873C95.4612 15.8522 95.3781 16.9587 95.3781 18H105.378ZM105.445 14.8548C105.423 14.7601 105.378 14.4949 105.378 14H95.3781C95.3781 15.0384 95.4667 16.1066 95.711 17.1452L105.445 14.8548ZM105.378 14C105.378 13.7354 105.389 13.5375 105.403 13.3975C105.418 13.2552 105.432 13.2001 105.429 13.2127L95.7274 10.7873C95.4612 11.8522 95.3781 12.9587 95.3781 14H105.378ZM100.578 17H104.578V7H100.578V17ZM99.7274 13.2127C99.7243 13.2001 99.7387 13.2552 99.7529 13.3975C99.7669 13.5375 99.7781 13.7354 99.7781 14H109.778C109.778 12.9587 109.695 11.8522 109.429 10.7873L99.7274 13.2127ZM99.7781 14C99.7781 14.4949 99.7333 14.7601 99.711 14.8548L109.445 17.1452C109.69 16.1066 109.778 15.0384 109.778 14H99.7781ZM93.2781 22C93.2781 22.4949 93.2333 22.7601 93.211 22.8548L102.945 25.1452C103.19 24.1066 103.278 23.0384 103.278 22H93.2781ZM98.0781 19H93.0781V29H98.0781V19ZM88.2274 25.2127C88.2243 25.2001 88.2387 25.2552 88.2529 25.3975C88.2669 25.5375 88.2781 25.7354 88.2781 26H98.2781C98.2781 24.9587 98.1951 23.8522 97.9288 22.7873L88.2274 25.2127ZM88.2781 26C88.2781 26.4949 88.2333 26.7601 88.211 26.8548L97.9452 29.1452C98.1896 28.1066 98.2781 27.0384 98.2781 26H88.2781ZM93.0781 23H91.5781V33H93.0781V23ZM86.7274 29.2127C86.7243 29.2001 86.7387 29.2552 86.7529 29.3975C86.7669 29.5375 86.7781 29.7354 86.7781 30H96.7781C96.7781 28.9587 96.6951 27.8522 96.4288 26.7873L86.7274 29.2127ZM86.7781 30C86.7781 30.4949 86.7333 30.7601 86.711 30.8548L96.4452 33.1452C96.6896 32.1066 96.7781 31.0384 96.7781 30H86.7781ZM91.5781 37H93.0781V27H91.5781V37ZM88.2274 33.2127C88.2243 33.2001 88.2387 33.2552 88.2529 33.3975C88.2669 33.5375 88.2781 33.7354 88.2781 34H98.2781C98.2781 32.9587 98.1951 31.8522 97.9288 30.7873L88.2274 33.2127ZM88.2781 34C88.2781 34.4949 88.2333 34.7601 88.211 34.8548L97.9452 37.1452C98.1896 36.1066 98.2781 35.0384 98.2781 34H88.2781ZM93.0781 41H98.0781V31H93.0781V41ZM93.2274 37.2127C93.2243 37.2001 93.2387 37.2552 93.2529 37.3975C93.2669 37.5375 93.2781 37.7354 93.2781 38H103.278C103.278 36.9587 103.195 35.8522 102.929 34.7873L93.2274 37.2127ZM93.2781 38C93.2781 38.4949 93.2333 38.7601 93.211 38.8548L102.945 41.1452C103.19 40.1066 103.278 39.0384 103.278 38H93.2781ZM98.0781 35H92.5781V45H98.0781V35ZM97.4452 38.8548C97.4229 38.7601 97.3781 38.4949 97.3781 38H87.3781C87.3781 39.0384 87.4667 40.1066 87.711 41.1452L97.4452 38.8548ZM97.3781 38C97.3781 37.7354 97.3893 37.5375 97.4033 37.3975C97.4175 37.2552 97.432 37.2001 97.4288 37.2127L87.7274 34.7873C87.4612 35.8522 87.3781 36.9587 87.3781 38H97.3781ZM92.5781 31H90.0781V41H92.5781V31ZM94.9452 34.8548C94.9229 34.7601 94.8781 34.4949 94.8781 34H84.8781C84.8781 35.0384 84.9667 36.1066 85.211 37.1452L94.9452 34.8548ZM94.8781 34C94.8781 33.7354 94.8893 33.5375 94.9033 33.3975C94.9175 33.2552 94.932 33.2001 94.9288 33.2127L85.2274 30.7873C84.9612 31.8522 84.8781 32.9587 84.8781 34H94.8781ZM90.0781 27H88.5781V37H90.0781V27ZM93.4452 30.8548C93.4229 30.7601 93.3781 30.4949 93.3781 30H83.3781C83.3781 31.0384 83.4667 32.1066 83.711 33.1452L93.4452 30.8548ZM93.3781 30C93.3781 29.7354 93.3893 29.5375 93.4033 29.3975C93.4175 29.2552 93.432 29.2001 93.4288 29.2127L83.7274 26.7873C83.4612 27.8522 83.3781 28.9587 83.3781 30H93.3781ZM88.5781 33H90.0781V23H88.5781V33ZM94.9452 26.8548C94.9229 26.7601 94.8781 26.4949 94.8781 26H84.8781C84.8781 27.0384 84.9667 28.1066 85.211 29.1452L94.9452 26.8548ZM94.8781 26C94.8781 25.7354 94.8893 25.5375 94.9033 25.3975C94.9175 25.2552 94.932 25.2001 94.9288 25.2127L85.2274 22.7873C84.9612 23.8522 84.8781 24.9587 84.8781 26H94.8781ZM90.0781 29H92.5781V19H90.0781V29ZM97.4452 22.8548C97.4229 22.7601 97.3781 22.4949 97.3781 22H87.3781C87.3781 23.0384 87.4667 24.1066 87.711 25.1452L97.4452 22.8548ZM97.3781 22C97.3781 21.7354 97.3893 21.5375 97.4033 21.3975C97.4175 21.2552 97.432 21.2001 97.4288 21.2127L87.7274 18.7873C87.4612 19.8522 87.3781 20.9587 87.3781 22H97.3781ZM92.5781 25H98.0781V15H92.5781V25ZM93.2274 21.2127C93.2243 21.2001 93.2387 21.2552 93.2529 21.3975C93.2669 21.5375 93.2781 21.7354 93.2781 22H103.278C103.278 20.9587 103.195 19.8522 102.929 18.7873L93.2274 21.2127ZM124.598 28L119.731 26.8548L119.453 28.0357L119.747 29.2127L124.598 28ZM124.598 32V37H128.558L129.465 33.1452L124.598 32ZM114.098 32V27H107.694L109.247 33.2127L114.098 32ZM114.098 36L109.231 34.8548L107.785 41H114.098V36ZM122.598 36L127.448 34.7873L126.502 31H122.598V36ZM122.598 40V45H126.558L127.465 41.1452L122.598 40ZM112.598 40L107.731 41.1452L108.638 45H112.598V40ZM112.598 36L117.448 37.2127L119.002 31H112.598V36ZM110.098 36L105.231 37.1452L106.138 41H110.098V36ZM110.098 32L114.948 33.2127L116.502 27H110.098V32ZM108.598 32L103.731 33.1452L104.638 37H108.598V32ZM108.598 28V23H104.694L103.747 26.7873L108.598 28ZM110.098 28V33H116.411L114.965 26.8548L110.098 28ZM110.098 24V19H106.194L105.247 22.7873L110.098 24ZM112.598 24V29H118.911L117.465 22.8548L112.598 24ZM112.598 20V15H108.694L107.747 18.7873L112.598 20ZM122.598 20L127.448 18.7873L126.502 15H122.598V20ZM122.598 24L117.731 22.8548L116.285 29H122.598V24ZM124.598 24L129.448 22.7873L128.502 19H124.598V24ZM120.598 28V33H126.911L125.465 26.8548L120.598 28ZM120.598 24L125.448 25.2127L127.002 19H120.598V24ZM114.098 24V19H107.694L109.247 25.2127L114.098 24ZM114.098 28L109.231 26.8548L107.785 33H114.098V28ZM119.798 26C119.798 26.4949 119.753 26.7601 119.731 26.8548L129.465 29.1452C129.709 28.1066 129.798 27.0384 129.798 26H119.798ZM119.747 29.2127C119.744 29.2001 119.758 29.2552 119.772 29.3975C119.786 29.5375 119.798 29.7354 119.798 30H129.798C129.798 28.9587 129.715 27.8522 129.448 26.7873L119.747 29.2127ZM119.798 30C119.798 30.4949 119.753 30.7601 119.731 30.8548L129.465 33.1452C129.709 32.1066 129.798 31.0384 129.798 30H119.798ZM124.598 27H114.098V37H124.598V27ZM109.247 33.2127C109.244 33.2001 109.258 33.2552 109.272 33.3975C109.286 33.5375 109.298 33.7354 109.298 34H119.298C119.298 32.9587 119.215 31.8522 118.948 30.7873L109.247 33.2127ZM109.298 34C109.298 34.4949 109.253 34.7601 109.231 34.8548L118.965 37.1452C119.209 36.1066 119.298 35.0384 119.298 34H109.298ZM114.098 41H122.598V31H114.098V41ZM117.747 37.2127C117.744 37.2001 117.758 37.2552 117.772 37.3975C117.786 37.5375 117.798 37.7354 117.798 38H127.798C127.798 36.9587 127.715 35.8522 127.448 34.7873L117.747 37.2127ZM117.798 38C117.798 38.4949 117.753 38.7601 117.731 38.8548L127.465 41.1452C127.709 40.1066 127.798 39.0384 127.798 38H117.798ZM122.598 35H112.598V45H122.598V35ZM117.465 38.8548C117.442 38.7601 117.398 38.4949 117.398 38H107.398C107.398 39.0384 107.486 40.1066 107.731 41.1452L117.465 38.8548ZM117.398 38C117.398 37.7354 117.409 37.5375 117.423 37.3975C117.437 37.2552 117.452 37.2001 117.448 37.2127L107.747 34.7873C107.481 35.8522 107.398 36.9587 107.398 38H117.398ZM112.598 31H110.098V41H112.598V31ZM114.965 34.8548C114.942 34.7601 114.898 34.4949 114.898 34H104.898C104.898 35.0384 104.986 36.1066 105.231 37.1452L114.965 34.8548ZM114.898 34C114.898 33.7354 114.909 33.5375 114.923 33.3975C114.937 33.2552 114.952 33.2001 114.948 33.2127L105.247 30.7873C104.981 31.8522 104.898 32.9587 104.898 34H114.898ZM110.098 27H108.598V37H110.098V27ZM113.465 30.8548C113.442 30.7601 113.398 30.4949 113.398 30H103.398C103.398 31.0384 103.486 32.1066 103.731 33.1452L113.465 30.8548ZM113.398 30C113.398 29.7354 113.409 29.5375 113.423 29.3975C113.437 29.2552 113.452 29.2001 113.448 29.2127L103.747 26.7873C103.481 27.8522 103.398 28.9587 103.398 30H113.398ZM108.598 33H110.098V23H108.598V33ZM114.965 26.8548C114.942 26.7601 114.898 26.4949 114.898 26H104.898C104.898 27.0384 104.986 28.1066 105.231 29.1452L114.965 26.8548ZM114.898 26C114.898 25.7354 114.909 25.5375 114.923 25.3975C114.937 25.2552 114.952 25.2001 114.948 25.2127L105.247 22.7873C104.981 23.8522 104.898 24.9587 104.898 26H114.898ZM110.098 29H112.598V19H110.098V29ZM117.465 22.8548C117.442 22.7601 117.398 22.4949 117.398 22H107.398C107.398 23.0384 107.486 24.1066 107.731 25.1452L117.465 22.8548ZM117.398 22C117.398 21.7354 117.409 21.5375 117.423 21.3975C117.437 21.2552 117.452 21.2001 117.448 21.2127L107.747 18.7873C107.481 19.8522 107.398 20.9587 107.398 22H117.398ZM112.598 25H122.598V15H112.598V25ZM117.747 21.2127C117.744 21.2001 117.758 21.2552 117.772 21.3975C117.786 21.5375 117.798 21.7354 117.798 22H127.798C127.798 20.9587 127.715 19.8522 127.448 18.7873L117.747 21.2127ZM117.798 22C117.798 22.4949 117.753 22.7601 117.731 22.8548L127.465 25.1452C127.709 24.1066 127.798 23.0384 127.798 22H117.798ZM122.598 29H124.598V19H122.598V29ZM119.747 25.2127C119.744 25.2001 119.758 25.2552 119.772 25.3975C119.786 25.5375 119.798 25.7354 119.798 26H129.798C129.798 24.9587 129.715 23.8522 129.448 22.7873L119.747 25.2127ZM125.465 26.8548C125.442 26.7601 125.398 26.4949 125.398 26H115.398C115.398 27.0384 115.486 28.1066 115.731 29.1452L125.465 26.8548ZM125.398 26C125.398 25.7354 125.409 25.5375 125.423 25.3975C125.437 25.2552 125.452 25.2 125.448 25.2127L115.747 22.7873C115.481 23.8522 115.398 24.9587 115.398 26H125.398ZM120.598 19H114.098V29H120.598V19ZM109.247 25.2127C109.244 25.2001 109.258 25.2552 109.272 25.3975C109.286 25.5375 109.298 25.7354 109.298 26H119.298C119.298 24.9587 119.215 23.8522 118.948 22.7873L109.247 25.2127ZM109.298 26C109.298 26.4949 109.253 26.7601 109.231 26.8548L118.965 29.1452C119.209 28.1066 119.298 27.0384 119.298 26H109.298ZM114.098 33H120.598V23H114.098V33Z"
            fill="black" fill-opacity="0.3"/>
</svg>