<svg width="63" height="64" viewBox="0 0 63 64" fill="none" xmlns="http://www.w3.org/2000/svg">
    <g clip-path="url(#clip0_19658_1579)">
        <path
                d="M31.5 63.5C47.9305 63.5 61.25 50.1805 61.25 33.75C61.25 17.3195 47.9305 4 31.5 4C15.0695 4 1.75 17.3195 1.75 33.75C1.75 50.1805 15.0695 63.5 31.5 63.5Z"
                fill="#F4900C"/>
        <path
                d="M31.5 60C47.9305 60 61.25 46.6805 61.25 30.25C61.25 13.8195 47.9305 0.5 31.5 0.5C15.0695 0.5 1.75 13.8195 1.75 30.25C1.75 46.6805 15.0695 60 31.5 60Z"
                fill="#FFCC4D"/>
        <path
                d="M31.5 56.5C45.031 56.5 56 45.531 56 32C56 18.469 45.031 7.5 31.5 7.5C17.969 7.5 7 18.469 7 32C7 45.531 17.969 56.5 31.5 56.5Z"
                fill="#FFE8B6"/>
        <path
                d="M31.5 54.75C45.031 54.75 56 43.781 56 30.25C56 16.719 45.031 5.75 31.5 5.75C17.969 5.75 7 16.719 7 30.25C7 43.781 17.969 54.75 31.5 54.75Z"
                fill="#FFAC33"/>
        <path
                d="M16.7002 19.4978C16.7002 18.544 17.6364 18.1625 17.6364 18.1625L31.4229 11.6875L45.3407 18.1625C45.3407 18.1625 46.2997 18.376 46.2997 19.5047V20.6265H16.7002V19.4978Z"
                fill="#FFE8B6"/>
        <path
                d="M45.3758 22.963C45.3758 21.941 44.492 21.1133 43.4035 21.1133H19.4758C18.3855 21.1133 17.626 21.941 17.626 22.963C17.626 23.6578 17.983 24.2563 18.5518 24.573V25.7385H22.2513V24.8128H25.9508V25.7385H29.6503V24.8128H33.3498V25.7385H37.0493V24.8128H40.7488V25.7385H44.45V24.5258C45.0048 24.1968 45.3758 23.621 45.3758 22.963ZM48.1495 42.5C48.1495 42.8681 48.0033 43.2211 47.7431 43.4813C47.4828 43.7416 47.1298 43.8878 46.7618 43.8878H16.2383Cnan nan nan nan 16.2383 43.8878L46.7635 41.1123C47.5283 41.1123 48.1495 41.7335 48.1495 42.5Z"
                fill="#F4900C"/>
        <path
                d="M46.3 21.8496C46.3 22.0951 46.2024 22.3306 46.0288 22.5042C45.8552 22.6778 45.6197 22.7753 45.3742 22.7753H17.6245C17.3888 22.7608 17.1675 22.657 17.0057 22.485C16.844 22.3129 16.7539 22.0857 16.7539 21.8496C16.7539 21.6134 16.844 21.3862 17.0057 21.2142C17.1675 21.0422 17.3888 20.9383 17.6245 20.9238L45.3742 20.9291C45.4955 20.9286 45.6156 20.9521 45.7278 20.9981C45.84 21.0441 45.942 21.1118 46.028 21.1973C46.114 21.2828 46.1823 21.3845 46.2289 21.4964C46.2756 21.6083 46.2997 21.7283 46.3 21.8496ZM21.3257 22.9241H41.6765V24.9996H21.3257V22.9241Z"
                fill="#F4900C"/>
        <path
                d="M22.2496 36.9504C22.2496 37.9724 21.6966 38.8002 21.0158 38.8002H19.7821C19.1013 38.8002 18.5483 37.9724 18.5483 36.9504V22.9259C18.5483 21.9039 19.1013 21.0762 19.7821 21.0762H21.0158C21.6966 21.0762 22.2496 21.9039 22.2496 22.9259V36.9504ZM44.4501 36.9504C44.4501 37.9724 43.8988 38.8002 43.2163 38.8002H41.9826C41.3018 38.8002 40.7488 37.9724 40.7488 36.9504V22.9259C40.7488 21.9039 41.3001 21.0762 41.9826 21.0762H43.2163C43.8971 21.0762 44.4501 21.9039 44.4501 22.9259V36.9504ZM29.6503 36.9504C29.6503 37.9724 29.0973 38.8002 28.4166 38.8002H27.1828C26.5021 38.8002 25.9491 37.9724 25.9491 36.9504V22.9259C25.9491 21.9039 26.5021 21.0762 27.1828 21.0762H28.4166C29.0973 21.0762 29.6503 21.9039 29.6503 22.9259V36.9504ZM37.0493 36.9504C37.0493 37.9724 36.4963 38.8002 35.8156 38.8002H34.5836C33.9028 38.8002 33.3498 37.9724 33.3498 36.9504V22.9259C33.3498 21.9039 33.9028 21.0762 34.5836 21.0762H35.8156C36.4963 21.0762 37.0493 21.9039 37.0493 22.9259V36.9504Z"
                fill="#FFD983"/>
        <path
                d="M45.3756 37.8751C45.3756 38.8971 44.5478 39.7249 43.5258 39.7249H19.4756Cnan nan nan nan 19.4756 39.7249L43.5258 36.0254C44.5461 36.0254 45.3756 36.8531 45.3756 37.8751Z"
                fill="#FFCC4D"/>
        <path
                d="M47.2253 39.7247C47.2253 40.7467 46.3975 41.5745 45.3755 41.5745H17.624Cnan nan nan nan 17.624 41.5745L45.3738 37.875C46.3958 37.875 47.2253 38.7027 47.2253 39.7247Z"
                fill="#FFD983"/>
        <path
                d="M48.1496 41.1124C48.1496 41.4804 48.0034 41.8334 47.7431 42.0936C47.4829 42.3539 47.1299 42.5001 46.7618 42.5001H16.2383C16.0561 42.5001 15.8756 42.4642 15.7073 42.3945C15.5389 42.3247 15.3859 42.2225 15.257 42.0936C15.1282 41.9648 15.026 41.8118 14.9562 41.6434C14.8865 41.4751 14.8506 41.2946 14.8506 41.1124C14.8506 40.9301 14.8865 40.7497 14.9562 40.5813C15.026 40.4129 15.1282 40.2599 15.257 40.1311C15.3859 40.0022 15.5389 39.9 15.7073 39.8302C15.8756 39.7605 16.0561 39.7246 16.2383 39.7246H46.7636C47.5283 39.7246 48.1496 40.3459 48.1496 41.1124Z"
                fill="#FFD983"/>
        <path
                d="M45.3757 22.0001C45.3757 20.9781 44.492 20.1504 43.4035 20.1504H19.4757C18.3855 20.1504 17.626 20.9781 17.626 22.0001C17.626 22.6949 17.983 23.2934 18.5517 23.6101V24.7756H22.2512V23.8499H25.9507V24.7756H29.6502V23.8499H33.3497V24.7756H37.0492V23.8499H40.7487V24.7756H44.45V23.5629C45.0047 23.2339 45.3757 22.6581 45.3757 22.0001Z"
                fill="#FFCC4D"/>
        <path
                d="M16.7002 20.5603C16.7002 19.6065 17.6364 19.225 17.6364 19.225L31.4229 12.75L45.3407 19.225C45.3407 19.225 46.2997 19.4385 46.2997 20.5673V21.0765H16.7002V20.5603Z"
                fill="#FFD983"/>
        <path
                d="M31.5002 15.1006C31.5002 15.1006 21.954 19.5998 21.002 20.0058C20.0482 20.4101 20.3667 21.0751 21.0037 21.0751H41.9512C42.9347 21.0751 42.702 20.3243 41.9215 19.9183C41.141 19.5141 31.5002 15.1006 31.5002 15.1006Z"
                fill="#FFAC33"/>
        <path
                d="M46.3 21.0752C46.3 21.3207 46.2024 21.5562 46.0288 21.7298C45.8552 21.9034 45.6197 22.0009 45.3742 22.0009H17.6245C17.3888 21.9864 17.1675 21.8826 17.0057 21.7106C16.844 21.5385 16.7539 21.3113 16.7539 21.0752C16.7539 20.839 16.844 20.6118 17.0057 20.4398C17.1675 20.2678 17.3888 20.1639 17.6245 20.1494L45.3742 20.1547C45.4955 20.1542 45.6156 20.1777 45.7278 20.2237C45.84 20.2697 45.942 20.3374 46.028 20.4229C46.114 20.5084 46.1823 20.61 46.2289 20.722C46.2756 20.8339 46.2997 20.9539 46.3 21.0752Z"
                fill="#FFD983"/>
    </g>
    <defs>
        <clipPath id="clip0_19658_1579">
            <rect width="63" height="63" fill="white" transform="translate(0 0.5)"/>
        </clipPath>
    </defs>
</svg>