<svg xmlns="http://www.w3.org/2000/svg" width="93" height="50" viewBox="0 0 93 50"
     fill="none">
    <path
            d="M24 16C24.1333 16.5333 24.2 17.2 24.2 18C24.2 18.7667 24.1333 19.4333 24 20C24.1333 20.5333 24.2 21.2 24.2 22C24.2 22.7667 24.1333 23.4333 24 24C24.1333 24.5333 24.2 25.2 24.2 26C24.2 26.7667 24.1333 27.4333 24 28C24.1333 28.5333 24.2 29.2 24.2 30C24.2 30.7667 24.1333 31.4333 24 32C24.1333 32.5333 24.2 33.2 24.2 34C24.2 34.7667 24.1333 35.4333 24 36C24.1333 36.5333 24.2 37.2 24.2 38C24.2 38.7667 24.1333 39.4333 24 40H20C19.8667 39.4333 19.8 38.7667 19.8 38C19.8 37.2 19.8667 36.5333 20 36C19.8667 35.4333 19.8 34.7667 19.8 34C19.8 33.2 19.8667 32.5333 20 32C19.8667 31.4333 19.8 30.7667 19.8 30C19.8 29.2 19.8667 28.5333 20 28H12C12.1333 28.5333 12.2 29.2 12.2 30C12.2 30.7667 12.1333 31.4333 12 32C12.1333 32.5333 12.2 33.2 12.2 34C12.2 34.7667 12.1333 35.4333 12 36C12.1333 36.5333 12.2 37.2 12.2 38C12.2 38.7667 12.1333 39.4333 12 40H8C7.86667 39.4333 7.8 38.7667 7.8 38C7.8 37.2 7.86667 36.5333 8 36C7.86667 35.4333 7.8 34.7667 7.8 34C7.8 33.2 7.86667 32.5333 8 32C7.86667 31.4333 7.8 30.7667 7.8 30C7.8 29.2 7.86667 28.5333 8 28C7.86667 27.4333 7.8 26.7667 7.8 26C7.8 25.2 7.86667 24.5333 8 24C7.86667 23.4333 7.8 22.7667 7.8 22C7.8 21.2 7.86667 20.5333 8 20C7.86667 19.4333 7.8 18.7667 7.8 18C7.8 17.2 7.86667 16.5333 8 16C7.86667 15.4333 7.8 14.7667 7.8 14C7.8 13.2 7.86667 12.5333 8 12H12C12.1333 12.5333 12.2 13.2 12.2 14C12.2 14.7667 12.1333 15.4333 12 16C12.1333 16.5333 12.2 17.2 12.2 18C12.2 18.7667 12.1333 19.4333 12 20C12.1333 20.5333 12.2 21.2 12.2 22C12.2 22.7667 12.1333 23.4333 12 24H20C19.8667 23.4333 19.8 22.7667 19.8 22C19.8 21.2 19.8667 20.5333 20 20C19.8667 19.4333 19.8 18.7667 19.8 18C19.8 17.2 19.8667 16.5333 20 16C19.8667 15.4333 19.8 14.7667 19.8 14C19.8 13.2 19.8667 12.5333 20 12H24C24.1333 12.5333 24.2 13.2 24.2 14C24.2 14.7667 24.1333 15.4333 24 16ZM44.2195 30C44.2195 30.7667 44.1529 31.4333 44.0195 32H42.5195C42.6529 32.5333 42.7195 33.2 42.7195 34C42.7195 34.7667 42.6529 35.4333 42.5195 36H40.0195C40.1529 36.5333 40.2195 37.2 40.2195 38C40.2195 38.7667 40.1529 39.4333 40.0195 40H32.0195C31.8862 39.4333 31.8195 38.7667 31.8195 38C31.8195 37.2 31.8862 36.5333 32.0195 36H29.5195C29.3862 35.4333 29.3195 34.7667 29.3195 34C29.3195 33.2 29.3862 32.5333 29.5195 32H28.0195C27.8862 31.4333 27.8195 30.7667 27.8195 30C27.8195 29.2 27.8862 28.5333 28.0195 28H29.5195C29.3862 27.4333 29.3195 26.7667 29.3195 26C29.3195 25.2 29.3862 24.5333 29.5195 24H32.0195C31.8862 23.4333 31.8195 22.7667 31.8195 22C31.8195 21.2 31.8862 20.5333 32.0195 20H40.0195C40.1529 20.5333 40.2195 21.2 40.2195 22C40.2195 22.7667 40.1529 23.4333 40.0195 24H42.5195C42.6529 24.5333 42.7195 25.2 42.7195 26C42.7195 26.7667 42.6529 27.4333 42.5195 28H44.0195C44.1529 28.5333 44.2195 29.2 44.2195 30ZM40.0195 32C39.8862 31.4333 39.8195 30.7667 39.8195 30C39.8195 29.2 39.8862 28.5333 40.0195 28H38.5195C38.3862 27.4333 38.3195 26.7667 38.3195 26C38.3195 25.2 38.3862 24.5333 38.5195 24H33.5195C33.6529 24.5333 33.7195 25.2 33.7195 26C33.7195 26.7667 33.6529 27.4333 33.5195 28H32.0195C32.1529 28.5333 32.2195 29.2 32.2195 30C32.2195 30.7667 32.1529 31.4333 32.0195 32H33.5195C33.6529 32.5333 33.7195 33.2 33.7195 34C33.7195 34.7667 33.6529 35.4333 33.5195 36H38.5195C38.3862 35.4333 38.3195 34.7667 38.3195 34C38.3195 33.2 38.3862 32.5333 38.5195 32H40.0195ZM50.7391 22C50.7391 22.7667 50.6724 23.4333 50.5391 24H52.0391C52.1724 24.5333 52.2391 25.2 52.2391 26C52.2391 26.7667 52.1724 27.4333 52.0391 28C52.1724 28.5333 52.2391 29.2 52.2391 30C52.2391 30.7667 52.1724 31.4333 52.0391 32C52.1724 32.5333 52.2391 33.2 52.2391 34C52.2391 34.7667 52.1724 35.4333 52.0391 36C52.1724 36.5333 52.2391 37.2 52.2391 38C52.2391 38.7667 52.1724 39.4333 52.0391 40H48.0391C47.9057 39.4333 47.8391 38.7667 47.8391 38C47.8391 37.2 47.9057 36.5333 48.0391 36C47.9057 35.4333 47.8391 34.7667 47.8391 34C47.8391 33.2 47.9057 32.5333 48.0391 32C47.9057 31.4333 47.8391 30.7667 47.8391 30C47.8391 29.2 47.9057 28.5333 48.0391 28C47.9057 27.4333 47.8391 26.7667 47.8391 26C47.8391 25.2 47.9057 24.5333 48.0391 24C47.9057 23.4333 47.8391 22.7667 47.8391 22C47.8391 21.2 47.9057 20.5333 48.0391 20H50.5391C50.6724 20.5333 50.7391 21.2 50.7391 22ZM56.2391 22C56.2391 22.7667 56.1724 23.4333 56.0391 24H57.5391C57.6724 24.5333 57.7391 25.2 57.7391 26C57.7391 26.7667 57.6724 27.4333 57.5391 28C57.6724 28.5333 57.7391 29.2 57.7391 30C57.7391 30.7667 57.6724 31.4333 57.5391 32C57.6724 32.5333 57.7391 33.2 57.7391 34C57.7391 34.7667 57.6724 35.4333 57.5391 36C57.6724 36.5333 57.7391 37.2 57.7391 38C57.7391 38.7667 57.6724 39.4333 57.5391 40H54.5391C54.4057 39.4333 54.3391 38.7667 54.3391 38C54.3391 37.2 54.4057 36.5333 54.5391 36C54.4057 35.4333 54.3391 34.7667 54.3391 34C54.3391 33.2 54.4057 32.5333 54.5391 32C54.4057 31.4333 54.3391 30.7667 54.3391 30C54.3391 29.2 54.4057 28.5333 54.5391 28C54.4057 27.4333 54.3391 26.7667 54.3391 26C54.3391 25.2 54.4057 24.5333 54.5391 24H52.0391C51.9057 23.4333 51.8391 22.7667 51.8391 22C51.8391 21.2 51.9057 20.5333 52.0391 20H56.0391C56.1724 20.5333 56.2391 21.2 56.2391 22ZM64.0391 28C64.1724 28.5333 64.2391 29.2 64.2391 30C64.2391 30.7667 64.1724 31.4333 64.0391 32C64.1724 32.5333 64.2391 33.2 64.2391 34C64.2391 34.7667 64.1724 35.4333 64.0391 36C64.1724 36.5333 64.2391 37.2 64.2391 38C64.2391 38.7667 64.1724 39.4333 64.0391 40H60.0391C59.9057 39.4333 59.8391 38.7667 59.8391 38C59.8391 37.2 59.9057 36.5333 60.0391 36C59.9057 35.4333 59.8391 34.7667 59.8391 34C59.8391 33.2 59.9057 32.5333 60.0391 32C59.9057 31.4333 59.8391 30.7667 59.8391 30C59.8391 29.2 59.9057 28.5333 60.0391 28C59.9057 27.4333 59.8391 26.7667 59.8391 26C59.8391 25.2 59.9057 24.5333 60.0391 24H57.5391C57.4057 23.4333 57.3391 22.7667 57.3391 22C57.3391 21.2 57.4057 20.5333 57.5391 20H62.0391C62.1724 20.5333 62.2391 21.2 62.2391 22C62.2391 22.7667 62.1724 23.4333 62.0391 24H64.0391C64.1724 24.5333 64.2391 25.2 64.2391 26C64.2391 26.7667 64.1724 27.4333 64.0391 28ZM84.2586 26C84.2586 26.7667 84.1919 27.4333 84.0586 28C84.1919 28.5333 84.2586 29.2 84.2586 30C84.2586 30.7667 84.1919 31.4333 84.0586 32H73.5586C73.6919 32.5333 73.7586 33.2 73.7586 34C73.7586 34.7667 73.6919 35.4333 73.5586 36H82.0586C82.1919 36.5333 82.2586 37.2 82.2586 38C82.2586 38.7667 82.1919 39.4333 82.0586 40H72.0586C71.9253 39.4333 71.8586 38.7667 71.8586 38C71.8586 37.2 71.9253 36.5333 72.0586 36H69.5586C69.4253 35.4333 69.3586 34.7667 69.3586 34C69.3586 33.2 69.4253 32.5333 69.5586 32H68.0586C67.9253 31.4333 67.8586 30.7667 67.8586 30C67.8586 29.2 67.9253 28.5333 68.0586 28H69.5586C69.4253 27.4333 69.3586 26.7667 69.3586 26C69.3586 25.2 69.4253 24.5333 69.5586 24H72.0586C71.9253 23.4333 71.8586 22.7667 71.8586 22C71.8586 21.2 71.9253 20.5333 72.0586 20H82.0586C82.1919 20.5333 82.2586 21.2 82.2586 22C82.2586 22.7667 82.1919 23.4333 82.0586 24H84.0586C84.1919 24.5333 84.2586 25.2 84.2586 26ZM80.0586 28C79.9253 27.4333 79.8586 26.7667 79.8586 26C79.8586 25.2 79.9253 24.5333 80.0586 24H73.5586C73.6919 24.5333 73.7586 25.2 73.7586 26C73.7586 26.7667 73.6919 27.4333 73.5586 28H80.0586Z"
            fill="white" fill-opacity="0.6"/>
    <path
            d="M24 16L19.1329 14.8548L18.855 16.0357L19.1493 17.2127L24 16ZM24 20L19.1329 18.8548L18.8551 20.0357L19.1493 21.2127L24 20ZM24 24L19.1329 22.8548L18.855 24.0357L19.1493 25.2127L24 24ZM24 28L19.1329 26.8548L18.855 28.0357L19.1493 29.2127L24 28ZM24 32L19.1329 30.8548L18.855 32.0357L19.1493 33.2127L24 32ZM24 36L19.1329 34.8548L18.855 36.0357L19.1493 37.2127L24 36ZM24 40V45H27.9601L28.8671 41.1452L24 40ZM20 40L15.1329 41.1452L16.0399 45H20V40ZM20 36L24.8507 37.2127L25.1449 36.0357L24.8671 34.8548L20 36ZM20 32L24.8507 33.2127L25.1449 32.0357L24.8671 30.8548L20 32ZM20 28L24.8507 29.2127L26.4039 23H20V28ZM12 28V23H5.59612L7.14929 29.2127L12 28ZM12 32L7.13291 30.8548L6.85505 32.0357L7.14929 33.2127L12 32ZM12 36L7.13291 34.8548L6.85505 36.0357L7.14929 37.2127L12 36ZM12 40V45H15.9601L16.8671 41.1452L12 40ZM8 40L3.13291 41.1452L4.03993 45H8V40ZM8 36L12.8507 37.2127L13.145 36.0357L12.8671 34.8548L8 36ZM8 32L12.8507 33.2127L13.145 32.0357L12.8671 30.8548L8 32ZM8 28L12.8507 29.2127L13.145 28.0357L12.8671 26.8548L8 28ZM8 24L12.8507 25.2127L13.145 24.0357L12.8671 22.8548L8 24ZM8 20L12.8507 21.2127L13.145 20.0357L12.8671 18.8548L8 20ZM8 16L12.8507 17.2127L13.145 16.0357L12.8671 14.8548L8 16ZM8 12V7H4.09612L3.14929 10.7873L8 12ZM12 12L16.8507 10.7873L15.9039 7H12V12ZM12 16L7.13291 14.8548L6.85505 16.0357L7.14929 17.2127L12 16ZM12 20L7.13291 18.8548L6.85505 20.0357L7.14929 21.2127L12 20ZM12 24L7.13291 22.8548L5.68698 29H12V24ZM20 24V29H26.313L24.8671 22.8548L20 24ZM20 20L24.8507 21.2127L25.1449 20.0357L24.8671 18.8548L20 20ZM20 16L24.8507 17.2127L25.1449 16.0357L24.8671 14.8548L20 16ZM20 12V7H16.0961L15.1493 10.7873L20 12ZM24 12L28.8507 10.7873L27.9039 7H24V12ZM19.1493 17.2127C19.1461 17.2001 19.1606 17.2552 19.1748 17.3975C19.1888 17.5375 19.2 17.7354 19.2 18H29.2C29.2 16.9587 29.1169 15.8522 28.8507 14.7873L19.1493 17.2127ZM19.2 18C19.2 18.4949 19.1552 18.7601 19.1329 18.8548L28.8671 21.1452C29.1115 20.1066 29.2 19.0384 29.2 18H19.2ZM19.1493 21.2127C19.1461 21.2001 19.1606 21.2552 19.1748 21.3975C19.1888 21.5375 19.2 21.7354 19.2 22H29.2C29.2 20.9587 29.1169 19.8522 28.8507 18.7873L19.1493 21.2127ZM19.2 22C19.2 22.4949 19.1552 22.7601 19.1329 22.8548L28.8671 25.1452C29.1115 24.1066 29.2 23.0384 29.2 22H19.2ZM19.1493 25.2127C19.1461 25.2001 19.1606 25.2552 19.1748 25.3975C19.1888 25.5375 19.2 25.7354 19.2 26H29.2C29.2 24.9587 29.1169 23.8522 28.8507 22.7873L19.1493 25.2127ZM19.2 26C19.2 26.4949 19.1552 26.7601 19.1329 26.8548L28.8671 29.1452C29.1115 28.1066 29.2 27.0384 29.2 26H19.2ZM19.1493 29.2127C19.1461 29.2001 19.1606 29.2552 19.1748 29.3975C19.1888 29.5375 19.2 29.7354 19.2 30H29.2C29.2 28.9587 29.1169 27.8522 28.8507 26.7873L19.1493 29.2127ZM19.2 30C19.2 30.4949 19.1552 30.7601 19.1329 30.8548L28.8671 33.1452C29.1115 32.1066 29.2 31.0384 29.2 30H19.2ZM19.1493 33.2127C19.1461 33.2001 19.1606 33.2552 19.1748 33.3975C19.1888 33.5375 19.2 33.7354 19.2 34H29.2C29.2 32.9587 29.1169 31.8522 28.8507 30.7873L19.1493 33.2127ZM19.2 34C19.2 34.4949 19.1552 34.7601 19.1329 34.8548L28.8671 37.1452C29.1115 36.1066 29.2 35.0384 29.2 34H19.2ZM19.1493 37.2127C19.1461 37.2001 19.1606 37.2552 19.1748 37.3975C19.1888 37.5375 19.2 37.7354 19.2 38H29.2C29.2 36.9587 29.1169 35.8522 28.8507 34.7873L19.1493 37.2127ZM19.2 38C19.2 38.4949 19.1552 38.7601 19.1329 38.8548L28.8671 41.1452C29.1115 40.1066 29.2 39.0384 29.2 38H19.2ZM24 35H20V45H24V35ZM24.8671 38.8548C24.8448 38.7601 24.8 38.4949 24.8 38H14.8C14.8 39.0384 14.8885 40.1066 15.1329 41.1452L24.8671 38.8548ZM24.8 38C24.8 37.7354 24.8112 37.5375 24.8252 37.3975C24.8394 37.2552 24.8539 37.2 24.8507 37.2127L15.1493 34.7873C14.8831 35.8522 14.8 36.9587 14.8 38H24.8ZM24.8671 34.8548C24.8448 34.7601 24.8 34.4949 24.8 34H14.8C14.8 35.0384 14.8885 36.1066 15.1329 37.1452L24.8671 34.8548ZM24.8 34C24.8 33.7354 24.8112 33.5375 24.8252 33.3975C24.8394 33.2552 24.8539 33.2 24.8507 33.2127L15.1493 30.7873C14.8831 31.8522 14.8 32.9587 14.8 34H24.8ZM24.8671 30.8548C24.8448 30.7601 24.8 30.4949 24.8 30H14.8C14.8 31.0384 14.8885 32.1066 15.1329 33.1452L24.8671 30.8548ZM24.8 30C24.8 29.7354 24.8112 29.5375 24.8252 29.3975C24.8394 29.2552 24.8539 29.2 24.8507 29.2127L15.1493 26.7873C14.8831 27.8522 14.8 28.9587 14.8 30H24.8ZM20 23H12V33H20V23ZM7.14929 29.2127C7.14613 29.2001 7.16058 29.2552 7.17481 29.3975C7.18882 29.5375 7.2 29.7354 7.2 30H17.2C17.2 28.9587 17.1169 27.8522 16.8507 26.7873L7.14929 29.2127ZM7.2 30C7.2 30.4949 7.1552 30.7601 7.13291 30.8548L16.8671 33.1452C17.1115 32.1066 17.2 31.0384 17.2 30H7.2ZM7.14929 33.2127C7.14613 33.2001 7.16058 33.2552 7.17481 33.3975C7.18882 33.5375 7.2 33.7354 7.2 34H17.2C17.2 32.9587 17.1169 31.8522 16.8507 30.7873L7.14929 33.2127ZM7.2 34C7.2 34.4949 7.1552 34.7601 7.13291 34.8548L16.8671 37.1452C17.1115 36.1066 17.2 35.0384 17.2 34H7.2ZM7.14929 37.2127C7.14613 37.2001 7.16058 37.2552 7.17481 37.3975C7.18882 37.5375 7.2 37.7354 7.2 38H17.2C17.2 36.9587 17.1169 35.8522 16.8507 34.7873L7.14929 37.2127ZM7.2 38C7.2 38.4949 7.1552 38.7601 7.13291 38.8548L16.8671 41.1452C17.1115 40.1066 17.2 39.0384 17.2 38H7.2ZM12 35H8V45H12V35ZM12.8671 38.8548C12.8448 38.7601 12.8 38.4949 12.8 38H2.8C2.8 39.0384 2.88853 40.1066 3.13291 41.1452L12.8671 38.8548ZM12.8 38C12.8 37.7354 12.8112 37.5375 12.8252 37.3975C12.8394 37.2552 12.8539 37.2001 12.8507 37.2127L3.14929 34.7873C2.88308 35.8522 2.8 36.9587 2.8 38H12.8ZM12.8671 34.8548C12.8448 34.7601 12.8 34.4949 12.8 34H2.8C2.8 35.0384 2.88853 36.1066 3.13291 37.1452L12.8671 34.8548ZM12.8 34C12.8 33.7354 12.8112 33.5375 12.8252 33.3975C12.8394 33.2552 12.8539 33.2001 12.8507 33.2127L3.14929 30.7873C2.88308 31.8522 2.8 32.9587 2.8 34H12.8ZM12.8671 30.8548C12.8448 30.7601 12.8 30.4949 12.8 30H2.8C2.8 31.0384 2.88853 32.1066 3.13291 33.1452L12.8671 30.8548ZM12.8 30C12.8 29.7354 12.8112 29.5375 12.8252 29.3975C12.8394 29.2552 12.8539 29.2001 12.8507 29.2127L3.14929 26.7873C2.88308 27.8522 2.8 28.9587 2.8 30H12.8ZM12.8671 26.8548C12.8448 26.7601 12.8 26.4949 12.8 26H2.8C2.8 27.0384 2.88853 28.1066 3.13291 29.1452L12.8671 26.8548ZM12.8 26C12.8 25.7354 12.8112 25.5375 12.8252 25.3975C12.8394 25.2552 12.8539 25.2001 12.8507 25.2127L3.14929 22.7873C2.88308 23.8522 2.8 24.9587 2.8 26H12.8ZM12.8671 22.8548C12.8448 22.7601 12.8 22.4949 12.8 22H2.8C2.8 23.0384 2.88853 24.1066 3.13291 25.1452L12.8671 22.8548ZM12.8 22C12.8 21.7354 12.8112 21.5375 12.8252 21.3975C12.8394 21.2552 12.8539 21.2001 12.8507 21.2127L3.14929 18.7873C2.88308 19.8522 2.8 20.9587 2.8 22H12.8ZM12.8671 18.8548C12.8448 18.7601 12.8 18.4949 12.8 18H2.8C2.8 19.0384 2.88853 20.1066 3.13291 21.1452L12.8671 18.8548ZM12.8 18C12.8 17.7354 12.8112 17.5375 12.8252 17.3975C12.8394 17.2552 12.8539 17.2001 12.8507 17.2127L3.14929 14.7873C2.88308 15.8522 2.8 16.9587 2.8 18H12.8ZM12.8671 14.8548C12.8448 14.7601 12.8 14.4949 12.8 14H2.8C2.8 15.0384 2.88853 16.1066 3.13291 17.1452L12.8671 14.8548ZM12.8 14C12.8 13.7354 12.8112 13.5375 12.8252 13.3975C12.8394 13.2552 12.8539 13.2001 12.8507 13.2127L3.14929 10.7873C2.88308 11.8522 2.8 12.9587 2.8 14H12.8ZM8 17H12V7H8V17ZM7.14929 13.2127C7.14613 13.2001 7.16058 13.2552 7.17481 13.3975C7.18882 13.5375 7.2 13.7354 7.2 14H17.2C17.2 12.9587 17.1169 11.8522 16.8507 10.7873L7.14929 13.2127ZM7.2 14C7.2 14.4949 7.1552 14.7601 7.13291 14.8548L16.8671 17.1452C17.1115 16.1066 17.2 15.0384 17.2 14H7.2ZM7.14929 17.2127C7.14613 17.2001 7.16058 17.2552 7.17481 17.3975C7.18882 17.5375 7.2 17.7354 7.2 18H17.2C17.2 16.9587 17.1169 15.8522 16.8507 14.7873L7.14929 17.2127ZM7.2 18C7.2 18.4949 7.1552 18.7601 7.13291 18.8548L16.8671 21.1452C17.1115 20.1066 17.2 19.0384 17.2 18H7.2ZM7.14929 21.2127C7.14613 21.2001 7.16058 21.2552 7.17481 21.3975C7.18882 21.5375 7.2 21.7354 7.2 22H17.2C17.2 20.9587 17.1169 19.8522 16.8507 18.7873L7.14929 21.2127ZM7.2 22C7.2 22.4949 7.1552 22.7601 7.13291 22.8548L16.8671 25.1452C17.1115 24.1066 17.2 23.0384 17.2 22H7.2ZM12 29H20V19H12V29ZM24.8671 22.8548C24.8448 22.7601 24.8 22.4949 24.8 22H14.8C14.8 23.0384 14.8885 24.1066 15.1329 25.1452L24.8671 22.8548ZM24.8 22C24.8 21.7354 24.8112 21.5375 24.8252 21.3975C24.8394 21.2552 24.8539 21.2 24.8507 21.2127L15.1493 18.7873C14.8831 19.8522 14.8 20.9587 14.8 22H24.8ZM24.8671 18.8548C24.8448 18.7601 24.8 18.4949 24.8 18H14.8C14.8 19.0384 14.8885 20.1066 15.1329 21.1452L24.8671 18.8548ZM24.8 18C24.8 17.7354 24.8112 17.5375 24.8252 17.3975C24.8394 17.2552 24.8539 17.2 24.8507 17.2127L15.1493 14.7873C14.8831 15.8522 14.8 16.9587 14.8 18H24.8ZM24.8671 14.8548C24.8448 14.7601 24.8 14.4949 24.8 14H14.8C14.8 15.0384 14.8885 16.1066 15.1329 17.1452L24.8671 14.8548ZM24.8 14C24.8 13.7354 24.8112 13.5375 24.8252 13.3975C24.8394 13.2552 24.8539 13.2001 24.8507 13.2127L15.1493 10.7873C14.8831 11.8522 14.8 12.9587 14.8 14H24.8ZM20 17H24V7H20V17ZM19.1493 13.2127C19.1461 13.2001 19.1606 13.2552 19.1748 13.3975C19.1888 13.5375 19.2 13.7354 19.2 14H29.2C29.2 12.9587 29.1169 11.8522 28.8507 10.7873L19.1493 13.2127ZM19.2 14C19.2 14.4949 19.1552 14.7601 19.1329 14.8548L28.8671 17.1452C29.1115 16.1066 29.2 15.0384 29.2 14H19.2ZM44.0195 32V37H47.9796L48.8866 33.1452L44.0195 32ZM42.5195 32V27H36.1156L37.6688 33.2127L42.5195 32ZM42.5195 36V41H46.4796L47.3866 37.1452L42.5195 36ZM40.0195 36V31H33.6156L35.1688 37.2127L40.0195 36ZM40.0195 40V45H43.9796L44.8866 41.1452L40.0195 40ZM32.0195 40L27.1524 41.1452L28.0595 45H32.0195V40ZM32.0195 36L36.8702 37.2127L38.4234 31H32.0195V36ZM29.5195 36L24.6524 37.1452L25.5595 41H29.5195V36ZM29.5195 32L34.3702 33.2127L35.9234 27H29.5195V32ZM28.0195 32L23.1524 33.1452L24.0595 37H28.0195V32ZM28.0195 28V23H24.1156L23.1688 26.7873L28.0195 28ZM29.5195 28V33H35.8325L34.3866 26.8548L29.5195 28ZM29.5195 24V19H25.6156L24.6688 22.7873L29.5195 24ZM32.0195 24V29H38.3325L36.8866 22.8548L32.0195 24ZM32.0195 20V15H28.1156L27.1688 18.7873L32.0195 20ZM40.0195 20L44.8702 18.7873L43.9234 15H40.0195V20ZM40.0195 24L35.1524 22.8548L33.7065 29H40.0195V24ZM42.5195 24L47.3702 22.7873L46.4234 19H42.5195V24ZM42.5195 28L37.6524 26.8548L36.2065 33H42.5195V28ZM44.0195 28L48.8702 26.7873L47.9234 23H44.0195V28ZM40.0195 32V37H46.3325L44.8866 30.8548L40.0195 32ZM40.0195 28L44.8702 29.2127L46.4234 23H40.0195V28ZM38.5195 28L33.6524 29.1452L34.5595 33H38.5195V28ZM38.5195 24L43.3702 25.2127L44.9234 19H38.5195V24ZM33.5195 24V19H27.1156L28.6688 25.2127L33.5195 24ZM33.5195 28V33H37.4796L38.3866 29.1452L33.5195 28ZM32.0195 28V23H25.6156L27.1688 29.2127L32.0195 28ZM32.0195 32L27.1524 30.8548L25.7065 37H32.0195V32ZM33.5195 32L38.3702 30.7873L37.4234 27H33.5195V32ZM33.5195 36L28.6524 34.8548L27.2065 41H33.5195V36ZM38.5195 36V41H44.8325L43.3866 34.8548L38.5195 36ZM38.5195 32V27H34.6156L33.6688 30.7873L38.5195 32ZM39.2195 30C39.2195 30.4949 39.1747 30.7601 39.1524 30.8548L48.8866 33.1452C49.131 32.1066 49.2195 31.0384 49.2195 30H39.2195ZM44.0195 27H42.5195V37H44.0195V27ZM37.6688 33.2127C37.6657 33.2001 37.6801 33.2552 37.6943 33.3975C37.7083 33.5375 37.7195 33.7354 37.7195 34H47.7195C47.7195 32.9587 47.6365 31.8522 47.3702 30.7873L37.6688 33.2127ZM37.7195 34C37.7195 34.4949 37.6747 34.7601 37.6524 34.8548L47.3866 37.1452C47.631 36.1066 47.7195 35.0384 47.7195 34H37.7195ZM42.5195 31H40.0195V41H42.5195V31ZM35.1688 37.2127C35.1657 37.2001 35.1801 37.2552 35.1943 37.3975C35.2083 37.5375 35.2195 37.7354 35.2195 38H45.2195C45.2195 36.9587 45.1365 35.8522 44.8702 34.7873L35.1688 37.2127ZM35.2195 38C35.2195 38.4949 35.1747 38.7601 35.1524 38.8548L44.8866 41.1452C45.131 40.1066 45.2195 39.0384 45.2195 38H35.2195ZM40.0195 35H32.0195V45H40.0195V35ZM36.8866 38.8548C36.8643 38.7601 36.8195 38.4949 36.8195 38H26.8195C26.8195 39.0384 26.9081 40.1066 27.1524 41.1452L36.8866 38.8548ZM36.8195 38C36.8195 37.7354 36.8307 37.5375 36.8447 37.3975C36.8589 37.2552 36.8734 37.2001 36.8702 37.2127L27.1688 34.7873C26.9026 35.8522 26.8195 36.9587 26.8195 38H36.8195ZM32.0195 31H29.5195V41H32.0195V31ZM34.3866 34.8548C34.3643 34.7601 34.3195 34.4949 34.3195 34H24.3195C24.3195 35.0384 24.4081 36.1066 24.6524 37.1452L34.3866 34.8548ZM34.3195 34C34.3195 33.7354 34.3307 33.5375 34.3447 33.3975C34.3589 33.2552 34.3734 33.2001 34.3702 33.2127L24.6688 30.7873C24.4026 31.8522 24.3195 32.9587 24.3195 34H34.3195ZM29.5195 27H28.0195V37H29.5195V27ZM32.8866 30.8548C32.8643 30.7601 32.8195 30.4949 32.8195 30H22.8195C22.8195 31.0384 22.9081 32.1066 23.1524 33.1452L32.8866 30.8548ZM32.8195 30C32.8195 29.7354 32.8307 29.5375 32.8447 29.3975C32.8589 29.2552 32.8734 29.2001 32.8702 29.2127L23.1688 26.7873C22.9026 27.8522 22.8195 28.9587 22.8195 30H32.8195ZM28.0195 33H29.5195V23H28.0195V33ZM34.3866 26.8548C34.3643 26.7601 34.3195 26.4949 34.3195 26H24.3195C24.3195 27.0384 24.4081 28.1066 24.6524 29.1452L34.3866 26.8548ZM34.3195 26C34.3195 25.7354 34.3307 25.5375 34.3447 25.3975C34.3589 25.2552 34.3734 25.2001 34.3702 25.2127L24.6688 22.7873C24.4026 23.8522 24.3195 24.9587 24.3195 26H34.3195ZM29.5195 29H32.0195V19H29.5195V29ZM36.8866 22.8548C36.8643 22.7601 36.8195 22.4949 36.8195 22H26.8195C26.8195 23.0384 26.9081 24.1066 27.1524 25.1452L36.8866 22.8548ZM36.8195 22C36.8195 21.7354 36.8307 21.5375 36.8447 21.3975C36.8589 21.2552 36.8734 21.2001 36.8702 21.2127L27.1688 18.7873C26.9026 19.8522 26.8195 20.9587 26.8195 22H36.8195ZM32.0195 25H40.0195V15H32.0195V25ZM35.1688 21.2127C35.1657 21.2001 35.1801 21.2552 35.1943 21.3975C35.2083 21.5375 35.2195 21.7354 35.2195 22H45.2195C45.2195 20.9587 45.1365 19.8522 44.8702 18.7873L35.1688 21.2127ZM35.2195 22C35.2195 22.4949 35.1747 22.7601 35.1524 22.8548L44.8866 25.1452C45.131 24.1066 45.2195 23.0384 45.2195 22H35.2195ZM40.0195 29H42.5195V19H40.0195V29ZM37.6688 25.2127C37.6657 25.2001 37.6801 25.2552 37.6943 25.3975C37.7083 25.5375 37.7195 25.7354 37.7195 26H47.7195C47.7195 24.9587 47.6365 23.8522 47.3702 22.7873L37.6688 25.2127ZM37.7195 26C37.7195 26.4949 37.6747 26.7601 37.6524 26.8548L47.3866 29.1452C47.631 28.1066 47.7195 27.0384 47.7195 26H37.7195ZM42.5195 33H44.0195V23H42.5195V33ZM39.1688 29.2127C39.1657 29.2001 39.1801 29.2552 39.1943 29.3975C39.2083 29.5375 39.2195 29.7354 39.2195 30H49.2195C49.2195 28.9587 49.1365 27.8522 48.8702 26.7873L39.1688 29.2127ZM44.8866 30.8548C44.8643 30.7601 44.8195 30.4949 44.8195 30H34.8195C34.8195 31.0384 34.9081 32.1066 35.1524 33.1452L44.8866 30.8548ZM44.8195 30C44.8195 29.7354 44.8307 29.5375 44.8447 29.3975C44.859 29.2552 44.8734 29.2 44.8702 29.2127L35.1688 26.7873C34.9026 27.8522 34.8195 28.9587 34.8195 30H44.8195ZM40.0195 23H38.5195V33H40.0195V23ZM43.3866 26.8548C43.3643 26.7601 43.3195 26.4949 43.3195 26H33.3195C33.3195 27.0384 33.4081 28.1066 33.6524 29.1452L43.3866 26.8548ZM43.3195 26C43.3195 25.7354 43.3307 25.5375 43.3447 25.3975C43.3589 25.2552 43.3734 25.2001 43.3702 25.2127L33.6688 22.7873C33.4026 23.8522 33.3195 24.9587 33.3195 26H43.3195ZM38.5195 19H33.5195V29H38.5195V19ZM28.6688 25.2127C28.6657 25.2001 28.6801 25.2552 28.6943 25.3975C28.7083 25.5375 28.7195 25.7354 28.7195 26H38.7195C38.7195 24.9587 38.6365 23.8522 38.3702 22.7873L28.6688 25.2127ZM28.7195 26C28.7195 26.4949 28.6747 26.7601 28.6524 26.8548L38.3866 29.1452C38.631 28.1066 38.7195 27.0384 38.7195 26H28.7195ZM33.5195 23H32.0195V33H33.5195V23ZM27.1688 29.2127C27.1657 29.2001 27.1801 29.2552 27.1943 29.3975C27.2083 29.5375 27.2195 29.7354 27.2195 30H37.2195C37.2195 28.9587 37.1365 27.8522 36.8702 26.7873L27.1688 29.2127ZM27.2195 30C27.2195 30.4949 27.1747 30.7601 27.1524 30.8548L36.8866 33.1452C37.131 32.1066 37.2195 31.0384 37.2195 30H27.2195ZM32.0195 37H33.5195V27H32.0195V37ZM28.6688 33.2127C28.6657 33.2001 28.6801 33.2552 28.6943 33.3975C28.7083 33.5375 28.7195 33.7354 28.7195 34H38.7195C38.7195 32.9587 38.6365 31.8522 38.3702 30.7873L28.6688 33.2127ZM28.7195 34C28.7195 34.4949 28.6747 34.7601 28.6524 34.8548L38.3866 37.1452C38.631 36.1066 38.7195 35.0384 38.7195 34H28.7195ZM33.5195 41H38.5195V31H33.5195V41ZM43.3866 34.8548C43.3643 34.7601 43.3195 34.4949 43.3195 34H33.3195C33.3195 35.0384 33.4081 36.1066 33.6524 37.1452L43.3866 34.8548ZM43.3195 34C43.3195 33.7354 43.3307 33.5375 43.3447 33.3975C43.3589 33.2552 43.3734 33.2001 43.3702 33.2127L33.6688 30.7873C33.4026 31.8522 33.3195 32.9587 33.3195 34H43.3195ZM38.5195 37H40.0195V27H38.5195V37ZM50.5391 24L45.672 22.8548L44.226 29H50.5391V24ZM52.0391 24L56.8898 22.7873L55.9429 19H52.0391V24ZM52.0391 28L47.172 26.8548L46.8941 28.0357L47.1884 29.2127L52.0391 28ZM52.0391 32L47.172 30.8548L46.8941 32.0357L47.1884 33.2127L52.0391 32ZM52.0391 36L47.172 34.8548L46.8941 36.0357L47.1884 37.2127L52.0391 36ZM52.0391 40V45H55.9991L56.9061 41.1452L52.0391 40ZM48.0391 40L43.172 41.1452L44.079 45H48.0391V40ZM48.0391 36L52.8898 37.2127L53.184 36.0357L52.9061 34.8548L48.0391 36ZM48.0391 32L52.8898 33.2127L53.184 32.0357L52.9061 30.8548L48.0391 32ZM48.0391 28L52.8898 29.2127L53.184 28.0357L52.9061 26.8548L48.0391 28ZM48.0391 24L52.8898 25.2127L53.184 24.0357L52.9061 22.8548L48.0391 24ZM48.0391 20V15H44.1352L43.1884 18.7873L48.0391 20ZM50.5391 20L55.3898 18.7873L54.4429 15H50.5391V20ZM56.0391 24L51.172 22.8548L49.726 29H56.0391V24ZM57.5391 24L62.3898 22.7873L61.4429 19H57.5391V24ZM57.5391 28L52.672 26.8548L52.3941 28.0357L52.6884 29.2127L57.5391 28ZM57.5391 32L52.672 30.8548L52.3941 32.0357L52.6884 33.2127L57.5391 32ZM57.5391 36L52.672 34.8548L52.3941 36.0357L52.6884 37.2127L57.5391 36ZM57.5391 40V45H61.4991L62.4061 41.1452L57.5391 40ZM54.5391 40L49.672 41.1452L50.579 45H54.5391V40ZM54.5391 36L59.3898 37.2127L59.684 36.0357L59.4061 34.8548L54.5391 36ZM54.5391 32L59.3898 33.2127L59.684 32.0357L59.4061 30.8548L54.5391 32ZM54.5391 28L59.3898 29.2127L59.684 28.0357L59.4061 26.8548L54.5391 28ZM54.5391 24L59.3898 25.2127L60.9429 19H54.5391V24ZM52.0391 24L47.172 25.1452L48.079 29H52.0391V24ZM52.0391 20V15H48.1352L47.1884 18.7873L52.0391 20ZM56.0391 20L60.8898 18.7873L59.9429 15H56.0391V20ZM64.0391 28L59.172 26.8548L58.8941 28.0357L59.1884 29.2127L64.0391 28ZM64.0391 32L59.172 30.8548L58.8941 32.0357L59.1884 33.2127L64.0391 32ZM64.0391 36L59.172 34.8548L58.8941 36.0357L59.1884 37.2127L64.0391 36ZM64.0391 40V45H67.9991L68.9061 41.1452L64.0391 40ZM60.0391 40L55.172 41.1452L56.079 45H60.0391V40ZM60.0391 36L64.8898 37.2127L65.184 36.0357L64.9061 34.8548L60.0391 36ZM60.0391 32L64.8898 33.2127L65.184 32.0357L64.9061 30.8548L60.0391 32ZM60.0391 28L64.8898 29.2127L65.184 28.0357L64.9061 26.8548L60.0391 28ZM60.0391 24L64.8898 25.2127L66.4429 19H60.0391V24ZM57.5391 24L52.672 25.1452L53.579 29H57.5391V24ZM57.5391 20V15H53.6352L52.6883 18.7873L57.5391 20ZM62.0391 20L66.8898 18.7873L65.943 15H62.0391V20ZM62.0391 24L57.172 22.8548L55.7261 29H62.0391V24ZM64.0391 24L68.8898 22.7873L67.9429 19H64.0391V24ZM45.7391 22C45.7391 22.4949 45.6943 22.7601 45.672 22.8548L55.4061 25.1452C55.6505 24.1066 55.7391 23.0384 55.7391 22H45.7391ZM50.5391 29H52.0391V19H50.5391V29ZM47.1884 25.2127C47.1852 25.2001 47.1996 25.2552 47.2139 25.3975C47.2279 25.5375 47.2391 25.7354 47.2391 26H57.2391C57.2391 24.9587 57.156 23.8522 56.8898 22.7873L47.1884 25.2127ZM47.2391 26C47.2391 26.4949 47.1943 26.7601 47.172 26.8548L56.9061 29.1452C57.1505 28.1066 57.2391 27.0384 57.2391 26H47.2391ZM47.1884 29.2127C47.1852 29.2001 47.1996 29.2552 47.2139 29.3975C47.2279 29.5375 47.2391 29.7354 47.2391 30H57.2391C57.2391 28.9587 57.156 27.8522 56.8898 26.7873L47.1884 29.2127ZM47.2391 30C47.2391 30.4949 47.1943 30.7601 47.172 30.8548L56.9061 33.1452C57.1505 32.1066 57.2391 31.0384 57.2391 30H47.2391ZM47.1884 33.2127C47.1852 33.2001 47.1996 33.2552 47.2139 33.3975C47.2279 33.5375 47.2391 33.7354 47.2391 34H57.2391C57.2391 32.9587 57.156 31.8522 56.8898 30.7873L47.1884 33.2127ZM47.2391 34C47.2391 34.4949 47.1943 34.7601 47.172 34.8548L56.9061 37.1452C57.1505 36.1066 57.2391 35.0384 57.2391 34H47.2391ZM47.1884 37.2127C47.1852 37.2001 47.1996 37.2552 47.2139 37.3975C47.2279 37.5375 47.2391 37.7354 47.2391 38H57.2391C57.2391 36.9587 57.156 35.8522 56.8898 34.7873L47.1884 37.2127ZM47.2391 38C47.2391 38.4949 47.1943 38.7601 47.172 38.8548L56.9061 41.1452C57.1505 40.1066 57.2391 39.0384 57.2391 38H47.2391ZM52.0391 35H48.0391V45H52.0391V35ZM52.9061 38.8548C52.8839 38.7601 52.8391 38.4949 52.8391 38H42.8391C42.8391 39.0384 42.9276 40.1066 43.172 41.1452L52.9061 38.8548ZM52.8391 38C52.8391 37.7354 52.8502 37.5375 52.8642 37.3975C52.8785 37.2552 52.8929 37.2001 52.8898 37.2127L43.1884 34.7873C42.9221 35.8522 42.8391 36.9587 42.8391 38H52.8391ZM52.9061 34.8548C52.8839 34.7601 52.8391 34.4949 52.8391 34H42.8391C42.8391 35.0384 42.9276 36.1066 43.172 37.1452L52.9061 34.8548ZM52.8391 34C52.8391 33.7354 52.8502 33.5375 52.8642 33.3975C52.8785 33.2552 52.8929 33.2001 52.8898 33.2127L43.1884 30.7873C42.9221 31.8522 42.8391 32.9587 42.8391 34H52.8391ZM52.9061 30.8548C52.8839 30.7601 52.8391 30.4949 52.8391 30H42.8391C42.8391 31.0384 42.9276 32.1066 43.172 33.1452L52.9061 30.8548ZM52.8391 30C52.8391 29.7354 52.8502 29.5375 52.8642 29.3975C52.8785 29.2552 52.8929 29.2001 52.8898 29.2127L43.1884 26.7873C42.9221 27.8522 42.8391 28.9587 42.8391 30H52.8391ZM52.9061 26.8548C52.8839 26.7601 52.8391 26.4949 52.8391 26H42.8391C42.8391 27.0384 42.9276 28.1066 43.172 29.1452L52.9061 26.8548ZM52.8391 26C52.8391 25.7354 52.8502 25.5375 52.8642 25.3975C52.8785 25.2552 52.8929 25.2001 52.8898 25.2127L43.1884 22.7873C42.9221 23.8522 42.8391 24.9587 42.8391 26H52.8391ZM52.9061 22.8548C52.8839 22.7601 52.8391 22.4949 52.8391 22H42.8391C42.8391 23.0384 42.9276 24.1066 43.172 25.1452L52.9061 22.8548ZM52.8391 22C52.8391 21.7354 52.8502 21.5375 52.8642 21.3975C52.8785 21.2552 52.8929 21.2001 52.8898 21.2127L43.1884 18.7873C42.9221 19.8522 42.8391 20.9587 42.8391 22H52.8391ZM48.0391 25H50.5391V15H48.0391V25ZM45.6884 21.2127C45.6852 21.2001 45.6996 21.2552 45.7139 21.3975C45.7279 21.5375 45.7391 21.7354 45.7391 22H55.7391C55.7391 20.9587 55.656 19.8522 55.3898 18.7873L45.6884 21.2127ZM51.2391 22C51.2391 22.4949 51.1943 22.7601 51.172 22.8548L60.9061 25.1452C61.1505 24.1066 61.2391 23.0384 61.2391 22H51.2391ZM56.0391 29H57.5391V19H56.0391V29ZM52.6884 25.2127C52.6852 25.2001 52.6996 25.2552 52.7139 25.3975C52.7279 25.5375 52.7391 25.7354 52.7391 26H62.7391C62.7391 24.9587 62.656 23.8522 62.3898 22.7873L52.6884 25.2127ZM52.7391 26C52.7391 26.4949 52.6943 26.7601 52.672 26.8548L62.4061 29.1452C62.6505 28.1066 62.7391 27.0384 62.7391 26H52.7391ZM52.6884 29.2127C52.6852 29.2001 52.6996 29.2552 52.7139 29.3975C52.7279 29.5375 52.7391 29.7354 52.7391 30H62.7391C62.7391 28.9587 62.656 27.8522 62.3898 26.7873L52.6884 29.2127ZM52.7391 30C52.7391 30.4949 52.6943 30.7601 52.672 30.8548L62.4061 33.1452C62.6505 32.1066 62.7391 31.0384 62.7391 30H52.7391ZM52.6884 33.2127C52.6852 33.2001 52.6996 33.2552 52.7139 33.3975C52.7279 33.5375 52.7391 33.7354 52.7391 34H62.7391C62.7391 32.9587 62.656 31.8522 62.3898 30.7873L52.6884 33.2127ZM52.7391 34C52.7391 34.4949 52.6943 34.7601 52.672 34.8548L62.4061 37.1452C62.6505 36.1066 62.7391 35.0384 62.7391 34H52.7391ZM52.6884 37.2127C52.6852 37.2001 52.6996 37.2552 52.7139 37.3975C52.7279 37.5375 52.7391 37.7354 52.7391 38H62.7391C62.7391 36.9587 62.656 35.8522 62.3898 34.7873L52.6884 37.2127ZM52.7391 38C52.7391 38.4949 52.6943 38.7601 52.672 38.8548L62.4061 41.1452C62.6505 40.1066 62.7391 39.0384 62.7391 38H52.7391ZM57.5391 35H54.5391V45H57.5391V35ZM59.4061 38.8548C59.3839 38.7601 59.3391 38.4949 59.3391 38H49.3391C49.3391 39.0384 49.4276 40.1066 49.672 41.1452L59.4061 38.8548ZM59.3391 38C59.3391 37.7354 59.3502 37.5375 59.3642 37.3975C59.3785 37.2552 59.3929 37.2001 59.3898 37.2127L49.6883 34.7873C49.4221 35.8522 49.3391 36.9587 49.3391 38H59.3391ZM59.4061 34.8548C59.3839 34.7601 59.3391 34.4949 59.3391 34H49.3391C49.3391 35.0384 49.4276 36.1066 49.672 37.1452L59.4061 34.8548ZM59.3391 34C59.3391 33.7354 59.3502 33.5375 59.3642 33.3975C59.3785 33.2552 59.3929 33.2001 59.3898 33.2127L49.6883 30.7873C49.4221 31.8522 49.3391 32.9587 49.3391 34H59.3391ZM59.4061 30.8548C59.3839 30.7601 59.3391 30.4949 59.3391 30H49.3391C49.3391 31.0384 49.4276 32.1066 49.672 33.1452L59.4061 30.8548ZM59.3391 30C59.3391 29.7354 59.3502 29.5375 59.3642 29.3975C59.3785 29.2552 59.3929 29.2001 59.3898 29.2127L49.6883 26.7873C49.4221 27.8522 49.3391 28.9587 49.3391 30H59.3391ZM59.4061 26.8548C59.3839 26.7601 59.3391 26.4949 59.3391 26H49.3391C49.3391 27.0384 49.4276 28.1066 49.672 29.1452L59.4061 26.8548ZM59.3391 26C59.3391 25.7354 59.3502 25.5375 59.3642 25.3975C59.3785 25.2552 59.3929 25.2001 59.3898 25.2127L49.6883 22.7873C49.4221 23.8522 49.3391 24.9587 49.3391 26H59.3391ZM54.5391 19H52.0391V29H54.5391V19ZM56.9061 22.8548C56.8839 22.7601 56.8391 22.4949 56.8391 22H46.8391C46.8391 23.0384 46.9276 24.1066 47.172 25.1452L56.9061 22.8548ZM56.8391 22C56.8391 21.7354 56.8502 21.5375 56.8642 21.3975C56.8785 21.2552 56.8929 21.2001 56.8898 21.2127L47.1884 18.7873C46.9221 19.8522 46.8391 20.9587 46.8391 22H56.8391ZM52.0391 25H56.0391V15H52.0391V25ZM51.1884 21.2127C51.1852 21.2001 51.1996 21.2552 51.2139 21.3975C51.2279 21.5375 51.2391 21.7354 51.2391 22H61.2391C61.2391 20.9587 61.156 19.8522 60.8898 18.7873L51.1884 21.2127ZM59.1884 29.2127C59.1852 29.2001 59.1996 29.2552 59.2139 29.3975C59.2279 29.5375 59.2391 29.7354 59.2391 30H69.2391C69.2391 28.9587 69.156 27.8522 68.8898 26.7873L59.1884 29.2127ZM59.2391 30C59.2391 30.4949 59.1943 30.7601 59.172 30.8548L68.9061 33.1452C69.1505 32.1066 69.2391 31.0384 69.2391 30H59.2391ZM59.1884 33.2127C59.1852 33.2001 59.1996 33.2552 59.2139 33.3975C59.2279 33.5375 59.2391 33.7354 59.2391 34H69.2391C69.2391 32.9587 69.156 31.8522 68.8898 30.7873L59.1884 33.2127ZM59.2391 34C59.2391 34.4949 59.1943 34.7601 59.172 34.8548L68.9061 37.1452C69.1505 36.1066 69.2391 35.0384 69.2391 34H59.2391ZM59.1884 37.2127C59.1852 37.2001 59.1996 37.2552 59.2139 37.3975C59.2279 37.5375 59.2391 37.7354 59.2391 38H69.2391C69.2391 36.9587 69.156 35.8522 68.8898 34.7873L59.1884 37.2127ZM59.2391 38C59.2391 38.4949 59.1943 38.7601 59.172 38.8548L68.9061 41.1452C69.1505 40.1066 69.2391 39.0384 69.2391 38H59.2391ZM64.0391 35H60.0391V45H64.0391V35ZM64.9061 38.8548C64.8839 38.7601 64.8391 38.4949 64.8391 38H54.8391C54.8391 39.0384 54.9276 40.1066 55.172 41.1452L64.9061 38.8548ZM64.8391 38C64.8391 37.7354 64.8502 37.5375 64.8642 37.3975C64.8785 37.2552 64.8929 37.2 64.8898 37.2127L55.1883 34.7873C54.9221 35.8522 54.8391 36.9587 54.8391 38H64.8391ZM64.9061 34.8548C64.8839 34.7601 64.8391 34.4949 64.8391 34H54.8391C54.8391 35.0384 54.9276 36.1066 55.172 37.1452L64.9061 34.8548ZM64.8391 34C64.8391 33.7354 64.8502 33.5375 64.8642 33.3975C64.8785 33.2552 64.8929 33.2 64.8898 33.2127L55.1883 30.7873C54.9221 31.8522 54.8391 32.9587 54.8391 34H64.8391ZM64.9061 30.8548C64.8839 30.7601 64.8391 30.4949 64.8391 30H54.8391C54.8391 31.0384 54.9276 32.1066 55.172 33.1452L64.9061 30.8548ZM64.8391 30C64.8391 29.7354 64.8502 29.5375 64.8642 29.3975C64.8785 29.2552 64.8929 29.2 64.8898 29.2127L55.1883 26.7873C54.9221 27.8522 54.8391 28.9587 54.8391 30H64.8391ZM64.9061 26.8548C64.8839 26.7601 64.8391 26.4949 64.8391 26H54.8391C54.8391 27.0384 54.9276 28.1066 55.172 29.1452L64.9061 26.8548ZM64.8391 26C64.8391 25.7354 64.8502 25.5375 64.8642 25.3975C64.8785 25.2552 64.8929 25.2 64.8898 25.2127L55.1883 22.7873C54.9221 23.8522 54.8391 24.9587 54.8391 26H64.8391ZM60.0391 19H57.5391V29H60.0391V19ZM62.4061 22.8548C62.3839 22.7601 62.3391 22.4949 62.3391 22H52.3391C52.3391 23.0384 52.4276 24.1066 52.672 25.1452L62.4061 22.8548ZM62.3391 22C62.3391 21.7354 62.3502 21.5375 62.3642 21.3975C62.3785 21.2552 62.3929 21.2001 62.3898 21.2127L52.6883 18.7873C52.4221 19.8522 52.3391 20.9587 52.3391 22H62.3391ZM57.5391 25H62.0391V15H57.5391V25ZM57.1883 21.2127C57.1852 21.2 57.1996 21.2552 57.2139 21.3975C57.2279 21.5375 57.2391 21.7354 57.2391 22H67.2391C67.2391 20.9587 67.156 19.8522 66.8898 18.7873L57.1883 21.2127ZM57.2391 22C57.2391 22.4949 57.1943 22.7601 57.172 22.8548L66.9062 25.1452C67.1505 24.1066 67.2391 23.0384 67.2391 22H57.2391ZM62.0391 29H64.0391V19H62.0391V29ZM59.1884 25.2127C59.1852 25.2001 59.1996 25.2552 59.2139 25.3975C59.2279 25.5375 59.2391 25.7354 59.2391 26H69.2391C69.2391 24.9587 69.156 23.8522 68.8898 22.7873L59.1884 25.2127ZM59.2391 26C59.2391 26.4949 59.1943 26.7601 59.172 26.8548L68.9061 29.1452C69.1505 28.1066 69.2391 27.0384 69.2391 26H59.2391ZM84.0586 28L79.1915 26.8548L78.9136 28.0357L79.2079 29.2127L84.0586 28ZM84.0586 32V37H88.0187L88.9257 33.1452L84.0586 32ZM73.5586 32V27H67.1547L68.7079 33.2127L73.5586 32ZM73.5586 36L68.6915 34.8548L67.2456 41H73.5586V36ZM82.0586 36L86.9093 34.7873L85.9625 31H82.0586V36ZM82.0586 40V45H86.0187L86.9257 41.1452L82.0586 40ZM72.0586 40L67.1915 41.1452L68.0985 45H72.0586V40ZM72.0586 36L76.9093 37.2127L78.4625 31H72.0586V36ZM69.5586 36L64.6915 37.1452L65.5985 41H69.5586V36ZM69.5586 32L74.4093 33.2127L75.9625 27H69.5586V32ZM68.0586 32L63.1915 33.1452L64.0985 37H68.0586V32ZM68.0586 28V23H64.1547L63.2079 26.7873L68.0586 28ZM69.5586 28V33H75.8716L74.4257 26.8548L69.5586 28ZM69.5586 24V19H65.6547L64.7079 22.7873L69.5586 24ZM72.0586 24V29H78.3716L76.9257 22.8548L72.0586 24ZM72.0586 20V15H68.1547L67.2079 18.7873L72.0586 20ZM82.0586 20L86.9093 18.7873L85.9625 15H82.0586V20ZM82.0586 24L77.1915 22.8548L75.7456 29H82.0586V24ZM84.0586 24L88.9093 22.7873L87.9625 19H84.0586V24ZM80.0586 28V33H86.3716L84.9257 26.8548L80.0586 28ZM80.0586 24L84.9093 25.2127L86.4625 19H80.0586V24ZM73.5586 24V19H67.1547L68.7079 25.2127L73.5586 24ZM73.5586 28L68.6915 26.8548L67.2456 33H73.5586V28ZM79.2586 26C79.2586 26.4949 79.2138 26.7601 79.1915 26.8548L88.9257 29.1452C89.1701 28.1066 89.2586 27.0384 89.2586 26H79.2586ZM79.2079 29.2127C79.2047 29.2001 79.2192 29.2552 79.2334 29.3975C79.2474 29.5375 79.2586 29.7354 79.2586 30H89.2586C89.2586 28.9587 89.1755 27.8522 88.9093 26.7873L79.2079 29.2127ZM79.2586 30C79.2586 30.4949 79.2138 30.7601 79.1915 30.8548L88.9257 33.1452C89.1701 32.1066 89.2586 31.0384 89.2586 30H79.2586ZM84.0586 27H73.5586V37H84.0586V27ZM68.7079 33.2127C68.7047 33.2001 68.7192 33.2552 68.7334 33.3975C68.7474 33.5375 68.7586 33.7354 68.7586 34H78.7586C78.7586 32.9587 78.6755 31.8522 78.4093 30.7873L68.7079 33.2127ZM68.7586 34C68.7586 34.4949 68.7138 34.7601 68.6915 34.8548L78.4257 37.1452C78.6701 36.1066 78.7586 35.0384 78.7586 34H68.7586ZM73.5586 41H82.0586V31H73.5586V41ZM77.2079 37.2127C77.2047 37.2 77.2192 37.2552 77.2334 37.3975C77.2474 37.5375 77.2586 37.7354 77.2586 38H87.2586C87.2586 36.9587 87.1755 35.8522 86.9093 34.7873L77.2079 37.2127ZM77.2586 38C77.2586 38.4949 77.2138 38.7601 77.1915 38.8548L86.9257 41.1452C87.1701 40.1066 87.2586 39.0384 87.2586 38H77.2586ZM82.0586 35H72.0586V45H82.0586V35ZM76.9257 38.8548C76.9034 38.7601 76.8586 38.4949 76.8586 38H66.8586C66.8586 39.0384 66.9471 40.1066 67.1915 41.1452L76.9257 38.8548ZM76.8586 38C76.8586 37.7354 76.8698 37.5375 76.8838 37.3975C76.898 37.2552 76.9125 37.2001 76.9093 37.2127L67.2079 34.7873C66.9417 35.8522 66.8586 36.9587 66.8586 38H76.8586ZM72.0586 31H69.5586V41H72.0586V31ZM74.4257 34.8548C74.4034 34.7601 74.3586 34.4949 74.3586 34H64.3586C64.3586 35.0384 64.4471 36.1066 64.6915 37.1452L74.4257 34.8548ZM74.3586 34C74.3586 33.7354 74.3698 33.5375 74.3838 33.3975C74.398 33.2552 74.4125 33.2001 74.4093 33.2127L64.7079 30.7873C64.4417 31.8522 64.3586 32.9587 64.3586 34H74.3586ZM69.5586 27H68.0586V37H69.5586V27ZM72.9257 30.8548C72.9034 30.7601 72.8586 30.4949 72.8586 30H62.8586C62.8586 31.0384 62.9471 32.1066 63.1915 33.1452L72.9257 30.8548ZM72.8586 30C72.8586 29.7354 72.8698 29.5375 72.8838 29.3975C72.898 29.2552 72.9125 29.2001 72.9093 29.2127L63.2079 26.7873C62.9417 27.8522 62.8586 28.9587 62.8586 30H72.8586ZM68.0586 33H69.5586V23H68.0586V33ZM74.4257 26.8548C74.4034 26.7601 74.3586 26.4949 74.3586 26H64.3586C64.3586 27.0384 64.4471 28.1066 64.6915 29.1452L74.4257 26.8548ZM74.3586 26C74.3586 25.7354 74.3698 25.5375 74.3838 25.3975C74.398 25.2552 74.4125 25.2001 74.4093 25.2127L64.7079 22.7873C64.4417 23.8522 64.3586 24.9587 64.3586 26H74.3586ZM69.5586 29H72.0586V19H69.5586V29ZM76.9257 22.8548C76.9034 22.7601 76.8586 22.4949 76.8586 22H66.8586C66.8586 23.0384 66.9471 24.1066 67.1915 25.1452L76.9257 22.8548ZM76.8586 22C76.8586 21.7354 76.8698 21.5375 76.8838 21.3975C76.898 21.2552 76.9125 21.2001 76.9093 21.2127L67.2079 18.7873C66.9417 19.8522 66.8586 20.9587 66.8586 22H76.8586ZM72.0586 25H82.0586V15H72.0586V25ZM77.2079 21.2127C77.2047 21.2 77.2192 21.2552 77.2334 21.3975C77.2474 21.5375 77.2586 21.7354 77.2586 22H87.2586C87.2586 20.9587 87.1755 19.8522 86.9093 18.7873L77.2079 21.2127ZM77.2586 22C77.2586 22.4949 77.2138 22.7601 77.1915 22.8548L86.9257 25.1452C87.1701 24.1066 87.2586 23.0384 87.2586 22H77.2586ZM82.0586 29H84.0586V19H82.0586V29ZM79.2079 25.2127C79.2047 25.2001 79.2192 25.2552 79.2334 25.3975C79.2474 25.5375 79.2586 25.7354 79.2586 26H89.2586C89.2586 24.9587 89.1755 23.8522 88.9093 22.7873L79.2079 25.2127ZM84.9257 26.8548C84.9034 26.7601 84.8586 26.4949 84.8586 26H74.8586C74.8586 27.0384 74.9471 28.1066 75.1915 29.1452L84.9257 26.8548ZM84.8586 26C84.8586 25.7354 84.8698 25.5375 84.8838 25.3975C84.898 25.2552 84.9125 25.2 84.9093 25.2127L75.2079 22.7873C74.9417 23.8522 74.8586 24.9587 74.8586 26H84.8586ZM80.0586 19H73.5586V29H80.0586V19ZM68.7079 25.2127C68.7047 25.2001 68.7192 25.2552 68.7334 25.3975C68.7474 25.5375 68.7586 25.7354 68.7586 26H78.7586C78.7586 24.9587 78.6755 23.8522 78.4093 22.7873L68.7079 25.2127ZM68.7586 26C68.7586 26.4949 68.7138 26.7601 68.6915 26.8548L78.4257 29.1452C78.6701 28.1066 78.7586 27.0384 78.7586 26H68.7586ZM73.5586 33H80.0586V23H73.5586V33Z"
            fill="black" fill-opacity="0.3"/>
</svg>