<svg xmlns="http://www.w3.org/2000/svg" width="116" height="50"
     viewBox="0 0 116 50" fill="none">
    <path
            d="M25.5 36C25.6333 36.5333 25.7 37.2 25.7 38C25.7 38.7667 25.6333 39.4333 25.5 40H11.5C11.3667 39.4333 11.3 38.7667 11.3 38C11.3 37.2 11.3667 36.5333 11.5 36C11.3667 35.4333 11.3 34.7667 11.3 34C11.3 33.2 11.3667 32.5333 11.5 32C11.3667 31.4333 11.3 30.7667 11.3 30C11.3 29.2 11.3667 28.5333 11.5 28C11.3667 27.4333 11.3 26.7667 11.3 26C11.3 25.2 11.3667 24.5333 11.5 24C11.3667 23.4333 11.3 22.7667 11.3 22C11.3 21.2 11.3667 20.5333 11.5 20C11.3667 19.4333 11.3 18.7667 11.3 18C11.3 17.2 11.3667 16.5333 11.5 16C11.3667 15.4333 11.3 14.7667 11.3 14C11.3 13.2 11.3667 12.5333 11.5 12H15.5C15.6333 12.5333 15.7 13.2 15.7 14C15.7 14.7667 15.6333 15.4333 15.5 16C15.6333 16.5333 15.7 17.2 15.7 18C15.7 18.7667 15.6333 19.4333 15.5 20C15.6333 20.5333 15.7 21.2 15.7 22C15.7 22.7667 15.6333 23.4333 15.5 24C15.6333 24.5333 15.7 25.2 15.7 26C15.7 26.7667 15.6333 27.4333 15.5 28C15.6333 28.5333 15.7 29.2 15.7 30C15.7 30.7667 15.6333 31.4333 15.5 32C15.6333 32.5333 15.7 33.2 15.7 34C15.7 34.7667 15.6333 35.4333 15.5 36H25.5ZM45.7195 26C45.7195 26.7667 45.6529 27.4333 45.5195 28C45.6529 28.5333 45.7195 29.2 45.7195 30C45.7195 30.7667 45.6529 31.4333 45.5195 32H35.0195C35.1529 32.5333 35.2195 33.2 35.2195 34C35.2195 34.7667 35.1529 35.4333 35.0195 36H43.5195C43.6529 36.5333 43.7195 37.2 43.7195 38C43.7195 38.7667 43.6529 39.4333 43.5195 40H33.5195C33.3862 39.4333 33.3195 38.7667 33.3195 38C33.3195 37.2 33.3862 36.5333 33.5195 36H31.0195C30.8862 35.4333 30.8195 34.7667 30.8195 34C30.8195 33.2 30.8862 32.5333 31.0195 32H29.5195C29.3862 31.4333 29.3195 30.7667 29.3195 30C29.3195 29.2 29.3862 28.5333 29.5195 28H31.0195C30.8862 27.4333 30.8195 26.7667 30.8195 26C30.8195 25.2 30.8862 24.5333 31.0195 24H33.5195C33.3862 23.4333 33.3195 22.7667 33.3195 22C33.3195 21.2 33.3862 20.5333 33.5195 20H43.5195C43.6529 20.5333 43.7195 21.2 43.7195 22C43.7195 22.7667 43.6529 23.4333 43.5195 24H45.5195C45.6529 24.5333 45.7195 25.2 45.7195 26ZM41.5195 28C41.3862 27.4333 41.3195 26.7667 41.3195 26C41.3195 25.2 41.3862 24.5333 41.5195 24H35.0195C35.1529 24.5333 35.2195 25.2 35.2195 26C35.2195 26.7667 35.1529 27.4333 35.0195 28H41.5195ZM65.5391 36C65.6724 36.5333 65.7391 37.2 65.7391 38C65.7391 38.7667 65.6724 39.4333 65.5391 40H61.5391C61.4057 39.4333 61.3391 38.7667 61.3391 38C61.3391 37.2 61.4057 36.5333 61.5391 36H59.5391C59.4057 35.4333 59.3391 34.7667 59.3391 34C59.3391 33.2 59.4057 32.5333 59.5391 32H53.5391C53.6724 32.5333 53.7391 33.2 53.7391 34C53.7391 34.7667 53.6724 35.4333 53.5391 36H59.5391C59.6724 36.5333 59.7391 37.2 59.7391 38C59.7391 38.7667 59.6724 39.4333 59.5391 40H51.5391C51.4057 39.4333 51.3391 38.7667 51.3391 38C51.3391 37.2 51.4057 36.5333 51.5391 36H49.5391C49.4057 35.4333 49.3391 34.7667 49.3391 34C49.3391 33.2 49.4057 32.5333 49.5391 32H51.5391C51.4057 31.4333 51.3391 30.7667 51.3391 30C51.3391 29.2 51.4057 28.5333 51.5391 28H59.5391C59.4057 27.4333 59.3391 26.7667 59.3391 26C59.3391 25.2 59.4057 24.5333 59.5391 24H52.5391C52.4057 23.4333 52.3391 22.7667 52.3391 22C52.3391 21.2 52.4057 20.5333 52.5391 20H61.5391C61.6724 20.5333 61.7391 21.2 61.7391 22C61.7391 22.7667 61.6724 23.4333 61.5391 24H63.5391C63.6724 24.5333 63.7391 25.2 63.7391 26C63.7391 26.7667 63.6724 27.4333 63.5391 28C63.6724 28.5333 63.7391 29.2 63.7391 30C63.7391 30.7667 63.6724 31.4333 63.5391 32C63.6724 32.5333 63.7391 33.2 63.7391 34C63.7391 34.7667 63.6724 35.4333 63.5391 36H65.5391ZM85.5586 24C85.6919 24.5333 85.7586 25.2 85.7586 26C85.7586 26.7667 85.6919 27.4333 85.5586 28H81.5586C81.4253 27.4333 81.3586 26.7667 81.3586 26C81.3586 25.2 81.4253 24.5333 81.5586 24H78.0586C78.1919 24.5333 78.2586 25.2 78.2586 26C78.2586 26.7667 78.1919 27.4333 78.0586 28H76.5586C76.6919 28.5333 76.7586 29.2 76.7586 30C76.7586 30.7667 76.6919 31.4333 76.5586 32C76.6919 32.5333 76.7586 33.2 76.7586 34C76.7586 34.7667 76.6919 35.4333 76.5586 36H79.5586C79.6919 36.5333 79.7586 37.2 79.7586 38C79.7586 38.7667 79.6919 39.4333 79.5586 40H69.5586C69.4253 39.4333 69.3586 38.7667 69.3586 38C69.3586 37.2 69.4253 36.5333 69.5586 36H72.5586C72.4253 35.4333 72.3586 34.7667 72.3586 34C72.3586 33.2 72.4253 32.5333 72.5586 32C72.4253 31.4333 72.3586 30.7667 72.3586 30C72.3586 29.2 72.4253 28.5333 72.5586 28C72.4253 27.4333 72.3586 26.7667 72.3586 26C72.3586 25.2 72.4253 24.5333 72.5586 24H69.5586C69.4253 23.4333 69.3586 22.7667 69.3586 22C69.3586 21.2 69.4253 20.5333 69.5586 20H74.5586C74.6919 20.5333 74.7586 21.2 74.7586 22C74.7586 22.7667 74.6919 23.4333 74.5586 24H76.5586C76.4253 23.4333 76.3586 22.7667 76.3586 22C76.3586 21.2 76.4253 20.5333 76.5586 20H84.0586C84.1919 20.5333 84.2586 21.2 84.2586 22C84.2586 22.7667 84.1919 23.4333 84.0586 24H85.5586ZM93.2781 22C93.2781 22.7667 93.2115 23.4333 93.0781 24H95.0781C95.2115 24.5333 95.2781 25.2 95.2781 26C95.2781 26.7667 95.2115 27.4333 95.0781 28H93.5781C93.7115 28.5333 93.7781 29.2 93.7781 30C93.7781 30.7667 93.7115 31.4333 93.5781 32C93.7115 32.5333 93.7781 33.2 93.7781 34C93.7781 34.7667 93.7115 35.4333 93.5781 36C93.7115 36.5333 93.7781 37.2 93.7781 38C93.7781 38.7667 93.7115 39.4333 93.5781 40H89.5781C89.4448 39.4333 89.3781 38.7667 89.3781 38C89.3781 37.2 89.4448 36.5333 89.5781 36C89.4448 35.4333 89.3781 34.7667 89.3781 34C89.3781 33.2 89.4448 32.5333 89.5781 32C89.4448 31.4333 89.3781 30.7667 89.3781 30C89.3781 29.2 89.4448 28.5333 89.5781 28C89.4448 27.4333 89.3781 26.7667 89.3781 26C89.3781 25.2 89.4448 24.5333 89.5781 24C89.4448 23.4333 89.3781 22.7667 89.3781 22C89.3781 21.2 89.4448 20.5333 89.5781 20H93.0781C93.2115 20.5333 93.2781 21.2 93.2781 22ZM105.578 28C105.711 28.5333 105.778 29.2 105.778 30C105.778 30.7667 105.711 31.4333 105.578 32C105.711 32.5333 105.778 33.2 105.778 34C105.778 34.7667 105.711 35.4333 105.578 36C105.711 36.5333 105.778 37.2 105.778 38C105.778 38.7667 105.711 39.4333 105.578 40H101.578C101.445 39.4333 101.378 38.7667 101.378 38C101.378 37.2 101.445 36.5333 101.578 36C101.445 35.4333 101.378 34.7667 101.378 34C101.378 33.2 101.445 32.5333 101.578 32C101.445 31.4333 101.378 30.7667 101.378 30C101.378 29.2 101.445 28.5333 101.578 28C101.445 27.4333 101.378 26.7667 101.378 26C101.378 25.2 101.445 24.5333 101.578 24H95.0781C94.9448 23.4333 94.8781 22.7667 94.8781 22C94.8781 21.2 94.9448 20.5333 95.0781 20H103.078C103.211 20.5333 103.278 21.2 103.278 22C103.278 22.7667 103.211 23.4333 103.078 24H105.578C105.711 24.5333 105.778 25.2 105.778 26C105.778 26.7667 105.711 27.4333 105.578 28Z"
            fill="white" fill-opacity="0.6"/>
    <path
            d="M25.5 36L30.3507 34.7873L29.4039 31H25.5V36ZM25.5 40V45H29.4601L30.3671 41.1452L25.5 40ZM11.5 40L6.63291 41.1452L7.53993 45H11.5V40ZM11.5 36L16.3507 37.2127L16.645 36.0357L16.3671 34.8548L11.5 36ZM11.5 32L16.3507 33.2127L16.645 32.0357L16.3671 30.8548L11.5 32ZM11.5 28L16.3507 29.2127L16.645 28.0357L16.3671 26.8548L11.5 28ZM11.5 24L16.3507 25.2127L16.645 24.0357L16.3671 22.8548L11.5 24ZM11.5 20L16.3507 21.2127L16.645 20.0357L16.3671 18.8548L11.5 20ZM11.5 16L16.3507 17.2127L16.645 16.0357L16.3671 14.8548L11.5 16ZM11.5 12V7H7.59612L6.64929 10.7873L11.5 12ZM15.5 12L20.3507 10.7873L19.4039 7H15.5V12ZM15.5 16L10.6329 14.8548L10.3551 16.0357L10.6493 17.2127L15.5 16ZM15.5 20L10.6329 18.8548L10.3551 20.0357L10.6493 21.2127L15.5 20ZM15.5 24L10.6329 22.8548L10.3551 24.0357L10.6493 25.2127L15.5 24ZM15.5 28L10.6329 26.8548L10.3551 28.0357L10.6493 29.2127L15.5 28ZM15.5 32L10.6329 30.8548L10.3551 32.0357L10.6493 33.2127L15.5 32ZM15.5 36L10.6329 34.8548L9.18699 41H15.5V36ZM20.6493 37.2127C20.6461 37.2001 20.6606 37.2552 20.6748 37.3975C20.6888 37.5375 20.7 37.7354 20.7 38H30.7C30.7 36.9587 30.6169 35.8522 30.3507 34.7873L20.6493 37.2127ZM20.7 38C20.7 38.4949 20.6552 38.7601 20.6329 38.8548L30.3671 41.1452C30.6115 40.1066 30.7 39.0384 30.7 38H20.7ZM25.5 35H11.5V45H25.5V35ZM16.3671 38.8548C16.3448 38.7601 16.3 38.4949 16.3 38H6.3C6.3 39.0384 6.38853 40.1066 6.63291 41.1452L16.3671 38.8548ZM16.3 38C16.3 37.7354 16.3112 37.5375 16.3252 37.3975C16.3394 37.2552 16.3539 37.2001 16.3507 37.2127L6.64929 34.7873C6.38308 35.8522 6.3 36.9587 6.3 38H16.3ZM16.3671 34.8548C16.3448 34.7601 16.3 34.4949 16.3 34H6.3C6.3 35.0384 6.38853 36.1066 6.63291 37.1452L16.3671 34.8548ZM16.3 34C16.3 33.7354 16.3112 33.5375 16.3252 33.3975C16.3394 33.2552 16.3539 33.2001 16.3507 33.2127L6.64929 30.7873C6.38308 31.8522 6.3 32.9587 6.3 34H16.3ZM16.3671 30.8548C16.3448 30.7601 16.3 30.4949 16.3 30H6.3C6.3 31.0384 6.38853 32.1066 6.63291 33.1452L16.3671 30.8548ZM16.3 30C16.3 29.7354 16.3112 29.5375 16.3252 29.3975C16.3394 29.2552 16.3539 29.2001 16.3507 29.2127L6.64929 26.7873C6.38308 27.8522 6.3 28.9587 6.3 30H16.3ZM16.3671 26.8548C16.3448 26.7601 16.3 26.4949 16.3 26H6.3C6.3 27.0384 6.38853 28.1066 6.63291 29.1452L16.3671 26.8548ZM16.3 26C16.3 25.7354 16.3112 25.5375 16.3252 25.3975C16.3394 25.2552 16.3539 25.2001 16.3507 25.2127L6.64929 22.7873C6.38308 23.8522 6.3 24.9587 6.3 26H16.3ZM16.3671 22.8548C16.3448 22.7601 16.3 22.4949 16.3 22H6.3C6.3 23.0384 6.38853 24.1066 6.63291 25.1452L16.3671 22.8548ZM16.3 22C16.3 21.7354 16.3112 21.5375 16.3252 21.3975C16.3394 21.2552 16.3539 21.2001 16.3507 21.2127L6.64929 18.7873C6.38308 19.8522 6.3 20.9587 6.3 22H16.3ZM16.3671 18.8548C16.3448 18.7601 16.3 18.4949 16.3 18H6.3C6.3 19.0384 6.38853 20.1066 6.63291 21.1452L16.3671 18.8548ZM16.3 18C16.3 17.7354 16.3112 17.5375 16.3252 17.3975C16.3394 17.2552 16.3539 17.2001 16.3507 17.2127L6.64929 14.7873C6.38308 15.8522 6.3 16.9587 6.3 18H16.3ZM16.3671 14.8548C16.3448 14.7601 16.3 14.4949 16.3 14H6.3C6.3 15.0384 6.38853 16.1066 6.63291 17.1452L16.3671 14.8548ZM16.3 14C16.3 13.7354 16.3112 13.5375 16.3252 13.3975C16.3394 13.2552 16.3539 13.2001 16.3507 13.2127L6.64929 10.7873C6.38308 11.8522 6.3 12.9587 6.3 14H16.3ZM11.5 17H15.5V7H11.5V17ZM10.6493 13.2127C10.6461 13.2001 10.6606 13.2552 10.6748 13.3975C10.6888 13.5375 10.7 13.7354 10.7 14H20.7C20.7 12.9587 20.6169 11.8522 20.3507 10.7873L10.6493 13.2127ZM10.7 14C10.7 14.4949 10.6552 14.7601 10.6329 14.8548L20.3671 17.1452C20.6115 16.1066 20.7 15.0384 20.7 14H10.7ZM10.6493 17.2127C10.6461 17.2001 10.6606 17.2552 10.6748 17.3975C10.6888 17.5375 10.7 17.7354 10.7 18H20.7C20.7 16.9587 20.6169 15.8522 20.3507 14.7873L10.6493 17.2127ZM10.7 18C10.7 18.4949 10.6552 18.7601 10.6329 18.8548L20.3671 21.1452C20.6115 20.1066 20.7 19.0384 20.7 18H10.7ZM10.6493 21.2127C10.6461 21.2001 10.6606 21.2552 10.6748 21.3975C10.6888 21.5375 10.7 21.7354 10.7 22H20.7C20.7 20.9587 20.6169 19.8522 20.3507 18.7873L10.6493 21.2127ZM10.7 22C10.7 22.4949 10.6552 22.7601 10.6329 22.8548L20.3671 25.1452C20.6115 24.1066 20.7 23.0384 20.7 22H10.7ZM10.6493 25.2127C10.6461 25.2001 10.6606 25.2552 10.6748 25.3975C10.6888 25.5375 10.7 25.7354 10.7 26H20.7C20.7 24.9587 20.6169 23.8522 20.3507 22.7873L10.6493 25.2127ZM10.7 26C10.7 26.4949 10.6552 26.7601 10.6329 26.8548L20.3671 29.1452C20.6115 28.1066 20.7 27.0384 20.7 26H10.7ZM10.6493 29.2127C10.6461 29.2001 10.6606 29.2552 10.6748 29.3975C10.6888 29.5375 10.7 29.7354 10.7 30H20.7C20.7 28.9587 20.6169 27.8522 20.3507 26.7873L10.6493 29.2127ZM10.7 30C10.7 30.4949 10.6552 30.7601 10.6329 30.8548L20.3671 33.1452C20.6115 32.1066 20.7 31.0384 20.7 30H10.7ZM10.6493 33.2127C10.6461 33.2001 10.6606 33.2552 10.6748 33.3975C10.6888 33.5375 10.7 33.7354 10.7 34H20.7C20.7 32.9587 20.6169 31.8522 20.3507 30.7873L10.6493 33.2127ZM10.7 34C10.7 34.4949 10.6552 34.7601 10.6329 34.8548L20.3671 37.1452C20.6115 36.1066 20.7 35.0384 20.7 34H10.7ZM15.5 41H25.5V31H15.5V41ZM45.5195 28L40.6524 26.8548L40.3746 28.0357L40.6688 29.2127L45.5195 28ZM45.5195 32V37H49.4796L50.3866 33.1452L45.5195 32ZM35.0195 32V27H28.6156L30.1688 33.2127L35.0195 32ZM35.0195 36L30.1524 34.8548L28.7065 41H35.0195V36ZM43.5195 36L48.3702 34.7873L47.4234 31H43.5195V36ZM43.5195 40V45H47.4796L48.3866 41.1452L43.5195 40ZM33.5195 40L28.6524 41.1452L29.5595 45H33.5195V40ZM33.5195 36L38.3702 37.2127L39.9234 31H33.5195V36ZM31.0195 36L26.1524 37.1452L27.0595 41H31.0195V36ZM31.0195 32L35.8702 33.2127L37.4234 27H31.0195V32ZM29.5195 32L24.6524 33.1452L25.5595 37H29.5195V32ZM29.5195 28V23H25.6157L24.6688 26.7873L29.5195 28ZM31.0195 28V33H37.3325L35.8866 26.8548L31.0195 28ZM31.0195 24V19H27.1157L26.1688 22.7873L31.0195 24ZM33.5195 24V29H39.8325L38.3866 22.8548L33.5195 24ZM33.5195 20V15H29.6157L28.6688 18.7873L33.5195 20ZM43.5195 20L48.3702 18.7873L47.4234 15H43.5195V20ZM43.5195 24L38.6524 22.8548L37.2065 29H43.5195V24ZM45.5195 24L50.3702 22.7873L49.4234 19H45.5195V24ZM41.5195 28V33H47.8325L46.3866 26.8548L41.5195 28ZM41.5195 24L46.3702 25.2127L47.9234 19H41.5195V24ZM35.0195 24V19H28.6156L30.1688 25.2127L35.0195 24ZM35.0195 28L30.1524 26.8548L28.7065 33H35.0195V28ZM40.7195 26C40.7195 26.4949 40.6747 26.7601 40.6524 26.8548L50.3866 29.1452C50.631 28.1066 50.7195 27.0384 50.7195 26H40.7195ZM40.6688 29.2127C40.6657 29.2001 40.6801 29.2552 40.6943 29.3975C40.7083 29.5375 40.7195 29.7354 40.7195 30H50.7195C50.7195 28.9587 50.6365 27.8522 50.3702 26.7873L40.6688 29.2127ZM40.7195 30C40.7195 30.4949 40.6747 30.7601 40.6524 30.8548L50.3866 33.1452C50.631 32.1066 50.7195 31.0384 50.7195 30H40.7195ZM45.5195 27H35.0195V37H45.5195V27ZM30.1688 33.2127C30.1657 33.2001 30.1801 33.2552 30.1943 33.3975C30.2083 33.5375 30.2195 33.7354 30.2195 34H40.2195C40.2195 32.9587 40.1365 31.8522 39.8702 30.7873L30.1688 33.2127ZM30.2195 34C30.2195 34.4949 30.1747 34.7601 30.1524 34.8548L39.8866 37.1452C40.131 36.1066 40.2195 35.0384 40.2195 34H30.2195ZM35.0195 41H43.5195V31H35.0195V41ZM38.6688 37.2127C38.6657 37.2001 38.6801 37.2552 38.6943 37.3975C38.7083 37.5375 38.7195 37.7354 38.7195 38H48.7195C48.7195 36.9587 48.6365 35.8522 48.3702 34.7873L38.6688 37.2127ZM38.7195 38C38.7195 38.4949 38.6747 38.7601 38.6524 38.8548L48.3866 41.1452C48.631 40.1066 48.7195 39.0384 48.7195 38H38.7195ZM43.5195 35H33.5195V45H43.5195V35ZM38.3866 38.8548C38.3643 38.7601 38.3195 38.4949 38.3195 38H28.3195C28.3195 39.0384 28.4081 40.1066 28.6524 41.1452L38.3866 38.8548ZM38.3195 38C38.3195 37.7354 38.3307 37.5375 38.3447 37.3975C38.3589 37.2552 38.3734 37.2001 38.3702 37.2127L28.6688 34.7873C28.4026 35.8522 28.3195 36.9587 28.3195 38H38.3195ZM33.5195 31H31.0195V41H33.5195V31ZM35.8866 34.8548C35.8643 34.7601 35.8195 34.4949 35.8195 34H25.8195C25.8195 35.0384 25.9081 36.1066 26.1524 37.1452L35.8866 34.8548ZM35.8195 34C35.8195 33.7354 35.8307 33.5375 35.8447 33.3975C35.8589 33.2552 35.8734 33.2001 35.8702 33.2127L26.1688 30.7873C25.9026 31.8522 25.8195 32.9587 25.8195 34H35.8195ZM31.0195 27H29.5195V37H31.0195V27ZM34.3866 30.8548C34.3643 30.7601 34.3195 30.4949 34.3195 30H24.3195C24.3195 31.0384 24.4081 32.1066 24.6524 33.1452L34.3866 30.8548ZM34.3195 30C34.3195 29.7354 34.3307 29.5375 34.3447 29.3975C34.3589 29.2552 34.3734 29.2001 34.3702 29.2127L24.6688 26.7873C24.4026 27.8522 24.3195 28.9587 24.3195 30H34.3195ZM29.5195 33H31.0195V23H29.5195V33ZM35.8866 26.8548C35.8643 26.7601 35.8195 26.4949 35.8195 26H25.8195C25.8195 27.0384 25.9081 28.1066 26.1524 29.1452L35.8866 26.8548ZM35.8195 26C35.8195 25.7354 35.8307 25.5375 35.8447 25.3975C35.8589 25.2552 35.8734 25.2001 35.8702 25.2127L26.1688 22.7873C25.9026 23.8522 25.8195 24.9587 25.8195 26H35.8195ZM31.0195 29H33.5195V19H31.0195V29ZM38.3866 22.8548C38.3643 22.7601 38.3195 22.4949 38.3195 22H28.3195C28.3195 23.0384 28.4081 24.1066 28.6524 25.1452L38.3866 22.8548ZM38.3195 22C38.3195 21.7354 38.3307 21.5375 38.3447 21.3975C38.3589 21.2552 38.3734 21.2001 38.3702 21.2127L28.6688 18.7873C28.4026 19.8522 28.3195 20.9587 28.3195 22H38.3195ZM33.5195 25H43.5195V15H33.5195V25ZM38.6688 21.2127C38.6657 21.2001 38.6801 21.2552 38.6943 21.3975C38.7083 21.5375 38.7195 21.7354 38.7195 22H48.7195C48.7195 20.9587 48.6365 19.8522 48.3702 18.7873L38.6688 21.2127ZM38.7195 22C38.7195 22.4949 38.6747 22.7601 38.6524 22.8548L48.3866 25.1452C48.631 24.1066 48.7195 23.0384 48.7195 22H38.7195ZM43.5195 29H45.5195V19H43.5195V29ZM40.6688 25.2127C40.6657 25.2001 40.6801 25.2552 40.6943 25.3975C40.7083 25.5375 40.7195 25.7354 40.7195 26H50.7195C50.7195 24.9587 50.6365 23.8522 50.3702 22.7873L40.6688 25.2127ZM46.3866 26.8548C46.3643 26.7601 46.3195 26.4949 46.3195 26H36.3195C36.3195 27.0384 36.4081 28.1066 36.6524 29.1452L46.3866 26.8548ZM46.3195 26C46.3195 25.7354 46.3307 25.5375 46.3447 25.3975C46.359 25.2552 46.3734 25.2 46.3702 25.2127L36.6688 22.7873C36.4026 23.8522 36.3195 24.9587 36.3195 26H46.3195ZM41.5195 19H35.0195V29H41.5195V19ZM30.1688 25.2127C30.1657 25.2001 30.1801 25.2552 30.1943 25.3975C30.2083 25.5375 30.2195 25.7354 30.2195 26H40.2195C40.2195 24.9587 40.1365 23.8522 39.8702 22.7873L30.1688 25.2127ZM30.2195 26C30.2195 26.4949 30.1747 26.7601 30.1524 26.8548L39.8866 29.1452C40.131 28.1066 40.2195 27.0384 40.2195 26H30.2195ZM35.0195 33H41.5195V23H35.0195V33ZM65.5391 36L70.3898 34.7873L69.4429 31H65.5391V36ZM65.5391 40V45H69.4991L70.4061 41.1452L65.5391 40ZM61.5391 40L56.672 41.1452L57.579 45H61.5391V40ZM61.5391 36L66.3898 37.2127L67.9429 31H61.5391V36ZM59.5391 36L54.672 37.1452L55.579 41H59.5391V36ZM59.5391 32L64.3898 33.2127L65.9429 27H59.5391V32ZM53.5391 32V27H47.1352L48.6884 33.2127L53.5391 32ZM53.5391 36L48.672 34.8548L47.226 41H53.5391V36ZM59.5391 36L64.3898 34.7873L63.4429 31H59.5391V36ZM59.5391 40V45H63.4991L64.4061 41.1452L59.5391 40ZM51.5391 40L46.672 41.1452L47.579 45H51.5391V40ZM51.5391 36L56.3898 37.2127L57.9429 31H51.5391V36ZM49.5391 36L44.672 37.1452L45.579 41H49.5391V36ZM49.5391 32V27H45.6352L44.6884 30.7873L49.5391 32ZM51.5391 32V37H57.8521L56.4061 30.8548L51.5391 32ZM51.5391 28V23H47.6352L46.6884 26.7873L51.5391 28ZM59.5391 28V33H65.8521L64.4062 26.8548L59.5391 28ZM59.5391 24L64.3898 25.2127L65.9429 19H59.5391V24ZM52.5391 24L47.672 25.1452L48.579 29H52.5391V24ZM52.5391 20V15H48.6352L47.6884 18.7873L52.5391 20ZM61.5391 20L66.3898 18.7873L65.4429 15H61.5391V20ZM61.5391 24L56.672 22.8548L55.226 29H61.5391V24ZM63.5391 24L68.3898 22.7873L67.443 19H63.5391V24ZM63.5391 28L58.672 26.8548L58.3941 28.0357L58.6884 29.2127L63.5391 28ZM63.5391 32L58.672 30.8548L58.3941 32.0357L58.6884 33.2127L63.5391 32ZM63.5391 36L58.672 34.8548L57.2261 41H63.5391V36ZM60.6884 37.2127C60.6852 37.2001 60.6996 37.2552 60.7139 37.3975C60.7279 37.5375 60.7391 37.7354 60.7391 38H70.7391C70.7391 36.9587 70.656 35.8522 70.3898 34.7873L60.6884 37.2127ZM60.7391 38C60.7391 38.4949 60.6943 38.7601 60.672 38.8548L70.4061 41.1452C70.6505 40.1066 70.7391 39.0384 70.7391 38H60.7391ZM65.5391 35H61.5391V45H65.5391V35ZM66.4062 38.8548C66.3839 38.7601 66.3391 38.4949 66.3391 38H56.3391C56.3391 39.0384 56.4276 40.1066 56.672 41.1452L66.4062 38.8548ZM66.3391 38C66.3391 37.7354 66.3503 37.5375 66.3643 37.3975C66.3785 37.2552 66.3929 37.2001 66.3898 37.2127L56.6883 34.7873C56.4221 35.8522 56.3391 36.9587 56.3391 38H66.3391ZM61.5391 31H59.5391V41H61.5391V31ZM64.4062 34.8548C64.3839 34.7601 64.3391 34.4949 64.3391 34H54.3391C54.3391 35.0384 54.4276 36.1066 54.672 37.1452L64.4062 34.8548ZM64.3391 34C64.3391 33.7354 64.3503 33.5375 64.3643 33.3975C64.3785 33.2552 64.3929 33.2001 64.3898 33.2127L54.6884 30.7873C54.4221 31.8522 54.3391 32.9587 54.3391 34H64.3391ZM59.5391 27H53.5391V37H59.5391V27ZM48.6884 33.2127C48.6852 33.2001 48.6996 33.2552 48.7139 33.3975C48.7279 33.5375 48.7391 33.7354 48.7391 34H58.7391C58.7391 32.9587 58.656 31.8522 58.3898 30.7873L48.6884 33.2127ZM48.7391 34C48.7391 34.4949 48.6943 34.7601 48.672 34.8548L58.4061 37.1452C58.6505 36.1066 58.7391 35.0384 58.7391 34H48.7391ZM53.5391 41H59.5391V31H53.5391V41ZM54.6884 37.2127C54.6852 37.2001 54.6996 37.2552 54.7139 37.3975C54.7279 37.5375 54.7391 37.7354 54.7391 38H64.7391C64.7391 36.9587 64.656 35.8522 64.3898 34.7873L54.6884 37.2127ZM54.7391 38C54.7391 38.4949 54.6943 38.7601 54.672 38.8548L64.4061 41.1452C64.6505 40.1066 64.7391 39.0384 64.7391 38H54.7391ZM59.5391 35H51.5391V45H59.5391V35ZM56.4061 38.8548C56.3839 38.7601 56.3391 38.4949 56.3391 38H46.3391C46.3391 39.0384 46.4276 40.1066 46.672 41.1452L56.4061 38.8548ZM56.3391 38C56.3391 37.7354 56.3502 37.5375 56.3643 37.3975C56.3785 37.2552 56.3929 37.2001 56.3898 37.2127L46.6884 34.7873C46.4221 35.8522 46.3391 36.9587 46.3391 38H56.3391ZM51.5391 31H49.5391V41H51.5391V31ZM54.4061 34.8548C54.3839 34.7601 54.3391 34.4949 54.3391 34H44.3391C44.3391 35.0384 44.4276 36.1066 44.672 37.1452L54.4061 34.8548ZM54.3391 34C54.3391 33.7354 54.3502 33.5375 54.3643 33.3975C54.3785 33.2552 54.3929 33.2001 54.3898 33.2127L44.6884 30.7873C44.4221 31.8522 44.3391 32.9587 44.3391 34H54.3391ZM49.5391 37H51.5391V27H49.5391V37ZM56.4061 30.8548C56.3839 30.7601 56.3391 30.4949 56.3391 30H46.3391C46.3391 31.0384 46.4276 32.1066 46.672 33.1452L56.4061 30.8548ZM56.3391 30C56.3391 29.7354 56.3502 29.5375 56.3643 29.3975C56.3785 29.2552 56.3929 29.2001 56.3898 29.2127L46.6884 26.7873C46.4221 27.8522 46.3391 28.9587 46.3391 30H56.3391ZM51.5391 33H59.5391V23H51.5391V33ZM64.4062 26.8548C64.3839 26.7601 64.3391 26.4949 64.3391 26H54.3391C54.3391 27.0384 54.4276 28.1066 54.672 29.1452L64.4062 26.8548ZM64.3391 26C64.3391 25.7354 64.3503 25.5375 64.3643 25.3975C64.3785 25.2552 64.3929 25.2001 64.3898 25.2127L54.6884 22.7873C54.4221 23.8522 54.3391 24.9587 54.3391 26H64.3391ZM59.5391 19H52.5391V29H59.5391V19ZM57.4061 22.8548C57.3839 22.7601 57.3391 22.4949 57.3391 22H47.3391C47.3391 23.0384 47.4276 24.1066 47.672 25.1452L57.4061 22.8548ZM57.3391 22C57.3391 21.7354 57.3502 21.5375 57.3643 21.3975C57.3785 21.2552 57.3929 21.2001 57.3898 21.2127L47.6884 18.7873C47.4221 19.8522 47.3391 20.9587 47.3391 22H57.3391ZM52.5391 25H61.5391V15H52.5391V25ZM56.6884 21.2127C56.6852 21.2001 56.6996 21.2552 56.7139 21.3975C56.7279 21.5375 56.7391 21.7354 56.7391 22H66.7391C66.7391 20.9587 66.656 19.8522 66.3898 18.7873L56.6884 21.2127ZM56.7391 22C56.7391 22.4949 56.6943 22.7601 56.672 22.8548L66.4061 25.1452C66.6505 24.1066 66.7391 23.0384 66.7391 22H56.7391ZM61.5391 29H63.5391V19H61.5391V29ZM58.6884 25.2127C58.6852 25.2 58.6996 25.2552 58.7139 25.3975C58.7279 25.5375 58.7391 25.7354 58.7391 26H68.7391C68.7391 24.9587 68.656 23.8522 68.3898 22.7873L58.6884 25.2127ZM58.7391 26C58.7391 26.4949 58.6943 26.7601 58.672 26.8548L68.4062 29.1452C68.6505 28.1066 68.7391 27.0384 68.7391 26H58.7391ZM58.6884 29.2127C58.6852 29.2001 58.6996 29.2552 58.7139 29.3975C58.7279 29.5375 58.7391 29.7354 58.7391 30H68.7391C68.7391 28.9587 68.656 27.8522 68.3898 26.7873L58.6884 29.2127ZM58.7391 30C58.7391 30.4949 58.6943 30.7601 58.672 30.8548L68.4062 33.1452C68.6505 32.1066 68.7391 31.0384 68.7391 30H58.7391ZM58.6884 33.2127C58.6852 33.2001 58.6996 33.2552 58.7139 33.3975C58.7279 33.5375 58.7391 33.7354 58.7391 34H68.7391C68.7391 32.9587 68.656 31.8522 68.3898 30.7873L58.6884 33.2127ZM58.7391 34C58.7391 34.4949 58.6943 34.7601 58.672 34.8548L68.4062 37.1452C68.6505 36.1066 68.7391 35.0384 68.7391 34H58.7391ZM63.5391 41H65.5391V31H63.5391V41ZM85.5586 24L90.4093 22.7873L89.4625 19H85.5586V24ZM85.5586 28V33H89.5187L90.4257 29.1452L85.5586 28ZM81.5586 28L76.6915 29.1452L77.5985 33H81.5586V28ZM81.5586 24L86.4093 25.2127L87.9625 19H81.5586V24ZM78.0586 24V19H71.6547L73.2079 25.2127L78.0586 24ZM78.0586 28V33H82.0187L82.9257 29.1452L78.0586 28ZM76.5586 28V23H70.1547L71.7079 29.2127L76.5586 28ZM76.5586 32L71.6915 30.8548L71.4136 32.0357L71.7079 33.2127L76.5586 32ZM76.5586 36L71.6915 34.8548L70.2456 41H76.5586V36ZM79.5586 36L84.4093 34.7873L83.4625 31H79.5586V36ZM79.5586 40V45H83.5187L84.4257 41.1452L79.5586 40ZM69.5586 40L64.6915 41.1452L65.5985 45H69.5586V40ZM69.5586 36V31H65.6547L64.7079 34.7873L69.5586 36ZM72.5586 36V41H78.8716L77.4257 34.8548L72.5586 36ZM72.5586 32L77.4093 33.2127L77.7035 32.0357L77.4257 30.8548L72.5586 32ZM72.5586 28L77.4093 29.2127L77.7035 28.0357L77.4257 26.8548L72.5586 28ZM72.5586 24L77.4093 25.2127L78.9625 19H72.5586V24ZM69.5586 24L64.6915 25.1452L65.5985 29H69.5586V24ZM69.5586 20V15H65.6547L64.7079 18.7873L69.5586 20ZM74.5586 20L79.4093 18.7873L78.4625 15H74.5586V20ZM74.5586 24L69.6915 22.8548L68.2456 29H74.5586V24ZM76.5586 24V29H82.8716L81.4257 22.8548L76.5586 24ZM76.5586 20V15H72.6547L71.7079 18.7873L76.5586 20ZM84.0586 20L88.9093 18.7873L87.9625 15H84.0586V20ZM84.0586 24L79.1915 22.8548L77.7456 29H84.0586V24ZM80.7079 25.2127C80.7047 25.2001 80.7192 25.2552 80.7334 25.3975C80.7474 25.5375 80.7586 25.7354 80.7586 26H90.7586C90.7586 24.9587 90.6755 23.8522 90.4093 22.7873L80.7079 25.2127ZM80.7586 26C80.7586 26.4949 80.7138 26.7601 80.6915 26.8548L90.4257 29.1452C90.6701 28.1066 90.7586 27.0384 90.7586 26H80.7586ZM85.5586 23H81.5586V33H85.5586V23ZM86.4257 26.8548C86.4034 26.7601 86.3586 26.4949 86.3586 26H76.3586C76.3586 27.0384 76.4471 28.1066 76.6915 29.1452L86.4257 26.8548ZM86.3586 26C86.3586 25.7354 86.3698 25.5375 86.3838 25.3975C86.398 25.2552 86.4125 25.2 86.4093 25.2127L76.7079 22.7873C76.4417 23.8522 76.3586 24.9587 76.3586 26H86.3586ZM81.5586 19H78.0586V29H81.5586V19ZM73.2079 25.2127C73.2047 25.2001 73.2192 25.2552 73.2334 25.3975C73.2474 25.5375 73.2586 25.7354 73.2586 26H83.2586C83.2586 24.9587 83.1755 23.8522 82.9093 22.7873L73.2079 25.2127ZM73.2586 26C73.2586 26.4949 73.2138 26.7601 73.1915 26.8548L82.9257 29.1452C83.1701 28.1066 83.2586 27.0384 83.2586 26H73.2586ZM78.0586 23H76.5586V33H78.0586V23ZM71.7079 29.2127C71.7047 29.2001 71.7192 29.2552 71.7334 29.3975C71.7474 29.5375 71.7586 29.7354 71.7586 30H81.7586C81.7586 28.9587 81.6755 27.8522 81.4093 26.7873L71.7079 29.2127ZM71.7586 30C71.7586 30.4949 71.7138 30.7601 71.6915 30.8548L81.4257 33.1452C81.6701 32.1066 81.7586 31.0384 81.7586 30H71.7586ZM71.7079 33.2127C71.7047 33.2001 71.7192 33.2552 71.7334 33.3975C71.7474 33.5375 71.7586 33.7354 71.7586 34H81.7586C81.7586 32.9587 81.6755 31.8522 81.4093 30.7873L71.7079 33.2127ZM71.7586 34C71.7586 34.4949 71.7138 34.7601 71.6915 34.8548L81.4257 37.1452C81.6701 36.1066 81.7586 35.0384 81.7586 34H71.7586ZM76.5586 41H79.5586V31H76.5586V41ZM74.7079 37.2127C74.7047 37.2001 74.7192 37.2552 74.7334 37.3975C74.7474 37.5375 74.7586 37.7354 74.7586 38H84.7586C84.7586 36.9587 84.6755 35.8522 84.4093 34.7873L74.7079 37.2127ZM74.7586 38C74.7586 38.4949 74.7138 38.7601 74.6915 38.8548L84.4257 41.1452C84.6701 40.1066 84.7586 39.0384 84.7586 38H74.7586ZM79.5586 35H69.5586V45H79.5586V35ZM74.4257 38.8548C74.4034 38.7601 74.3586 38.4949 74.3586 38H64.3586C64.3586 39.0384 64.4471 40.1066 64.6915 41.1452L74.4257 38.8548ZM74.3586 38C74.3586 37.7354 74.3698 37.5375 74.3838 37.3975C74.398 37.2552 74.4125 37.2001 74.4093 37.2127L64.7079 34.7873C64.4417 35.8522 64.3586 36.9587 64.3586 38H74.3586ZM69.5586 41H72.5586V31H69.5586V41ZM77.4257 34.8548C77.4034 34.7601 77.3586 34.4949 77.3586 34H67.3586C67.3586 35.0384 67.4471 36.1066 67.6915 37.1452L77.4257 34.8548ZM77.3586 34C77.3586 33.7354 77.3698 33.5375 77.3838 33.3975C77.398 33.2552 77.4125 33.2001 77.4093 33.2127L67.7079 30.7873C67.4417 31.8522 67.3586 32.9587 67.3586 34H77.3586ZM77.4257 30.8548C77.4034 30.7601 77.3586 30.4949 77.3586 30H67.3586C67.3586 31.0384 67.4471 32.1066 67.6915 33.1452L77.4257 30.8548ZM77.3586 30C77.3586 29.7354 77.3698 29.5375 77.3838 29.3975C77.398 29.2552 77.4125 29.2001 77.4093 29.2127L67.7079 26.7873C67.4417 27.8522 67.3586 28.9587 67.3586 30H77.3586ZM77.4257 26.8548C77.4034 26.7601 77.3586 26.4949 77.3586 26H67.3586C67.3586 27.0384 67.4471 28.1066 67.6915 29.1452L77.4257 26.8548ZM77.3586 26C77.3586 25.7354 77.3698 25.5375 77.3838 25.3975C77.398 25.2552 77.4125 25.2001 77.4093 25.2127L67.7079 22.7873C67.4417 23.8522 67.3586 24.9587 67.3586 26H77.3586ZM72.5586 19H69.5586V29H72.5586V19ZM74.4257 22.8548C74.4034 22.7601 74.3586 22.4949 74.3586 22H64.3586C64.3586 23.0384 64.4471 24.1066 64.6915 25.1452L74.4257 22.8548ZM74.3586 22C74.3586 21.7354 74.3698 21.5375 74.3838 21.3975C74.398 21.2552 74.4125 21.2001 74.4093 21.2127L64.7079 18.7873C64.4417 19.8522 64.3586 20.9587 64.3586 22H74.3586ZM69.5586 25H74.5586V15H69.5586V25ZM69.7079 21.2127C69.7047 21.2001 69.7192 21.2552 69.7334 21.3975C69.7474 21.5375 69.7586 21.7354 69.7586 22H79.7586C79.7586 20.9587 79.6755 19.8522 79.4093 18.7873L69.7079 21.2127ZM69.7586 22C69.7586 22.4949 69.7138 22.7601 69.6915 22.8548L79.4257 25.1452C79.6701 24.1066 79.7586 23.0384 79.7586 22H69.7586ZM74.5586 29H76.5586V19H74.5586V29ZM81.4257 22.8548C81.4034 22.7601 81.3586 22.4949 81.3586 22H71.3586C71.3586 23.0384 71.4471 24.1066 71.6915 25.1452L81.4257 22.8548ZM81.3586 22C81.3586 21.7354 81.3698 21.5375 81.3838 21.3975C81.398 21.2552 81.4125 21.2001 81.4093 21.2127L71.7079 18.7873C71.4417 19.8522 71.3586 20.9587 71.3586 22H81.3586ZM76.5586 25H84.0586V15H76.5586V25ZM79.2079 21.2127C79.2047 21.2001 79.2192 21.2552 79.2334 21.3975C79.2474 21.5375 79.2586 21.7354 79.2586 22H89.2586C89.2586 20.9587 89.1755 19.8522 88.9093 18.7873L79.2079 21.2127ZM79.2586 22C79.2586 22.4949 79.2138 22.7601 79.1915 22.8548L88.9257 25.1452C89.1701 24.1066 89.2586 23.0384 89.2586 22H79.2586ZM84.0586 29H85.5586V19H84.0586V29ZM93.0781 24L88.211 22.8548L86.7651 29H93.0781V24ZM95.0781 24L99.9288 22.7873L98.982 19H95.0781V24ZM95.0781 28V33H99.0382L99.9452 29.1452L95.0781 28ZM93.5781 28V23H87.1742L88.7274 29.2127L93.5781 28ZM93.5781 32L88.711 30.8548L88.4332 32.0357L88.7274 33.2127L93.5781 32ZM93.5781 36L88.711 34.8548L88.4332 36.0357L88.7274 37.2127L93.5781 36ZM93.5781 40V45H97.5382L98.4452 41.1452L93.5781 40ZM89.5781 40L84.711 41.1452L85.618 45H89.5781V40ZM89.5781 36L94.4288 37.2127L94.7231 36.0357L94.4452 34.8548L89.5781 36ZM89.5781 32L94.4288 33.2127L94.7231 32.0357L94.4452 30.8548L89.5781 32ZM89.5781 28L94.4288 29.2127L94.7231 28.0357L94.4452 26.8548L89.5781 28ZM89.5781 24L94.4288 25.2127L94.7231 24.0357L94.4452 22.8548L89.5781 24ZM89.5781 20V15H85.6742L84.7274 18.7873L89.5781 20ZM93.0781 20L97.9288 18.7873L96.982 15H93.0781V20ZM105.578 28L100.711 26.8548L100.433 28.0357L100.727 29.2127L105.578 28ZM105.578 32L100.711 30.8548L100.433 32.0357L100.727 33.2127L105.578 32ZM105.578 36L100.711 34.8548L100.433 36.0357L100.727 37.2127L105.578 36ZM105.578 40V45H109.538L110.445 41.1452L105.578 40ZM101.578 40L96.711 41.1452L97.618 45H101.578V40ZM101.578 36L106.429 37.2127L106.723 36.0357L106.445 34.8548L101.578 36ZM101.578 32L106.429 33.2127L106.723 32.0357L106.445 30.8548L101.578 32ZM101.578 28L106.429 29.2127L106.723 28.0357L106.445 26.8548L101.578 28ZM101.578 24L106.429 25.2127L107.982 19H101.578V24ZM95.0781 24L90.211 25.1452L91.118 29H95.0781V24ZM95.0781 20V15H91.1742L90.2274 18.7873L95.0781 20ZM103.078 20L107.929 18.7873L106.982 15H103.078V20ZM103.078 24L98.211 22.8548L96.7651 29H103.078V24ZM105.578 24L110.429 22.7873L109.482 19H105.578V24ZM88.2781 22C88.2781 22.4949 88.2333 22.7601 88.211 22.8548L97.9452 25.1452C98.1896 24.1066 98.2781 23.0384 98.2781 22H88.2781ZM93.0781 29H95.0781V19H93.0781V29ZM90.2274 25.2127C90.2243 25.2001 90.2387 25.2552 90.2529 25.3975C90.2669 25.5375 90.2781 25.7354 90.2781 26H100.278C100.278 24.9587 100.195 23.8522 99.9288 22.7873L90.2274 25.2127ZM90.2781 26C90.2781 26.4949 90.2333 26.7601 90.211 26.8548L99.9452 29.1452C100.19 28.1066 100.278 27.0384 100.278 26H90.2781ZM95.0781 23H93.5781V33H95.0781V23ZM88.7274 29.2127C88.7243 29.2001 88.7387 29.2552 88.7529 29.3975C88.7669 29.5375 88.7781 29.7354 88.7781 30H98.7781C98.7781 28.9587 98.6951 27.8522 98.4288 26.7873L88.7274 29.2127ZM88.7781 30C88.7781 30.4949 88.7333 30.7601 88.711 30.8548L98.4452 33.1452C98.6896 32.1066 98.7781 31.0384 98.7781 30H88.7781ZM88.7274 33.2127C88.7243 33.2001 88.7387 33.2552 88.7529 33.3975C88.7669 33.5375 88.7781 33.7354 88.7781 34H98.7781C98.7781 32.9587 98.6951 31.8522 98.4288 30.7873L88.7274 33.2127ZM88.7781 34C88.7781 34.4949 88.7333 34.7601 88.711 34.8548L98.4452 37.1452C98.6896 36.1066 98.7781 35.0384 98.7781 34H88.7781ZM88.7274 37.2127C88.7243 37.2001 88.7387 37.2552 88.7529 37.3975C88.7669 37.5375 88.7781 37.7354 88.7781 38H98.7781C98.7781 36.9587 98.6951 35.8522 98.4288 34.7873L88.7274 37.2127ZM88.7781 38C88.7781 38.4949 88.7333 38.7601 88.711 38.8548L98.4452 41.1452C98.6896 40.1066 98.7781 39.0384 98.7781 38H88.7781ZM93.5781 35H89.5781V45H93.5781V35ZM94.4452 38.8548C94.4229 38.7601 94.3781 38.4949 94.3781 38H84.3781C84.3781 39.0384 84.4667 40.1066 84.711 41.1452L94.4452 38.8548ZM94.3781 38C94.3781 37.7354 94.3893 37.5375 94.4033 37.3975C94.4175 37.2552 94.432 37.2001 94.4288 37.2127L84.7274 34.7873C84.4612 35.8522 84.3781 36.9587 84.3781 38H94.3781ZM94.4452 34.8548C94.4229 34.7601 94.3781 34.4949 94.3781 34H84.3781C84.3781 35.0384 84.4667 36.1066 84.711 37.1452L94.4452 34.8548ZM94.3781 34C94.3781 33.7354 94.3893 33.5375 94.4033 33.3975C94.4175 33.2552 94.432 33.2001 94.4288 33.2127L84.7274 30.7873C84.4612 31.8522 84.3781 32.9587 84.3781 34H94.3781ZM94.4452 30.8548C94.4229 30.7601 94.3781 30.4949 94.3781 30H84.3781C84.3781 31.0384 84.4667 32.1066 84.711 33.1452L94.4452 30.8548ZM94.3781 30C94.3781 29.7354 94.3893 29.5375 94.4033 29.3975C94.4175 29.2552 94.432 29.2001 94.4288 29.2127L84.7274 26.7873C84.4612 27.8522 84.3781 28.9587 84.3781 30H94.3781ZM94.4452 26.8548C94.4229 26.7601 94.3781 26.4949 94.3781 26H84.3781C84.3781 27.0384 84.4667 28.1066 84.711 29.1452L94.4452 26.8548ZM94.3781 26C94.3781 25.7354 94.3893 25.5375 94.4033 25.3975C94.4175 25.2552 94.432 25.2001 94.4288 25.2127L84.7274 22.7873C84.4612 23.8522 84.3781 24.9587 84.3781 26H94.3781ZM94.4452 22.8548C94.4229 22.7601 94.3781 22.4949 94.3781 22H84.3781C84.3781 23.0384 84.4667 24.1066 84.711 25.1452L94.4452 22.8548ZM94.3781 22C94.3781 21.7354 94.3893 21.5375 94.4033 21.3975C94.4175 21.2552 94.432 21.2001 94.4288 21.2127L84.7274 18.7873C84.4612 19.8522 84.3781 20.9587 84.3781 22H94.3781ZM89.5781 25H93.0781V15H89.5781V25ZM88.2274 21.2127C88.2243 21.2001 88.2387 21.2552 88.2529 21.3975C88.2669 21.5375 88.2781 21.7354 88.2781 22H98.2781C98.2781 20.9587 98.1951 19.8522 97.9288 18.7873L88.2274 21.2127ZM100.727 29.2127C100.724 29.2001 100.739 29.2552 100.753 29.3975C100.767 29.5375 100.778 29.7354 100.778 30H110.778C110.778 28.9587 110.695 27.8522 110.429 26.7873L100.727 29.2127ZM100.778 30C100.778 30.4949 100.733 30.7601 100.711 30.8548L110.445 33.1452C110.69 32.1066 110.778 31.0384 110.778 30H100.778ZM100.727 33.2127C100.724 33.2001 100.739 33.2552 100.753 33.3975C100.767 33.5375 100.778 33.7354 100.778 34H110.778C110.778 32.9587 110.695 31.8522 110.429 30.7873L100.727 33.2127ZM100.778 34C100.778 34.4949 100.733 34.7601 100.711 34.8548L110.445 37.1452C110.69 36.1066 110.778 35.0384 110.778 34H100.778ZM100.727 37.2127C100.724 37.2001 100.739 37.2552 100.753 37.3975C100.767 37.5375 100.778 37.7354 100.778 38H110.778C110.778 36.9587 110.695 35.8522 110.429 34.7873L100.727 37.2127ZM100.778 38C100.778 38.4949 100.733 38.7601 100.711 38.8548L110.445 41.1452C110.69 40.1066 110.778 39.0384 110.778 38H100.778ZM105.578 35H101.578V45H105.578V35ZM106.445 38.8548C106.423 38.7601 106.378 38.4949 106.378 38H96.3781C96.3781 39.0384 96.4667 40.1066 96.711 41.1452L106.445 38.8548ZM106.378 38C106.378 37.7354 106.389 37.5375 106.403 37.3975C106.418 37.2552 106.432 37.2001 106.429 37.2127L96.7274 34.7873C96.4612 35.8522 96.3781 36.9587 96.3781 38H106.378ZM106.445 34.8548C106.423 34.7601 106.378 34.4949 106.378 34H96.3781C96.3781 35.0384 96.4667 36.1066 96.711 37.1452L106.445 34.8548ZM106.378 34C106.378 33.7354 106.389 33.5375 106.403 33.3975C106.418 33.2552 106.432 33.2001 106.429 33.2127L96.7274 30.7873C96.4612 31.8522 96.3781 32.9587 96.3781 34H106.378ZM106.445 30.8548C106.423 30.7601 106.378 30.4949 106.378 30H96.3781C96.3781 31.0384 96.4667 32.1066 96.711 33.1452L106.445 30.8548ZM106.378 30C106.378 29.7354 106.389 29.5375 106.403 29.3975C106.418 29.2552 106.432 29.2001 106.429 29.2127L96.7274 26.7873C96.4612 27.8522 96.3781 28.9587 96.3781 30H106.378ZM106.445 26.8548C106.423 26.7601 106.378 26.4949 106.378 26H96.3781C96.3781 27.0384 96.4667 28.1066 96.711 29.1452L106.445 26.8548ZM106.378 26C106.378 25.7354 106.389 25.5375 106.403 25.3975C106.418 25.2552 106.432 25.2 106.429 25.2127L96.7274 22.7873C96.4612 23.8522 96.3781 24.9587 96.3781 26H106.378ZM101.578 19H95.0781V29H101.578V19ZM99.9452 22.8548C99.9229 22.7601 99.8781 22.4949 99.8781 22H89.8781C89.8781 23.0384 89.9667 24.1066 90.211 25.1452L99.9452 22.8548ZM99.8781 22C99.8781 21.7354 99.8893 21.5375 99.9033 21.3975C99.9175 21.2552 99.932 21.2001 99.9288 21.2127L90.2274 18.7873C89.9612 19.8522 89.8781 20.9587 89.8781 22H99.8781ZM95.0781 25H103.078V15H95.0781V25ZM98.2274 21.2127C98.2243 21.2001 98.2387 21.2552 98.2529 21.3975C98.2669 21.5375 98.2781 21.7354 98.2781 22H108.278C108.278 20.9587 108.195 19.8522 107.929 18.7873L98.2274 21.2127ZM98.2781 22C98.2781 22.4949 98.2333 22.7601 98.211 22.8548L107.945 25.1452C108.19 24.1066 108.278 23.0384 108.278 22H98.2781ZM103.078 29H105.578V19H103.078V29ZM100.727 25.2127C100.724 25.2001 100.739 25.2552 100.753 25.3975C100.767 25.5375 100.778 25.7354 100.778 26H110.778C110.778 24.9587 110.695 23.8522 110.429 22.7873L100.727 25.2127ZM100.778 26C100.778 26.4949 100.733 26.7601 100.711 26.8548L110.445 29.1452C110.69 28.1066 110.778 27.0384 110.778 26H100.778Z"
            fill="black" fill-opacity="0.3"/>
</svg>