<svg xmlns="http://www.w3.org/2000/svg" width="80" height="80" viewBox="0 0 80 80"
     fill="none">
    <circle cx="40" cy="40" r="40" fill="#0C1031"/>
    <path
            d="M30.8995 55.4108L22.2428 48.1782C22.7977 47.8444 23.9742 46.6427 24.2405 44.5063V30.0411C24.1295 28.7429 23.2861 25.7905 20.8 24.3662L30.1226 16.7998L39.1122 24.3662L40 25.1451L40.8879 24.3662L49.8775 16.7998L59.2001 24.3662C56.714 25.7905 55.8706 28.7429 55.7596 30.0411V44.5063C56.0259 46.6427 57.2024 47.8444 57.7573 48.1782L49.1006 55.4108V24.3662L48.1018 23.3648L43.3295 27.3705V55.4108C43.4405 56.1526 44.0176 57.8365 45.4382 58.6377L40.8879 62.4209L40 63.1998L39.1122 62.4209L34.5619 58.6377C35.9825 57.8365 36.5596 56.1526 36.6706 55.4108V27.3705L31.8983 23.3648L30.8995 24.3662V55.4108Z"
            fill="url(#paint0_linear_19658_1539)"/>
    <defs>
        <linearGradient id="paint0_linear_19658_1539" x1="20.8" y1="39.9998" x2="59.2001" y2="39.9998"
                        gradientUnits="userSpaceOnUse">
            <stop stop-color="#FFE259"/>
            <stop offset="1" stop-color="#FFA751"/>
        </linearGradient>
    </defs>
</svg>