<svg xmlns="http://www.w3.org/2000/svg" width="235" height="50"
     viewBox="0 0 235 50" fill="none">
    <path
            d="M25 16C25.1333 16.5333 25.2 17.2 25.2 18C25.2 18.7667 25.1333 19.4333 25 20C25.1333 20.5333 25.2 21.2 25.2 22C25.2 22.7667 25.1333 23.4333 25 24C25.1333 24.5333 25.2 25.2 25.2 26C25.2 26.7667 25.1333 27.4333 25 28C25.1333 28.5333 25.2 29.2 25.2 30C25.2 30.7667 25.1333 31.4333 25 32C25.1333 32.5333 25.2 33.2 25.2 34C25.2 34.7667 25.1333 35.4333 25 36C25.1333 36.5333 25.2 37.2 25.2 38C25.2 38.7667 25.1333 39.4333 25 40H21C20.8667 39.4333 20.8 38.7667 20.8 38C20.8 37.2 20.8667 36.5333 21 36C20.8667 35.4333 20.8 34.7667 20.8 34C20.8 33.2 20.8667 32.5333 21 32C20.8667 31.4333 20.8 30.7667 20.8 30C20.8 29.2 20.8667 28.5333 21 28C20.8667 27.4333 20.8 26.7667 20.8 26C20.8 25.2 20.8667 24.5333 21 24C20.8667 23.4333 20.8 22.7667 20.8 22C20.8 21.2 20.8667 20.5333 21 20H19.5C19.6333 20.5333 19.7 21.2 19.7 22C19.7 22.7667 19.6333 23.4333 19.5 24C19.6333 24.5333 19.7 25.2 19.7 26C19.7 26.7667 19.6333 27.4333 19.5 28H18.5C18.6333 28.5333 18.7 29.2 18.7 30C18.7 30.7667 18.6333 31.4333 18.5 32C18.6333 32.5333 18.7 33.2 18.7 34C18.7 34.7667 18.6333 35.4333 18.5 36H15.5C15.3667 35.4333 15.3 34.7667 15.3 34C15.3 33.2 15.3667 32.5333 15.5 32C15.3667 31.4333 15.3 30.7667 15.3 30C15.3 29.2 15.3667 28.5333 15.5 28H14.5C14.3667 27.4333 14.3 26.7667 14.3 26C14.3 25.2 14.3667 24.5333 14.5 24C14.3667 23.4333 14.3 22.7667 14.3 22C14.3 21.2 14.3667 20.5333 14.5 20H13C13.1333 20.5333 13.2 21.2 13.2 22C13.2 22.7667 13.1333 23.4333 13 24C13.1333 24.5333 13.2 25.2 13.2 26C13.2 26.7667 13.1333 27.4333 13 28C13.1333 28.5333 13.2 29.2 13.2 30C13.2 30.7667 13.1333 31.4333 13 32C13.1333 32.5333 13.2 33.2 13.2 34C13.2 34.7667 13.1333 35.4333 13 36C13.1333 36.5333 13.2 37.2 13.2 38C13.2 38.7667 13.1333 39.4333 13 40H9C8.86667 39.4333 8.8 38.7667 8.8 38C8.8 37.2 8.86667 36.5333 9 36C8.86667 35.4333 8.8 34.7667 8.8 34C8.8 33.2 8.86667 32.5333 9 32C8.86667 31.4333 8.8 30.7667 8.8 30C8.8 29.2 8.86667 28.5333 9 28C8.86667 27.4333 8.8 26.7667 8.8 26C8.8 25.2 8.86667 24.5333 9 24C8.86667 23.4333 8.8 22.7667 8.8 22C8.8 21.2 8.86667 20.5333 9 20C8.86667 19.4333 8.8 18.7667 8.8 18C8.8 17.2 8.86667 16.5333 9 16C8.86667 15.4333 8.8 14.7667 8.8 14C8.8 13.2 8.86667 12.5333 9 12H14C14.1333 12.5333 14.2 13.2 14.2 14C14.2 14.7667 14.1333 15.4333 14 16H15.5C15.6333 16.5333 15.7 17.2 15.7 18C15.7 18.7667 15.6333 19.4333 15.5 20H16.25C16.3833 20.5333 16.45 21.2 16.45 22C16.45 22.7667 16.3833 23.4333 16.25 24H17.75C17.6167 23.4333 17.55 22.7667 17.55 22C17.55 21.2 17.6167 20.5333 17.75 20H18.5C18.3667 19.4333 18.3 18.7667 18.3 18C18.3 17.2 18.3667 16.5333 18.5 16H20C19.8667 15.4333 19.8 14.7667 19.8 14C19.8 13.2 19.8667 12.5333 20 12H25C25.1333 12.5333 25.2 13.2 25.2 14C25.2 14.7667 25.1333 15.4333 25 16ZM45.0195 36C45.1529 36.5333 45.2195 37.2 45.2195 38C45.2195 38.7667 45.1529 39.4333 45.0195 40H41.0195C40.8862 39.4333 40.8195 38.7667 40.8195 38C40.8195 37.2 40.8862 36.5333 41.0195 36H39.0195C38.8862 35.4333 38.8195 34.7667 38.8195 34C38.8195 33.2 38.8862 32.5333 39.0195 32H33.0195C33.1529 32.5333 33.2195 33.2 33.2195 34C33.2195 34.7667 33.1529 35.4333 33.0195 36H39.0195C39.1529 36.5333 39.2195 37.2 39.2195 38C39.2195 38.7667 39.1529 39.4333 39.0195 40H31.0195C30.8862 39.4333 30.8195 38.7667 30.8195 38C30.8195 37.2 30.8862 36.5333 31.0195 36H29.0195C28.8862 35.4333 28.8195 34.7667 28.8195 34C28.8195 33.2 28.8862 32.5333 29.0195 32H31.0195C30.8862 31.4333 30.8195 30.7667 30.8195 30C30.8195 29.2 30.8862 28.5333 31.0195 28H39.0195C38.8862 27.4333 38.8195 26.7667 38.8195 26C38.8195 25.2 38.8862 24.5333 39.0195 24H32.0195C31.8862 23.4333 31.8195 22.7667 31.8195 22C31.8195 21.2 31.8862 20.5333 32.0195 20H41.0195C41.1529 20.5333 41.2195 21.2 41.2195 22C41.2195 22.7667 41.1529 23.4333 41.0195 24H43.0195C43.1529 24.5333 43.2195 25.2 43.2195 26C43.2195 26.7667 43.1529 27.4333 43.0195 28C43.1529 28.5333 43.2195 29.2 43.2195 30C43.2195 30.7667 43.1529 31.4333 43.0195 32C43.1529 32.5333 43.2195 33.2 43.2195 34C43.2195 34.7667 43.1529 35.4333 43.0195 36H45.0195ZM65.0391 24C65.1724 24.5333 65.2391 25.2 65.2391 26C65.2391 26.7667 65.1724 27.4333 65.0391 28H61.0391C60.9057 27.4333 60.8391 26.7667 60.8391 26C60.8391 25.2 60.9057 24.5333 61.0391 24H57.5391C57.6724 24.5333 57.7391 25.2 57.7391 26C57.7391 26.7667 57.6724 27.4333 57.5391 28H56.0391C56.1724 28.5333 56.2391 29.2 56.2391 30C56.2391 30.7667 56.1724 31.4333 56.0391 32C56.1724 32.5333 56.2391 33.2 56.2391 34C56.2391 34.7667 56.1724 35.4333 56.0391 36H59.0391C59.1724 36.5333 59.2391 37.2 59.2391 38C59.2391 38.7667 59.1724 39.4333 59.0391 40H49.0391C48.9057 39.4333 48.8391 38.7667 48.8391 38C48.8391 37.2 48.9057 36.5333 49.0391 36H52.0391C51.9057 35.4333 51.8391 34.7667 51.8391 34C51.8391 33.2 51.9057 32.5333 52.0391 32C51.9057 31.4333 51.8391 30.7667 51.8391 30C51.8391 29.2 51.9057 28.5333 52.0391 28C51.9057 27.4333 51.8391 26.7667 51.8391 26C51.8391 25.2 51.9057 24.5333 52.0391 24H49.0391C48.9057 23.4333 48.8391 22.7667 48.8391 22C48.8391 21.2 48.9057 20.5333 49.0391 20H54.0391C54.1724 20.5333 54.2391 21.2 54.2391 22C54.2391 22.7667 54.1724 23.4333 54.0391 24H56.0391C55.9057 23.4333 55.8391 22.7667 55.8391 22C55.8391 21.2 55.9057 20.5333 56.0391 20H63.5391C63.6724 20.5333 63.7391 21.2 63.7391 22C63.7391 22.7667 63.6724 23.4333 63.5391 24H65.0391ZM85.0586 36C85.1919 36.5333 85.2586 37.2 85.2586 38C85.2586 38.7667 85.1919 39.4333 85.0586 40H78.0586C77.9253 39.4333 77.8586 38.7667 77.8586 38C77.8586 37.2 77.9253 36.5333 78.0586 36H76.0586C75.9253 35.4333 75.8586 34.7667 75.8586 34C75.8586 33.2 75.9253 32.5333 76.0586 32H73.0586C73.1919 32.5333 73.2586 33.2 73.2586 34C73.2586 34.7667 73.1919 35.4333 73.0586 36C73.1919 36.5333 73.2586 37.2 73.2586 38C73.2586 38.7667 73.1919 39.4333 73.0586 40H69.0586C68.9253 39.4333 68.8586 38.7667 68.8586 38C68.8586 37.2 68.9253 36.5333 69.0586 36C68.9253 35.4333 68.8586 34.7667 68.8586 34C68.8586 33.2 68.9253 32.5333 69.0586 32C68.9253 31.4333 68.8586 30.7667 68.8586 30C68.8586 29.2 68.9253 28.5333 69.0586 28C68.9253 27.4333 68.8586 26.7667 68.8586 26C68.8586 25.2 68.9253 24.5333 69.0586 24C68.9253 23.4333 68.8586 22.7667 68.8586 22C68.8586 21.2 68.9253 20.5333 69.0586 20C68.9253 19.4333 68.8586 18.7667 68.8586 18C68.8586 17.2 68.9253 16.5333 69.0586 16C68.9253 15.4333 68.8586 14.7667 68.8586 14C68.8586 13.2 68.9253 12.5333 69.0586 12H73.0586C73.1919 12.5333 73.2586 13.2 73.2586 14C73.2586 14.7667 73.1919 15.4333 73.0586 16C73.1919 16.5333 73.2586 17.2 73.2586 18C73.2586 18.7667 73.1919 19.4333 73.0586 20C73.1919 20.5333 73.2586 21.2 73.2586 22C73.2586 22.7667 73.1919 23.4333 73.0586 24C73.1919 24.5333 73.2586 25.2 73.2586 26C73.2586 26.7667 73.1919 27.4333 73.0586 28H76.0586C75.9253 27.4333 75.8586 26.7667 75.8586 26C75.8586 25.2 75.9253 24.5333 76.0586 24H78.0586C77.9253 23.4333 77.8586 22.7667 77.8586 22C77.8586 21.2 77.9253 20.5333 78.0586 20H84.0586C84.1919 20.5333 84.2586 21.2 84.2586 22C84.2586 22.7667 84.1919 23.4333 84.0586 24H80.0586C80.1919 24.5333 80.2586 25.2 80.2586 26C80.2586 26.7667 80.1919 27.4333 80.0586 28H78.0586C78.1919 28.5333 78.2586 29.2 78.2586 30C78.2586 30.7667 78.1919 31.4333 78.0586 32H80.0586C80.1919 32.5333 80.2586 33.2 80.2586 34C80.2586 34.7667 80.1919 35.4333 80.0586 36H85.0586ZM105.278 26C105.278 26.7667 105.211 27.4333 105.078 28C105.211 28.5333 105.278 29.2 105.278 30C105.278 30.7667 105.211 31.4333 105.078 32H94.5781C94.7115 32.5333 94.7781 33.2 94.7781 34C94.7781 34.7667 94.7115 35.4333 94.5781 36H103.078C103.211 36.5333 103.278 37.2 103.278 38C103.278 38.7667 103.211 39.4333 103.078 40H93.0781C92.9448 39.4333 92.8781 38.7667 92.8781 38C92.8781 37.2 92.9448 36.5333 93.0781 36H90.5781C90.4448 35.4333 90.3781 34.7667 90.3781 34C90.3781 33.2 90.4448 32.5333 90.5781 32H89.0781C88.9448 31.4333 88.8781 30.7667 88.8781 30C88.8781 29.2 88.9448 28.5333 89.0781 28H90.5781C90.4448 27.4333 90.3781 26.7667 90.3781 26C90.3781 25.2 90.4448 24.5333 90.5781 24H93.0781C92.9448 23.4333 92.8781 22.7667 92.8781 22C92.8781 21.2 92.9448 20.5333 93.0781 20H103.078C103.211 20.5333 103.278 21.2 103.278 22C103.278 22.7667 103.211 23.4333 103.078 24H105.078C105.211 24.5333 105.278 25.2 105.278 26ZM101.078 28C100.945 27.4333 100.878 26.7667 100.878 26C100.878 25.2 100.945 24.5333 101.078 24H94.5781C94.7115 24.5333 94.7781 25.2 94.7781 26C94.7781 26.7667 94.7115 27.4333 94.5781 28H101.078ZM123.098 36C123.231 36.5333 123.298 37.2 123.298 38C123.298 38.7667 123.231 39.4333 123.098 40H115.098C114.964 39.4333 114.898 38.7667 114.898 38C114.898 37.2 114.964 36.5333 115.098 36H113.098C112.964 35.4333 112.898 34.7667 112.898 34C112.898 33.2 112.964 32.5333 113.098 32C112.964 31.4333 112.898 30.7667 112.898 30C112.898 29.2 112.964 28.5333 113.098 28C112.964 27.4333 112.898 26.7667 112.898 26C112.898 25.2 112.964 24.5333 113.098 24H109.098C108.964 23.4333 108.898 22.7667 108.898 22C108.898 21.2 108.964 20.5333 109.098 20H113.098C112.964 19.4333 112.898 18.7667 112.898 18C112.898 17.2 112.964 16.5333 113.098 16C112.964 15.4333 112.898 14.7667 112.898 14C112.898 13.2 112.964 12.5333 113.098 12H117.098C117.231 12.5333 117.298 13.2 117.298 14C117.298 14.7667 117.231 15.4333 117.098 16C117.231 16.5333 117.298 17.2 117.298 18C117.298 18.7667 117.231 19.4333 117.098 20H123.098C123.231 20.5333 123.298 21.2 123.298 22C123.298 22.7667 123.231 23.4333 123.098 24H117.098C117.231 24.5333 117.298 25.2 117.298 26C117.298 26.7667 117.231 27.4333 117.098 28C117.231 28.5333 117.298 29.2 117.298 30C117.298 30.7667 117.231 31.4333 117.098 32C117.231 32.5333 117.298 33.2 117.298 34C117.298 34.7667 117.231 35.4333 117.098 36H123.098ZM145.317 30C145.317 30.7667 145.251 31.4333 145.117 32H143.117C143.251 32.5333 143.317 33.2 143.317 34C143.317 34.7667 143.251 35.4333 143.117 36H141.117C141.251 36.5333 141.317 37.2 141.317 38C141.317 38.7667 141.251 39.4333 141.117 40H133.117C133.251 40.5333 133.317 41.2 133.317 42C133.317 42.7667 133.251 43.4333 133.117 44C133.251 44.5333 133.317 45.2 133.317 46C133.317 46.7667 133.251 47.4333 133.117 48H129.117C128.984 47.4333 128.917 46.7667 128.917 46C128.917 45.2 128.984 44.5333 129.117 44C128.984 43.4333 128.917 42.7667 128.917 42C128.917 41.2 128.984 40.5333 129.117 40C128.984 39.4333 128.917 38.7667 128.917 38C128.917 37.2 128.984 36.5333 129.117 36C128.984 35.4333 128.917 34.7667 128.917 34C128.917 33.2 128.984 32.5333 129.117 32C128.984 31.4333 128.917 30.7667 128.917 30C128.917 29.2 128.984 28.5333 129.117 28C128.984 27.4333 128.917 26.7667 128.917 26C128.917 25.2 128.984 24.5333 129.117 24C128.984 23.4333 128.917 22.7667 128.917 22C128.917 21.2 128.984 20.5333 129.117 20H133.117C133.251 20.5333 133.317 21.2 133.317 22C133.317 22.7667 133.251 23.4333 133.117 24H135.117C135.251 24.5333 135.317 25.2 135.317 26C135.317 26.7667 135.251 27.4333 135.117 28H133.117C133.251 28.5333 133.317 29.2 133.317 30C133.317 30.7667 133.251 31.4333 133.117 32C133.251 32.5333 133.317 33.2 133.317 34C133.317 34.7667 133.251 35.4333 133.117 36H139.117C138.984 35.4333 138.917 34.7667 138.917 34C138.917 33.2 138.984 32.5333 139.117 32H141.117C140.984 31.4333 140.917 30.7667 140.917 30C140.917 29.2 140.984 28.5333 141.117 28H139.117C138.984 27.4333 138.917 26.7667 138.917 26C138.917 25.2 138.984 24.5333 139.117 24H135.117C134.984 23.4333 134.917 22.7667 134.917 22C134.917 21.2 134.984 20.5333 135.117 20H141.117C141.251 20.5333 141.317 21.2 141.317 22C141.317 22.7667 141.251 23.4333 141.117 24H143.117C143.251 24.5333 143.317 25.2 143.317 26C143.317 26.7667 143.251 27.4333 143.117 28H145.117C145.251 28.5333 145.317 29.2 145.317 30ZM163.137 36C163.27 36.5333 163.337 37.2 163.337 38C163.337 38.7667 163.27 39.4333 163.137 40H151.137C151.003 39.4333 150.937 38.7667 150.937 38C150.937 37.2 151.003 36.5333 151.137 36H155.137C155.003 35.4333 154.937 34.7667 154.937 34C154.937 33.2 155.003 32.5333 155.137 32C155.003 31.4333 154.937 30.7667 154.937 30C154.937 29.2 155.003 28.5333 155.137 28C155.003 27.4333 154.937 26.7667 154.937 26C154.937 25.2 155.003 24.5333 155.137 24C155.003 23.4333 154.937 22.7667 154.937 22C154.937 21.2 155.003 20.5333 155.137 20C155.003 19.4333 154.937 18.7667 154.937 18C154.937 17.2 155.003 16.5333 155.137 16H152.137C152.003 15.4333 151.937 14.7667 151.937 14C151.937 13.2 152.003 12.5333 152.137 12H159.137C159.27 12.5333 159.337 13.2 159.337 14C159.337 14.7667 159.27 15.4333 159.137 16C159.27 16.5333 159.337 17.2 159.337 18C159.337 18.7667 159.27 19.4333 159.137 20C159.27 20.5333 159.337 21.2 159.337 22C159.337 22.7667 159.27 23.4333 159.137 24C159.27 24.5333 159.337 25.2 159.337 26C159.337 26.7667 159.27 27.4333 159.137 28C159.27 28.5333 159.337 29.2 159.337 30C159.337 30.7667 159.27 31.4333 159.137 32C159.27 32.5333 159.337 33.2 159.337 34C159.337 34.7667 159.27 35.4333 159.137 36H163.137ZM185.156 36C185.29 36.5333 185.356 37.2 185.356 38C185.356 38.7667 185.29 39.4333 185.156 40H181.156C181.023 39.4333 180.956 38.7667 180.956 38C180.956 37.2 181.023 36.5333 181.156 36H179.156C179.023 35.4333 178.956 34.7667 178.956 34C178.956 33.2 179.023 32.5333 179.156 32H173.156C173.29 32.5333 173.356 33.2 173.356 34C173.356 34.7667 173.29 35.4333 173.156 36H179.156C179.29 36.5333 179.356 37.2 179.356 38C179.356 38.7667 179.29 39.4333 179.156 40H171.156C171.023 39.4333 170.956 38.7667 170.956 38C170.956 37.2 171.023 36.5333 171.156 36H169.156C169.023 35.4333 168.956 34.7667 168.956 34C168.956 33.2 169.023 32.5333 169.156 32H171.156C171.023 31.4333 170.956 30.7667 170.956 30C170.956 29.2 171.023 28.5333 171.156 28H179.156C179.023 27.4333 178.956 26.7667 178.956 26C178.956 25.2 179.023 24.5333 179.156 24H172.156C172.023 23.4333 171.956 22.7667 171.956 22C171.956 21.2 172.023 20.5333 172.156 20H181.156C181.29 20.5333 181.356 21.2 181.356 22C181.356 22.7667 181.29 23.4333 181.156 24H183.156C183.29 24.5333 183.356 25.2 183.356 26C183.356 26.7667 183.29 27.4333 183.156 28C183.29 28.5333 183.356 29.2 183.356 30C183.356 30.7667 183.29 31.4333 183.156 32C183.29 32.5333 183.356 33.2 183.356 34C183.356 34.7667 183.29 35.4333 183.156 36H185.156ZM205.176 32C205.309 32.5333 205.376 33.2 205.376 34C205.376 34.7667 205.309 35.4333 205.176 36H203.176C203.309 36.5333 203.376 37.2 203.376 38C203.376 38.7667 203.309 39.4333 203.176 40H193.176C193.042 39.4333 192.976 38.7667 192.976 38C192.976 37.2 193.042 36.5333 193.176 36H191.176C191.042 35.4333 190.976 34.7667 190.976 34C190.976 33.2 191.042 32.5333 191.176 32H189.176C189.042 31.4333 188.976 30.7667 188.976 30C188.976 29.2 189.042 28.5333 189.176 28H191.176C191.042 27.4333 190.976 26.7667 190.976 26C190.976 25.2 191.042 24.5333 191.176 24H193.176C193.042 23.4333 192.976 22.7667 192.976 22C192.976 21.2 193.042 20.5333 193.176 20H203.176C203.309 20.5333 203.376 21.2 203.376 22C203.376 22.7667 203.309 23.4333 203.176 24H205.176C205.309 24.5333 205.376 25.2 205.376 26C205.376 26.7667 205.309 27.4333 205.176 28H201.176C201.042 27.4333 200.976 26.7667 200.976 26C200.976 25.2 201.042 24.5333 201.176 24H195.176C195.309 24.5333 195.376 25.2 195.376 26C195.376 26.7667 195.309 27.4333 195.176 28H193.176C193.309 28.5333 193.376 29.2 193.376 30C193.376 30.7667 193.309 31.4333 193.176 32H195.176C195.309 32.5333 195.376 33.2 195.376 34C195.376 34.7667 195.309 35.4333 195.176 36H201.176C201.042 35.4333 200.976 34.7667 200.976 34C200.976 33.2 201.042 32.5333 201.176 32H205.176ZM225.395 26C225.395 26.7667 225.329 27.4333 225.195 28C225.329 28.5333 225.395 29.2 225.395 30C225.395 30.7667 225.329 31.4333 225.195 32H214.695C214.829 32.5333 214.895 33.2 214.895 34C214.895 34.7667 214.829 35.4333 214.695 36H223.195C223.329 36.5333 223.395 37.2 223.395 38C223.395 38.7667 223.329 39.4333 223.195 40H213.195C213.062 39.4333 212.995 38.7667 212.995 38C212.995 37.2 213.062 36.5333 213.195 36H210.695C210.562 35.4333 210.495 34.7667 210.495 34C210.495 33.2 210.562 32.5333 210.695 32H209.195C209.062 31.4333 208.995 30.7667 208.995 30C208.995 29.2 209.062 28.5333 209.195 28H210.695C210.562 27.4333 210.495 26.7667 210.495 26C210.495 25.2 210.562 24.5333 210.695 24H213.195C213.062 23.4333 212.995 22.7667 212.995 22C212.995 21.2 213.062 20.5333 213.195 20H223.195C223.329 20.5333 223.395 21.2 223.395 22C223.395 22.7667 223.329 23.4333 223.195 24H225.195C225.329 24.5333 225.395 25.2 225.395 26ZM221.195 28C221.062 27.4333 220.995 26.7667 220.995 26C220.995 25.2 221.062 24.5333 221.195 24H214.695C214.829 24.5333 214.895 25.2 214.895 26C214.895 26.7667 214.829 27.4333 214.695 28H221.195Z"
            fill="white" fill-opacity="0.6"/>
    <path
            d="M25 16L20.1329 14.8548L19.8551 16.0357L20.1493 17.2127L25 16ZM25 20L20.1329 18.8548L19.8551 20.0357L20.1493 21.2127L25 20ZM25 24L20.1329 22.8548L19.8551 24.0357L20.1493 25.2127L25 24ZM25 28L20.1329 26.8548L19.8551 28.0357L20.1493 29.2127L25 28ZM25 32L20.1329 30.8548L19.8551 32.0357L20.1493 33.2127L25 32ZM25 36L20.1329 34.8548L19.8551 36.0357L20.1493 37.2127L25 36ZM25 40V45H28.9601L29.8671 41.1452L25 40ZM21 40L16.1329 41.1452L17.0399 45H21V40ZM21 36L25.8507 37.2127L26.1449 36.0357L25.8671 34.8548L21 36ZM21 32L25.8507 33.2127L26.1449 32.0357L25.8671 30.8548L21 32ZM21 28L25.8507 29.2127L26.1449 28.0357L25.8671 26.8548L21 28ZM21 24L25.8507 25.2127L26.1449 24.0357L25.8671 22.8548L21 24ZM21 20L25.8507 21.2127L27.4039 15H21V20ZM19.5 20V15H13.0961L14.6493 21.2127L19.5 20ZM19.5 24L14.6329 22.8548L14.355 24.0357L14.6493 25.2127L19.5 24ZM19.5 28V33H23.4601L24.3671 29.1452L19.5 28ZM18.5 28V23H12.0961L13.6493 29.2127L18.5 28ZM18.5 32L13.6329 30.8548L13.355 32.0357L13.6493 33.2127L18.5 32ZM18.5 36V41H22.4601L23.3671 37.1452L18.5 36ZM15.5 36L10.6329 37.1452L11.5399 41H15.5V36ZM15.5 32L20.3507 33.2127L20.6449 32.0357L20.3671 30.8548L15.5 32ZM15.5 28L20.3507 29.2127L21.9039 23H15.5V28ZM14.5 28L9.63291 29.1452L10.5399 33H14.5V28ZM14.5 24L19.3507 25.2127L19.6449 24.0357L19.3671 22.8548L14.5 24ZM14.5 20L19.3507 21.2127L20.9039 15H14.5V20ZM13 20V15H6.59612L8.14929 21.2127L13 20ZM13 24L8.13291 22.8548L7.85505 24.0357L8.14929 25.2127L13 24ZM13 28L8.13291 26.8548L7.85505 28.0357L8.14929 29.2127L13 28ZM13 32L8.13291 30.8548L7.85505 32.0357L8.14929 33.2127L13 32ZM13 36L8.13291 34.8548L7.85505 36.0357L8.14929 37.2127L13 36ZM13 40V45H16.9601L17.8671 41.1452L13 40ZM9 40L4.13291 41.1452L5.03993 45H9V40ZM9 36L13.8507 37.2127L14.145 36.0357L13.8671 34.8548L9 36ZM9 32L13.8507 33.2127L14.145 32.0357L13.8671 30.8548L9 32ZM9 28L13.8507 29.2127L14.145 28.0357L13.8671 26.8548L9 28ZM9 24L13.8507 25.2127L14.145 24.0357L13.8671 22.8548L9 24ZM9 20L13.8507 21.2127L14.145 20.0357L13.8671 18.8548L9 20ZM9 16L13.8507 17.2127L14.145 16.0357L13.8671 14.8548L9 16ZM9 12V7H5.09612L4.14929 10.7873L9 12ZM14 12L18.8507 10.7873L17.9039 7H14V12ZM14 16L9.13291 14.8548L7.68698 21H14V16ZM15.5 16L20.3507 14.7873L19.4039 11H15.5V16ZM15.5 20L10.6329 18.8548L9.18698 25H15.5V20ZM16.25 20L21.1007 18.7873L20.1539 15H16.25V20ZM16.25 24L11.3829 22.8548L9.93698 29H16.25V24ZM17.75 24V29H24.063L22.6171 22.8548L17.75 24ZM17.75 20V15H13.8461L12.8993 18.7873L17.75 20ZM18.5 20V25H24.813L23.3671 18.8548L18.5 20ZM18.5 16V11H14.5961L13.6493 14.7873L18.5 16ZM20 16V21H26.313L24.8671 14.8548L20 16ZM20 12V7H16.0961L15.1493 10.7873L20 12ZM25 12L29.8507 10.7873L28.9039 7H25V12ZM20.1493 17.2127C20.1461 17.2001 20.1606 17.2552 20.1748 17.3975C20.1888 17.5375 20.2 17.7354 20.2 18H30.2C30.2 16.9587 30.1169 15.8522 29.8507 14.7873L20.1493 17.2127ZM20.2 18C20.2 18.4949 20.1552 18.7601 20.1329 18.8548L29.8671 21.1452C30.1115 20.1066 30.2 19.0384 30.2 18H20.2ZM20.1493 21.2127C20.1461 21.2001 20.1606 21.2552 20.1748 21.3975C20.1888 21.5375 20.2 21.7354 20.2 22H30.2C30.2 20.9587 30.1169 19.8522 29.8507 18.7873L20.1493 21.2127ZM20.2 22C20.2 22.4949 20.1552 22.7601 20.1329 22.8548L29.8671 25.1452C30.1115 24.1066 30.2 23.0384 30.2 22H20.2ZM20.1493 25.2127C20.1461 25.2001 20.1606 25.2552 20.1748 25.3975C20.1888 25.5375 20.2 25.7354 20.2 26H30.2C30.2 24.9587 30.1169 23.8522 29.8507 22.7873L20.1493 25.2127ZM20.2 26C20.2 26.4949 20.1552 26.7601 20.1329 26.8548L29.8671 29.1452C30.1115 28.1066 30.2 27.0384 30.2 26H20.2ZM20.1493 29.2127C20.1461 29.2001 20.1606 29.2552 20.1748 29.3975C20.1888 29.5375 20.2 29.7354 20.2 30H30.2C30.2 28.9587 30.1169 27.8522 29.8507 26.7873L20.1493 29.2127ZM20.2 30C20.2 30.4949 20.1552 30.7601 20.1329 30.8548L29.8671 33.1452C30.1115 32.1066 30.2 31.0384 30.2 30H20.2ZM20.1493 33.2127C20.1461 33.2001 20.1606 33.2552 20.1748 33.3975C20.1888 33.5375 20.2 33.7354 20.2 34H30.2C30.2 32.9587 30.1169 31.8522 29.8507 30.7873L20.1493 33.2127ZM20.2 34C20.2 34.4949 20.1552 34.7601 20.1329 34.8548L29.8671 37.1452C30.1115 36.1066 30.2 35.0384 30.2 34H20.2ZM20.1493 37.2127C20.1461 37.2001 20.1606 37.2552 20.1748 37.3975C20.1888 37.5375 20.2 37.7354 20.2 38H30.2C30.2 36.9587 30.1169 35.8522 29.8507 34.7873L20.1493 37.2127ZM20.2 38C20.2 38.4949 20.1552 38.7601 20.1329 38.8548L29.8671 41.1452C30.1115 40.1066 30.2 39.0384 30.2 38H20.2ZM25 35H21V45H25V35ZM25.8671 38.8548C25.8448 38.7601 25.8 38.4949 25.8 38H15.8C15.8 39.0384 15.8885 40.1066 16.1329 41.1452L25.8671 38.8548ZM25.8 38C25.8 37.7354 25.8112 37.5375 25.8252 37.3975C25.8394 37.2552 25.8539 37.2001 25.8507 37.2127L16.1493 34.7873C15.8831 35.8522 15.8 36.9587 15.8 38H25.8ZM25.8671 34.8548C25.8448 34.7601 25.8 34.4949 25.8 34H15.8C15.8 35.0384 15.8885 36.1066 16.1329 37.1452L25.8671 34.8548ZM25.8 34C25.8 33.7354 25.8112 33.5375 25.8252 33.3975C25.8394 33.2552 25.8539 33.2001 25.8507 33.2127L16.1493 30.7873C15.8831 31.8522 15.8 32.9587 15.8 34H25.8ZM25.8671 30.8548C25.8448 30.7601 25.8 30.4949 25.8 30H15.8C15.8 31.0384 15.8885 32.1066 16.1329 33.1452L25.8671 30.8548ZM25.8 30C25.8 29.7354 25.8112 29.5375 25.8252 29.3975C25.8394 29.2552 25.8539 29.2001 25.8507 29.2127L16.1493 26.7873C15.8831 27.8522 15.8 28.9587 15.8 30H25.8ZM25.8671 26.8548C25.8448 26.7601 25.8 26.4949 25.8 26H15.8C15.8 27.0384 15.8885 28.1066 16.1329 29.1452L25.8671 26.8548ZM25.8 26C25.8 25.7354 25.8112 25.5375 25.8252 25.3975C25.8394 25.2552 25.8539 25.2 25.8507 25.2127L16.1493 22.7873C15.8831 23.8522 15.8 24.9587 15.8 26H25.8ZM25.8671 22.8548C25.8448 22.7601 25.8 22.4949 25.8 22H15.8C15.8 23.0384 15.8885 24.1066 16.1329 25.1452L25.8671 22.8548ZM25.8 22C25.8 21.7354 25.8112 21.5375 25.8252 21.3975C25.8394 21.2552 25.8539 21.2001 25.8507 21.2127L16.1493 18.7873C15.8831 19.8522 15.8 20.9587 15.8 22H25.8ZM21 15H19.5V25H21V15ZM14.6493 21.2127C14.6461 21.2001 14.6606 21.2552 14.6748 21.3975C14.6888 21.5375 14.7 21.7354 14.7 22H24.7C24.7 20.9587 24.6169 19.8522 24.3507 18.7873L14.6493 21.2127ZM14.7 22C14.7 22.4949 14.6552 22.7601 14.6329 22.8548L24.3671 25.1452C24.6115 24.1066 24.7 23.0384 24.7 22H14.7ZM14.6493 25.2127C14.6461 25.2001 14.6606 25.2552 14.6748 25.3975C14.6888 25.5375 14.7 25.7354 14.7 26H24.7C24.7 24.9587 24.6169 23.8522 24.3507 22.7873L14.6493 25.2127ZM14.7 26C14.7 26.4949 14.6552 26.7601 14.6329 26.8548L24.3671 29.1452C24.6115 28.1066 24.7 27.0384 24.7 26H14.7ZM19.5 23H18.5V33H19.5V23ZM13.6493 29.2127C13.6461 29.2001 13.6606 29.2552 13.6748 29.3975C13.6888 29.5375 13.7 29.7354 13.7 30H23.7C23.7 28.9587 23.6169 27.8522 23.3507 26.7873L13.6493 29.2127ZM13.7 30C13.7 30.4949 13.6552 30.7601 13.6329 30.8548L23.3671 33.1452C23.6115 32.1066 23.7 31.0384 23.7 30H13.7ZM13.6493 33.2127C13.6461 33.2001 13.6606 33.2552 13.6748 33.3975C13.6888 33.5375 13.7 33.7354 13.7 34H23.7C23.7 32.9587 23.6169 31.8522 23.3507 30.7873L13.6493 33.2127ZM13.7 34C13.7 34.4949 13.6552 34.7601 13.6329 34.8548L23.3671 37.1452C23.6115 36.1066 23.7 35.0384 23.7 34H13.7ZM18.5 31H15.5V41H18.5V31ZM20.3671 34.8548C20.3448 34.7601 20.3 34.4949 20.3 34H10.3C10.3 35.0384 10.3885 36.1066 10.6329 37.1452L20.3671 34.8548ZM20.3 34C20.3 33.7354 20.3112 33.5375 20.3252 33.3975C20.3394 33.2552 20.3539 33.2001 20.3507 33.2127L10.6493 30.7873C10.3831 31.8522 10.3 32.9587 10.3 34H20.3ZM20.3671 30.8548C20.3448 30.7601 20.3 30.4949 20.3 30H10.3C10.3 31.0384 10.3885 32.1066 10.6329 33.1452L20.3671 30.8548ZM20.3 30C20.3 29.7354 20.3112 29.5375 20.3252 29.3975C20.3394 29.2552 20.3539 29.2001 20.3507 29.2127L10.6493 26.7873C10.3831 27.8522 10.3 28.9587 10.3 30H20.3ZM15.5 23H14.5V33H15.5V23ZM19.3671 26.8548C19.3448 26.7601 19.3 26.4949 19.3 26H9.3C9.3 27.0384 9.38853 28.1066 9.63291 29.1452L19.3671 26.8548ZM19.3 26C19.3 25.7354 19.3112 25.5375 19.3252 25.3975C19.3394 25.2552 19.3539 25.2001 19.3507 25.2127L9.64929 22.7873C9.38308 23.8522 9.3 24.9587 9.3 26H19.3ZM19.3671 22.8548C19.3448 22.7601 19.3 22.4949 19.3 22H9.3C9.3 23.0384 9.38853 24.1066 9.63291 25.1452L19.3671 22.8548ZM19.3 22C19.3 21.7354 19.3112 21.5375 19.3252 21.3975C19.3394 21.2552 19.3539 21.2001 19.3507 21.2127L9.64929 18.7873C9.38308 19.8522 9.3 20.9587 9.3 22H19.3ZM14.5 15H13V25H14.5V15ZM8.14929 21.2127C8.14613 21.2001 8.16058 21.2552 8.17481 21.3975C8.18881 21.5375 8.2 21.7354 8.2 22H18.2C18.2 20.9587 18.1169 19.8522 17.8507 18.7873L8.14929 21.2127ZM8.2 22C8.2 22.4949 8.1552 22.7601 8.13291 22.8548L17.8671 25.1452C18.1115 24.1066 18.2 23.0384 18.2 22H8.2ZM8.14929 25.2127C8.14613 25.2001 8.16058 25.2552 8.17481 25.3975C8.18881 25.5375 8.2 25.7354 8.2 26H18.2C18.2 24.9587 18.1169 23.8522 17.8507 22.7873L8.14929 25.2127ZM8.2 26C8.2 26.4949 8.1552 26.7601 8.13291 26.8548L17.8671 29.1452C18.1115 28.1066 18.2 27.0384 18.2 26H8.2ZM8.14929 29.2127C8.14613 29.2001 8.16058 29.2552 8.17481 29.3975C8.18881 29.5375 8.2 29.7354 8.2 30H18.2C18.2 28.9587 18.1169 27.8522 17.8507 26.7873L8.14929 29.2127ZM8.2 30C8.2 30.4949 8.1552 30.7601 8.13291 30.8548L17.8671 33.1452C18.1115 32.1066 18.2 31.0384 18.2 30H8.2ZM8.14929 33.2127C8.14613 33.2001 8.16058 33.2552 8.17481 33.3975C8.18881 33.5375 8.2 33.7354 8.2 34H18.2C18.2 32.9587 18.1169 31.8522 17.8507 30.7873L8.14929 33.2127ZM8.2 34C8.2 34.4949 8.1552 34.7601 8.13291 34.8548L17.8671 37.1452C18.1115 36.1066 18.2 35.0384 18.2 34H8.2ZM8.14929 37.2127C8.14613 37.2001 8.16058 37.2552 8.17481 37.3975C8.18881 37.5375 8.2 37.7354 8.2 38H18.2C18.2 36.9587 18.1169 35.8522 17.8507 34.7873L8.14929 37.2127ZM8.2 38C8.2 38.4949 8.1552 38.7601 8.13291 38.8548L17.8671 41.1452C18.1115 40.1066 18.2 39.0384 18.2 38H8.2ZM13 35H9V45H13V35ZM13.8671 38.8548C13.8448 38.7601 13.8 38.4949 13.8 38H3.8C3.8 39.0384 3.88853 40.1066 4.13291 41.1452L13.8671 38.8548ZM13.8 38C13.8 37.7354 13.8112 37.5375 13.8252 37.3975C13.8394 37.2552 13.8539 37.2001 13.8507 37.2127L4.14929 34.7873C3.88307 35.8522 3.8 36.9587 3.8 38H13.8ZM13.8671 34.8548C13.8448 34.7601 13.8 34.4949 13.8 34H3.8C3.8 35.0384 3.88853 36.1066 4.13291 37.1452L13.8671 34.8548ZM13.8 34C13.8 33.7354 13.8112 33.5375 13.8252 33.3975C13.8394 33.2552 13.8539 33.2001 13.8507 33.2127L4.14929 30.7873C3.88307 31.8522 3.8 32.9587 3.8 34H13.8ZM13.8671 30.8548C13.8448 30.7601 13.8 30.4949 13.8 30H3.8C3.8 31.0384 3.88853 32.1066 4.13291 33.1452L13.8671 30.8548ZM13.8 30C13.8 29.7354 13.8112 29.5375 13.8252 29.3975C13.8394 29.2552 13.8539 29.2001 13.8507 29.2127L4.14929 26.7873C3.88307 27.8522 3.8 28.9587 3.8 30H13.8ZM13.8671 26.8548C13.8448 26.7601 13.8 26.4949 13.8 26H3.8C3.8 27.0384 3.88853 28.1066 4.13291 29.1452L13.8671 26.8548ZM13.8 26C13.8 25.7354 13.8112 25.5375 13.8252 25.3975C13.8394 25.2552 13.8539 25.2001 13.8507 25.2127L4.14929 22.7873C3.88307 23.8522 3.8 24.9587 3.8 26H13.8ZM13.8671 22.8548C13.8448 22.7601 13.8 22.4949 13.8 22H3.8C3.8 23.0384 3.88853 24.1066 4.13291 25.1452L13.8671 22.8548ZM13.8 22C13.8 21.7354 13.8112 21.5375 13.8252 21.3975C13.8394 21.2552 13.8539 21.2001 13.8507 21.2127L4.14929 18.7873C3.88308 19.8522 3.8 20.9587 3.8 22H13.8ZM13.8671 18.8548C13.8448 18.7601 13.8 18.4949 13.8 18H3.8C3.8 19.0384 3.88853 20.1066 4.13291 21.1452L13.8671 18.8548ZM13.8 18C13.8 17.7354 13.8112 17.5375 13.8252 17.3975C13.8394 17.2552 13.8539 17.2001 13.8507 17.2127L4.14929 14.7873C3.88308 15.8522 3.8 16.9587 3.8 18H13.8ZM13.8671 14.8548C13.8448 14.7601 13.8 14.4949 13.8 14H3.8C3.8 15.0384 3.88853 16.1066 4.13291 17.1452L13.8671 14.8548ZM13.8 14C13.8 13.7354 13.8112 13.5375 13.8252 13.3975C13.8394 13.2552 13.8539 13.2001 13.8507 13.2127L4.14929 10.7873C3.88307 11.8522 3.8 12.9587 3.8 14H13.8ZM9 17H14V7H9V17ZM9.14929 13.2127C9.14613 13.2001 9.16058 13.2552 9.17481 13.3975C9.18882 13.5375 9.2 13.7354 9.2 14H19.2C19.2 12.9587 19.1169 11.8522 18.8507 10.7873L9.14929 13.2127ZM9.2 14C9.2 14.4949 9.1552 14.7601 9.13291 14.8548L18.8671 17.1452C19.1115 16.1066 19.2 15.0384 19.2 14H9.2ZM14 21H15.5V11H14V21ZM10.6493 17.2127C10.6461 17.2001 10.6606 17.2552 10.6748 17.3975C10.6888 17.5375 10.7 17.7354 10.7 18H20.7C20.7 16.9587 20.6169 15.8522 20.3507 14.7873L10.6493 17.2127ZM10.7 18C10.7 18.4949 10.6552 18.7601 10.6329 18.8548L20.3671 21.1452C20.6115 20.1066 20.7 19.0384 20.7 18H10.7ZM15.5 25H16.25V15H15.5V25ZM11.3993 21.2127C11.3961 21.2001 11.4106 21.2552 11.4248 21.3975C11.4388 21.5375 11.45 21.7354 11.45 22H21.45C21.45 20.9587 21.3669 19.8522 21.1007 18.7873L11.3993 21.2127ZM11.45 22C11.45 22.4949 11.4052 22.7601 11.3829 22.8548L21.1171 25.1452C21.3615 24.1066 21.45 23.0384 21.45 22H11.45ZM16.25 29H17.75V19H16.25V29ZM22.6171 22.8548C22.5948 22.7601 22.55 22.4949 22.55 22H12.55C12.55 23.0384 12.6385 24.1066 12.8829 25.1452L22.6171 22.8548ZM22.55 22C22.55 21.7354 22.5612 21.5375 22.5752 21.3975C22.5894 21.2552 22.6039 21.2001 22.6007 21.2127L12.8993 18.7873C12.6331 19.8522 12.55 20.9587 12.55 22H22.55ZM17.75 25H18.5V15H17.75V25ZM23.3671 18.8548C23.3448 18.7601 23.3 18.4949 23.3 18H13.3C13.3 19.0384 13.3885 20.1066 13.6329 21.1452L23.3671 18.8548ZM23.3 18C23.3 17.7354 23.3112 17.5375 23.3252 17.3975C23.3394 17.2552 23.3539 17.2001 23.3507 17.2127L13.6493 14.7873C13.3831 15.8522 13.3 16.9587 13.3 18H23.3ZM18.5 21H20V11H18.5V21ZM24.8671 14.8548C24.8448 14.7601 24.8 14.4949 24.8 14H14.8C14.8 15.0384 14.8885 16.1066 15.1329 17.1452L24.8671 14.8548ZM24.8 14C24.8 13.7354 24.8112 13.5375 24.8252 13.3975C24.8394 13.2552 24.8539 13.2001 24.8507 13.2127L15.1493 10.7873C14.8831 11.8522 14.8 12.9587 14.8 14H24.8ZM20 17H25V7H20V17ZM20.1493 13.2127C20.1461 13.2001 20.1606 13.2552 20.1748 13.3975C20.1888 13.5375 20.2 13.7354 20.2 14H30.2C30.2 12.9587 30.1169 11.8522 29.8507 10.7873L20.1493 13.2127ZM20.2 14C20.2 14.4949 20.1552 14.7601 20.1329 14.8548L29.8671 17.1452C30.1115 16.1066 30.2 15.0384 30.2 14H20.2ZM45.0195 36L49.8702 34.7873L48.9234 31H45.0195V36ZM45.0195 40V45H48.9796L49.8866 41.1452L45.0195 40ZM41.0195 40L36.1524 41.1452L37.0595 45H41.0195V40ZM41.0195 36L45.8702 37.2127L47.4234 31H41.0195V36ZM39.0195 36L34.1524 37.1452L35.0595 41H39.0195V36ZM39.0195 32L43.8702 33.2127L45.4234 27H39.0195V32ZM33.0195 32V27H26.6157L28.1688 33.2127L33.0195 32ZM33.0195 36L28.1524 34.8548L26.7065 41H33.0195V36ZM39.0195 36L43.8702 34.7873L42.9234 31H39.0195V36ZM39.0195 40V45H42.9796L43.8866 41.1452L39.0195 40ZM31.0195 40L26.1524 41.1452L27.0595 45H31.0195V40ZM31.0195 36L35.8702 37.2127L37.4234 31H31.0195V36ZM29.0195 36L24.1524 37.1452L25.0595 41H29.0195V36ZM29.0195 32V27H25.1157L24.1688 30.7873L29.0195 32ZM31.0195 32V37H37.3325L35.8866 30.8548L31.0195 32ZM31.0195 28V23H27.1157L26.1688 26.7873L31.0195 28ZM39.0195 28V33H45.3325L43.8866 26.8548L39.0195 28ZM39.0195 24L43.8702 25.2127L45.4234 19H39.0195V24ZM32.0195 24L27.1524 25.1452L28.0595 29H32.0195V24ZM32.0195 20V15H28.1157L27.1688 18.7873L32.0195 20ZM41.0195 20L45.8702 18.7873L44.9234 15H41.0195V20ZM41.0195 24L36.1524 22.8548L34.7065 29H41.0195V24ZM43.0195 24L47.8702 22.7873L46.9234 19H43.0195V24ZM43.0195 28L38.1524 26.8548L37.8746 28.0357L38.1688 29.2127L43.0195 28ZM43.0195 32L38.1524 30.8548L37.8746 32.0357L38.1688 33.2127L43.0195 32ZM43.0195 36L38.1524 34.8548L36.7065 41H43.0195V36ZM40.1688 37.2127C40.1657 37.2001 40.1801 37.2552 40.1943 37.3975C40.2083 37.5375 40.2195 37.7354 40.2195 38H50.2195C50.2195 36.9587 50.1365 35.8522 49.8702 34.7873L40.1688 37.2127ZM40.2195 38C40.2195 38.4949 40.1747 38.7601 40.1524 38.8548L49.8866 41.1452C50.131 40.1066 50.2195 39.0384 50.2195 38H40.2195ZM45.0195 35H41.0195V45H45.0195V35ZM45.8866 38.8548C45.8643 38.7601 45.8195 38.4949 45.8195 38H35.8195C35.8195 39.0384 35.9081 40.1066 36.1524 41.1452L45.8866 38.8548ZM45.8195 38C45.8195 37.7354 45.8307 37.5375 45.8447 37.3975C45.859 37.2552 45.8734 37.2001 45.8702 37.2127L36.1688 34.7873C35.9026 35.8522 35.8195 36.9587 35.8195 38H45.8195ZM41.0195 31H39.0195V41H41.0195V31ZM43.8866 34.8548C43.8643 34.7601 43.8195 34.4949 43.8195 34H33.8195C33.8195 35.0384 33.9081 36.1066 34.1524 37.1452L43.8866 34.8548ZM43.8195 34C43.8195 33.7354 43.8307 33.5375 43.8447 33.3975C43.859 33.2552 43.8734 33.2001 43.8702 33.2127L34.1688 30.7873C33.9026 31.8522 33.8195 32.9587 33.8195 34H43.8195ZM39.0195 27H33.0195V37H39.0195V27ZM28.1688 33.2127C28.1657 33.2001 28.1801 33.2552 28.1943 33.3975C28.2083 33.5375 28.2195 33.7354 28.2195 34H38.2195C38.2195 32.9587 38.1365 31.8522 37.8702 30.7873L28.1688 33.2127ZM28.2195 34C28.2195 34.4949 28.1747 34.7601 28.1524 34.8548L37.8866 37.1452C38.131 36.1066 38.2195 35.0384 38.2195 34H28.2195ZM33.0195 41H39.0195V31H33.0195V41ZM34.1688 37.2127C34.1657 37.2001 34.1801 37.2552 34.1943 37.3975C34.2083 37.5375 34.2195 37.7354 34.2195 38H44.2195C44.2195 36.9587 44.1365 35.8522 43.8702 34.7873L34.1688 37.2127ZM34.2195 38C34.2195 38.4949 34.1747 38.7601 34.1524 38.8548L43.8866 41.1452C44.131 40.1066 44.2195 39.0384 44.2195 38H34.2195ZM39.0195 35H31.0195V45H39.0195V35ZM35.8866 38.8548C35.8643 38.7601 35.8195 38.4949 35.8195 38H25.8195C25.8195 39.0384 25.9081 40.1066 26.1524 41.1452L35.8866 38.8548ZM35.8195 38C35.8195 37.7354 35.8307 37.5375 35.8447 37.3975C35.8589 37.2552 35.8734 37.2001 35.8702 37.2127L26.1688 34.7873C25.9026 35.8522 25.8195 36.9587 25.8195 38H35.8195ZM31.0195 31H29.0195V41H31.0195V31ZM33.8866 34.8548C33.8643 34.7601 33.8195 34.4949 33.8195 34H23.8195C23.8195 35.0384 23.9081 36.1066 24.1524 37.1452L33.8866 34.8548ZM33.8195 34C33.8195 33.7354 33.8307 33.5375 33.8447 33.3975C33.8589 33.2552 33.8734 33.2001 33.8702 33.2127L24.1688 30.7873C23.9026 31.8522 23.8195 32.9587 23.8195 34H33.8195ZM29.0195 37H31.0195V27H29.0195V37ZM35.8866 30.8548C35.8643 30.7601 35.8195 30.4949 35.8195 30H25.8195C25.8195 31.0384 25.9081 32.1066 26.1524 33.1452L35.8866 30.8548ZM35.8195 30C35.8195 29.7354 35.8307 29.5375 35.8447 29.3975C35.8589 29.2552 35.8734 29.2001 35.8702 29.2127L26.1688 26.7873C25.9026 27.8522 25.8195 28.9587 25.8195 30H35.8195ZM31.0195 33H39.0195V23H31.0195V33ZM43.8866 26.8548C43.8643 26.7601 43.8195 26.4949 43.8195 26H33.8195C33.8195 27.0384 33.9081 28.1066 34.1524 29.1452L43.8866 26.8548ZM43.8195 26C43.8195 25.7354 43.8307 25.5375 43.8447 25.3975C43.859 25.2552 43.8734 25.2001 43.8702 25.2127L34.1688 22.7873C33.9026 23.8522 33.8195 24.9587 33.8195 26H43.8195ZM39.0195 19H32.0195V29H39.0195V19ZM36.8866 22.8548C36.8643 22.7601 36.8195 22.4949 36.8195 22H26.8195C26.8195 23.0384 26.9081 24.1066 27.1524 25.1452L36.8866 22.8548ZM36.8195 22C36.8195 21.7354 36.8307 21.5375 36.8447 21.3975C36.8589 21.2552 36.8734 21.2001 36.8702 21.2127L27.1688 18.7873C26.9026 19.8522 26.8195 20.9587 26.8195 22H36.8195ZM32.0195 25H41.0195V15H32.0195V25ZM36.1688 21.2127C36.1657 21.2001 36.1801 21.2552 36.1943 21.3975C36.2083 21.5375 36.2195 21.7354 36.2195 22H46.2195C46.2195 20.9587 46.1365 19.8522 45.8702 18.7873L36.1688 21.2127ZM36.2195 22C36.2195 22.4949 36.1747 22.7601 36.1524 22.8548L45.8866 25.1452C46.131 24.1066 46.2195 23.0384 46.2195 22H36.2195ZM41.0195 29H43.0195V19H41.0195V29ZM38.1688 25.2127C38.1657 25.2 38.1801 25.2552 38.1943 25.3975C38.2083 25.5375 38.2195 25.7354 38.2195 26H48.2195C48.2195 24.9587 48.1365 23.8522 47.8702 22.7873L38.1688 25.2127ZM38.2195 26C38.2195 26.4949 38.1747 26.7601 38.1524 26.8548L47.8866 29.1452C48.131 28.1066 48.2195 27.0384 48.2195 26H38.2195ZM38.1688 29.2127C38.1657 29.2001 38.1801 29.2552 38.1943 29.3975C38.2083 29.5375 38.2195 29.7354 38.2195 30H48.2195C48.2195 28.9587 48.1365 27.8522 47.8702 26.7873L38.1688 29.2127ZM38.2195 30C38.2195 30.4949 38.1747 30.7601 38.1524 30.8548L47.8866 33.1452C48.131 32.1066 48.2195 31.0384 48.2195 30H38.2195ZM38.1688 33.2127C38.1657 33.2001 38.1801 33.2552 38.1943 33.3975C38.2083 33.5375 38.2195 33.7354 38.2195 34H48.2195C48.2195 32.9587 48.1365 31.8522 47.8702 30.7873L38.1688 33.2127ZM38.2195 34C38.2195 34.4949 38.1747 34.7601 38.1524 34.8548L47.8866 37.1452C48.131 36.1066 48.2195 35.0384 48.2195 34H38.2195ZM43.0195 41H45.0195V31H43.0195V41ZM65.0391 24L69.8898 22.7873L68.9429 19H65.0391V24ZM65.0391 28V33H68.9991L69.9061 29.1452L65.0391 28ZM61.0391 28L56.172 29.1452L57.079 33H61.0391V28ZM61.0391 24L65.8898 25.2127L67.4429 19H61.0391V24ZM57.5391 24V19H51.1352L52.6884 25.2127L57.5391 24ZM57.5391 28V33H61.4991L62.4061 29.1452L57.5391 28ZM56.0391 28V23H49.6352L51.1884 29.2127L56.0391 28ZM56.0391 32L51.172 30.8548L50.8941 32.0357L51.1884 33.2127L56.0391 32ZM56.0391 36L51.172 34.8548L49.726 41H56.0391V36ZM59.0391 36L63.8898 34.7873L62.9429 31H59.0391V36ZM59.0391 40V45H62.9991L63.9061 41.1452L59.0391 40ZM49.0391 40L44.172 41.1452L45.079 45H49.0391V40ZM49.0391 36V31H45.1352L44.1884 34.7873L49.0391 36ZM52.0391 36V41H58.3521L56.9061 34.8548L52.0391 36ZM52.0391 32L56.8898 33.2127L57.184 32.0357L56.9061 30.8548L52.0391 32ZM52.0391 28L56.8898 29.2127L57.184 28.0357L56.9061 26.8548L52.0391 28ZM52.0391 24L56.8898 25.2127L58.4429 19H52.0391V24ZM49.0391 24L44.172 25.1452L45.079 29H49.0391V24ZM49.0391 20V15H45.1352L44.1884 18.7873L49.0391 20ZM54.0391 20L58.8898 18.7873L57.9429 15H54.0391V20ZM54.0391 24L49.172 22.8548L47.726 29H54.0391V24ZM56.0391 24V29H62.3521L60.9062 22.8548L56.0391 24ZM56.0391 20V15H52.1352L51.1884 18.7873L56.0391 20ZM63.5391 20L68.3898 18.7873L67.4429 15H63.5391V20ZM63.5391 24L58.672 22.8548L57.226 29H63.5391V24ZM60.1884 25.2127C60.1852 25.2001 60.1996 25.2552 60.2139 25.3975C60.2279 25.5375 60.2391 25.7354 60.2391 26H70.2391C70.2391 24.9587 70.156 23.8522 69.8898 22.7873L60.1884 25.2127ZM60.2391 26C60.2391 26.4949 60.1943 26.7601 60.172 26.8548L69.9061 29.1452C70.1505 28.1066 70.2391 27.0384 70.2391 26H60.2391ZM65.0391 23H61.0391V33H65.0391V23ZM65.9062 26.8548C65.8839 26.7601 65.8391 26.4949 65.8391 26H55.8391C55.8391 27.0384 55.9276 28.1066 56.172 29.1452L65.9062 26.8548ZM65.8391 26C65.8391 25.7354 65.8503 25.5375 65.8643 25.3975C65.8785 25.2552 65.8929 25.2 65.8898 25.2127L56.1883 22.7873C55.9221 23.8522 55.8391 24.9587 55.8391 26H65.8391ZM61.0391 19H57.5391V29H61.0391V19ZM52.6884 25.2127C52.6852 25.2001 52.6996 25.2552 52.7139 25.3975C52.7279 25.5375 52.7391 25.7354 52.7391 26H62.7391C62.7391 24.9587 62.656 23.8522 62.3898 22.7873L52.6884 25.2127ZM52.7391 26C52.7391 26.4949 52.6943 26.7601 52.672 26.8548L62.4061 29.1452C62.6505 28.1066 62.7391 27.0384 62.7391 26H52.7391ZM57.5391 23H56.0391V33H57.5391V23ZM51.1884 29.2127C51.1852 29.2001 51.1996 29.2552 51.2139 29.3975C51.2279 29.5375 51.2391 29.7354 51.2391 30H61.2391C61.2391 28.9587 61.156 27.8522 60.8898 26.7873L51.1884 29.2127ZM51.2391 30C51.2391 30.4949 51.1943 30.7601 51.172 30.8548L60.9061 33.1452C61.1505 32.1066 61.2391 31.0384 61.2391 30H51.2391ZM51.1884 33.2127C51.1852 33.2001 51.1996 33.2552 51.2139 33.3975C51.2279 33.5375 51.2391 33.7354 51.2391 34H61.2391C61.2391 32.9587 61.156 31.8522 60.8898 30.7873L51.1884 33.2127ZM51.2391 34C51.2391 34.4949 51.1943 34.7601 51.172 34.8548L60.9061 37.1452C61.1505 36.1066 61.2391 35.0384 61.2391 34H51.2391ZM56.0391 41H59.0391V31H56.0391V41ZM54.1884 37.2127C54.1852 37.2001 54.1996 37.2552 54.2139 37.3975C54.2279 37.5375 54.2391 37.7354 54.2391 38H64.2391C64.2391 36.9587 64.156 35.8522 63.8898 34.7873L54.1884 37.2127ZM54.2391 38C54.2391 38.4949 54.1943 38.7601 54.172 38.8548L63.9061 41.1452C64.1505 40.1066 64.2391 39.0384 64.2391 38H54.2391ZM59.0391 35H49.0391V45H59.0391V35ZM53.9061 38.8548C53.8839 38.7601 53.8391 38.4949 53.8391 38H43.8391C43.8391 39.0384 43.9276 40.1066 44.172 41.1452L53.9061 38.8548ZM53.8391 38C53.8391 37.7354 53.8502 37.5375 53.8643 37.3975C53.8785 37.2552 53.8929 37.2001 53.8898 37.2127L44.1884 34.7873C43.9221 35.8522 43.8391 36.9587 43.8391 38H53.8391ZM49.0391 41H52.0391V31H49.0391V41ZM56.9061 34.8548C56.8839 34.7601 56.8391 34.4949 56.8391 34H46.8391C46.8391 35.0384 46.9276 36.1066 47.172 37.1452L56.9061 34.8548ZM56.8391 34C56.8391 33.7354 56.8502 33.5375 56.8643 33.3975C56.8785 33.2552 56.8929 33.2001 56.8898 33.2127L47.1884 30.7873C46.9221 31.8522 46.8391 32.9587 46.8391 34H56.8391ZM56.9061 30.8548C56.8839 30.7601 56.8391 30.4949 56.8391 30H46.8391C46.8391 31.0384 46.9276 32.1066 47.172 33.1452L56.9061 30.8548ZM56.8391 30C56.8391 29.7354 56.8502 29.5375 56.8643 29.3975C56.8785 29.2552 56.8929 29.2001 56.8898 29.2127L47.1884 26.7873C46.9221 27.8522 46.8391 28.9587 46.8391 30H56.8391ZM56.9061 26.8548C56.8839 26.7601 56.8391 26.4949 56.8391 26H46.8391C46.8391 27.0384 46.9276 28.1066 47.172 29.1452L56.9061 26.8548ZM56.8391 26C56.8391 25.7354 56.8502 25.5375 56.8643 25.3975C56.8785 25.2552 56.8929 25.2001 56.8898 25.2127L47.1884 22.7873C46.9221 23.8522 46.8391 24.9587 46.8391 26H56.8391ZM52.0391 19H49.0391V29H52.0391V19ZM53.9061 22.8548C53.8839 22.7601 53.8391 22.4949 53.8391 22H43.8391C43.8391 23.0384 43.9276 24.1066 44.172 25.1452L53.9061 22.8548ZM53.8391 22C53.8391 21.7354 53.8502 21.5375 53.8643 21.3975C53.8785 21.2552 53.8929 21.2001 53.8898 21.2127L44.1884 18.7873C43.9221 19.8522 43.8391 20.9587 43.8391 22H53.8391ZM49.0391 25H54.0391V15H49.0391V25ZM49.1884 21.2127C49.1852 21.2001 49.1996 21.2552 49.2139 21.3975C49.2279 21.5375 49.2391 21.7354 49.2391 22H59.2391C59.2391 20.9587 59.156 19.8522 58.8898 18.7873L49.1884 21.2127ZM49.2391 22C49.2391 22.4949 49.1943 22.7601 49.172 22.8548L58.9061 25.1452C59.1505 24.1066 59.2391 23.0384 59.2391 22H49.2391ZM54.0391 29H56.0391V19H54.0391V29ZM60.9062 22.8548C60.8839 22.7601 60.8391 22.4949 60.8391 22H50.8391C50.8391 23.0384 50.9276 24.1066 51.172 25.1452L60.9062 22.8548ZM60.8391 22C60.8391 21.7354 60.8503 21.5375 60.8643 21.3975C60.8785 21.2552 60.8929 21.2001 60.8898 21.2127L51.1884 18.7873C50.9221 19.8522 50.8391 20.9587 50.8391 22H60.8391ZM56.0391 25H63.5391V15H56.0391V25ZM58.6884 21.2127C58.6852 21.2001 58.6996 21.2552 58.7139 21.3975C58.7279 21.5375 58.7391 21.7354 58.7391 22H68.7391C68.7391 20.9587 68.656 19.8522 68.3898 18.7873L58.6884 21.2127ZM58.7391 22C58.7391 22.4949 58.6943 22.7601 58.672 22.8548L68.4061 25.1452C68.6505 24.1066 68.7391 23.0384 68.7391 22H58.7391ZM63.5391 29H65.0391V19H63.5391V29ZM85.0586 36L89.9093 34.7873L88.9625 31H85.0586V36ZM85.0586 40V45H89.0187L89.9257 41.1452L85.0586 40ZM78.0586 40L73.1915 41.1452L74.0985 45H78.0586V40ZM78.0586 36L82.9093 37.2127L84.4625 31H78.0586V36ZM76.0586 36L71.1915 37.1452L72.0985 41H76.0586V36ZM76.0586 32L80.9093 33.2127L82.4625 27H76.0586V32ZM73.0586 32V27H66.6547L68.2079 33.2127L73.0586 32ZM73.0586 36L68.1915 34.8548L67.9136 36.0357L68.2079 37.2127L73.0586 36ZM73.0586 40V45H77.0187L77.9257 41.1452L73.0586 40ZM69.0586 40L64.1915 41.1452L65.0985 45H69.0586V40ZM69.0586 36L73.9093 37.2127L74.2035 36.0357L73.9257 34.8548L69.0586 36ZM69.0586 32L73.9093 33.2127L74.2035 32.0357L73.9257 30.8548L69.0586 32ZM69.0586 28L73.9093 29.2127L74.2035 28.0357L73.9257 26.8548L69.0586 28ZM69.0586 24L73.9093 25.2127L74.2035 24.0357L73.9257 22.8548L69.0586 24ZM69.0586 20L73.9093 21.2127L74.2035 20.0357L73.9257 18.8548L69.0586 20ZM69.0586 16L73.9093 17.2127L74.2035 16.0357L73.9257 14.8548L69.0586 16ZM69.0586 12V7H65.1547L64.2079 10.7873L69.0586 12ZM73.0586 12L77.9093 10.7873L76.9625 7H73.0586V12ZM73.0586 16L68.1915 14.8548L67.9136 16.0357L68.2079 17.2127L73.0586 16ZM73.0586 20L68.1915 18.8548L67.9136 20.0357L68.2079 21.2127L73.0586 20ZM73.0586 24L68.1915 22.8548L67.9136 24.0357L68.2079 25.2127L73.0586 24ZM73.0586 28L68.1915 26.8548L66.7456 33H73.0586V28ZM76.0586 28V33H82.3716L80.9257 26.8548L76.0586 28ZM76.0586 24V19H72.1547L71.2079 22.7873L76.0586 24ZM78.0586 24V29H84.3716L82.9257 22.8548L78.0586 24ZM78.0586 20V15H74.1547L73.2079 18.7873L78.0586 20ZM84.0586 20L88.9093 18.7873L87.9625 15H84.0586V20ZM84.0586 24V29H88.0187L88.9257 25.1452L84.0586 24ZM80.0586 24V19H73.6547L75.2079 25.2127L80.0586 24ZM80.0586 28V33H84.0187L84.9257 29.1452L80.0586 28ZM78.0586 28V23H71.6547L73.2079 29.2127L78.0586 28ZM78.0586 32L73.1915 30.8548L71.7456 37H78.0586V32ZM80.0586 32L84.9093 30.7873L83.9625 27H80.0586V32ZM80.0586 36L75.1915 34.8548L73.7456 41H80.0586V36ZM80.2079 37.2127C80.2047 37.2001 80.2192 37.2552 80.2334 37.3975C80.2474 37.5375 80.2586 37.7354 80.2586 38H90.2586C90.2586 36.9587 90.1755 35.8522 89.9093 34.7873L80.2079 37.2127ZM80.2586 38C80.2586 38.4949 80.2138 38.7601 80.1915 38.8548L89.9257 41.1452C90.1701 40.1066 90.2586 39.0384 90.2586 38H80.2586ZM85.0586 35H78.0586V45H85.0586V35ZM82.9257 38.8548C82.9034 38.7601 82.8586 38.4949 82.8586 38H72.8586C72.8586 39.0384 72.9471 40.1066 73.1915 41.1452L82.9257 38.8548ZM82.8586 38C82.8586 37.7354 82.8698 37.5375 82.8838 37.3975C82.898 37.2552 82.9125 37.2001 82.9093 37.2127L73.2079 34.7873C72.9417 35.8522 72.8586 36.9587 72.8586 38H82.8586ZM78.0586 31H76.0586V41H78.0586V31ZM80.9257 34.8548C80.9034 34.7601 80.8586 34.4949 80.8586 34H70.8586C70.8586 35.0384 70.9471 36.1066 71.1915 37.1452L80.9257 34.8548ZM80.8586 34C80.8586 33.7354 80.8698 33.5375 80.8838 33.3975C80.898 33.2552 80.9125 33.2001 80.9093 33.2127L71.2079 30.7873C70.9417 31.8522 70.8586 32.9587 70.8586 34H80.8586ZM76.0586 27H73.0586V37H76.0586V27ZM68.2079 33.2127C68.2047 33.2001 68.2192 33.2552 68.2334 33.3975C68.2474 33.5375 68.2586 33.7354 68.2586 34H78.2586C78.2586 32.9587 78.1755 31.8522 77.9093 30.7873L68.2079 33.2127ZM68.2586 34C68.2586 34.4949 68.2138 34.7601 68.1915 34.8548L77.9257 37.1452C78.1701 36.1066 78.2586 35.0384 78.2586 34H68.2586ZM68.2079 37.2127C68.2047 37.2001 68.2192 37.2552 68.2334 37.3975C68.2474 37.5375 68.2586 37.7354 68.2586 38H78.2586C78.2586 36.9587 78.1755 35.8522 77.9093 34.7873L68.2079 37.2127ZM68.2586 38C68.2586 38.4949 68.2138 38.7601 68.1915 38.8548L77.9257 41.1452C78.1701 40.1066 78.2586 39.0384 78.2586 38H68.2586ZM73.0586 35H69.0586V45H73.0586V35ZM73.9257 38.8548C73.9034 38.7601 73.8586 38.4949 73.8586 38H63.8586C63.8586 39.0384 63.9471 40.1066 64.1915 41.1452L73.9257 38.8548ZM73.8586 38C73.8586 37.7354 73.8698 37.5375 73.8838 37.3975C73.898 37.2552 73.9125 37.2001 73.9093 37.2127L64.2079 34.7873C63.9417 35.8522 63.8586 36.9587 63.8586 38H73.8586ZM73.9257 34.8548C73.9034 34.7601 73.8586 34.4949 73.8586 34H63.8586C63.8586 35.0384 63.9471 36.1066 64.1915 37.1452L73.9257 34.8548ZM73.8586 34C73.8586 33.7354 73.8698 33.5375 73.8838 33.3975C73.898 33.2552 73.9125 33.2001 73.9093 33.2127L64.2079 30.7873C63.9417 31.8522 63.8586 32.9587 63.8586 34H73.8586ZM73.9257 30.8548C73.9034 30.7601 73.8586 30.4949 73.8586 30H63.8586C63.8586 31.0384 63.9471 32.1066 64.1915 33.1452L73.9257 30.8548ZM73.8586 30C73.8586 29.7354 73.8698 29.5375 73.8838 29.3975C73.898 29.2552 73.9125 29.2001 73.9093 29.2127L64.2079 26.7873C63.9417 27.8522 63.8586 28.9587 63.8586 30H73.8586ZM73.9257 26.8548C73.9034 26.7601 73.8586 26.4949 73.8586 26H63.8586C63.8586 27.0384 63.9471 28.1066 64.1915 29.1452L73.9257 26.8548ZM73.8586 26C73.8586 25.7354 73.8698 25.5375 73.8838 25.3975C73.898 25.2552 73.9125 25.2001 73.9093 25.2127L64.2079 22.7873C63.9417 23.8522 63.8586 24.9587 63.8586 26H73.8586ZM73.9257 22.8548C73.9034 22.7601 73.8586 22.4949 73.8586 22H63.8586C63.8586 23.0384 63.9471 24.1066 64.1915 25.1452L73.9257 22.8548ZM73.8586 22C73.8586 21.7354 73.8698 21.5375 73.8838 21.3975C73.898 21.2552 73.9125 21.2001 73.9093 21.2127L64.2079 18.7873C63.9417 19.8522 63.8586 20.9587 63.8586 22H73.8586ZM73.9257 18.8548C73.9034 18.7601 73.8586 18.4949 73.8586 18H63.8586C63.8586 19.0384 63.9471 20.1066 64.1915 21.1452L73.9257 18.8548ZM73.8586 18C73.8586 17.7354 73.8698 17.5375 73.8838 17.3975C73.898 17.2552 73.9125 17.2001 73.9093 17.2127L64.2079 14.7873C63.9417 15.8522 63.8586 16.9587 63.8586 18H73.8586ZM73.9257 14.8548C73.9034 14.7601 73.8586 14.4949 73.8586 14H63.8586C63.8586 15.0384 63.9471 16.1066 64.1915 17.1452L73.9257 14.8548ZM73.8586 14C73.8586 13.7354 73.8698 13.5375 73.8838 13.3975C73.898 13.2552 73.9125 13.2001 73.9093 13.2127L64.2079 10.7873C63.9417 11.8522 63.8586 12.9587 63.8586 14H73.8586ZM69.0586 17H73.0586V7H69.0586V17ZM68.2079 13.2127C68.2047 13.2001 68.2192 13.2552 68.2334 13.3975C68.2474 13.5375 68.2586 13.7354 68.2586 14H78.2586C78.2586 12.9587 78.1755 11.8522 77.9093 10.7873L68.2079 13.2127ZM68.2586 14C68.2586 14.4949 68.2138 14.7601 68.1915 14.8548L77.9257 17.1452C78.1701 16.1066 78.2586 15.0384 78.2586 14H68.2586ZM68.2079 17.2127C68.2047 17.2001 68.2192 17.2552 68.2334 17.3975C68.2474 17.5375 68.2586 17.7354 68.2586 18H78.2586C78.2586 16.9587 78.1755 15.8522 77.9093 14.7873L68.2079 17.2127ZM68.2586 18C68.2586 18.4949 68.2138 18.7601 68.1915 18.8548L77.9257 21.1452C78.1701 20.1066 78.2586 19.0384 78.2586 18H68.2586ZM68.2079 21.2127C68.2047 21.2001 68.2192 21.2552 68.2334 21.3975C68.2474 21.5375 68.2586 21.7354 68.2586 22H78.2586C78.2586 20.9587 78.1755 19.8522 77.9093 18.7873L68.2079 21.2127ZM68.2586 22C68.2586 22.4949 68.2138 22.7601 68.1915 22.8548L77.9257 25.1452C78.1701 24.1066 78.2586 23.0384 78.2586 22H68.2586ZM68.2079 25.2127C68.2047 25.2001 68.2192 25.2552 68.2334 25.3975C68.2474 25.5375 68.2586 25.7354 68.2586 26H78.2586C78.2586 24.9587 78.1755 23.8522 77.9093 22.7873L68.2079 25.2127ZM68.2586 26C68.2586 26.4949 68.2138 26.7601 68.1915 26.8548L77.9257 29.1452C78.1701 28.1066 78.2586 27.0384 78.2586 26H68.2586ZM73.0586 33H76.0586V23H73.0586V33ZM80.9257 26.8548C80.9034 26.7601 80.8586 26.4949 80.8586 26H70.8586C70.8586 27.0384 70.9471 28.1066 71.1915 29.1452L80.9257 26.8548ZM80.8586 26C80.8586 25.7354 80.8698 25.5375 80.8838 25.3975C80.898 25.2552 80.9125 25.2001 80.9093 25.2127L71.2079 22.7873C70.9417 23.8522 70.8586 24.9587 70.8586 26H80.8586ZM76.0586 29H78.0586V19H76.0586V29ZM82.9257 22.8548C82.9034 22.7601 82.8586 22.4949 82.8586 22H72.8586C72.8586 23.0384 72.9471 24.1066 73.1915 25.1452L82.9257 22.8548ZM82.8586 22C82.8586 21.7354 82.8698 21.5375 82.8838 21.3975C82.898 21.2552 82.9125 21.2001 82.9093 21.2127L73.2079 18.7873C72.9417 19.8522 72.8586 20.9587 72.8586 22H82.8586ZM78.0586 25H84.0586V15H78.0586V25ZM79.2079 21.2127C79.2047 21.2001 79.2192 21.2552 79.2334 21.3975C79.2474 21.5375 79.2586 21.7354 79.2586 22H89.2586C89.2586 20.9587 89.1755 19.8522 88.9093 18.7873L79.2079 21.2127ZM79.2586 22C79.2586 22.4949 79.2138 22.7601 79.1915 22.8548L88.9257 25.1452C89.1701 24.1066 89.2586 23.0384 89.2586 22H79.2586ZM84.0586 19H80.0586V29H84.0586V19ZM75.2079 25.2127C75.2047 25.2 75.2192 25.2552 75.2334 25.3975C75.2474 25.5375 75.2586 25.7354 75.2586 26H85.2586C85.2586 24.9587 85.1755 23.8522 84.9093 22.7873L75.2079 25.2127ZM75.2586 26C75.2586 26.4949 75.2138 26.7601 75.1915 26.8548L84.9257 29.1452C85.1701 28.1066 85.2586 27.0384 85.2586 26H75.2586ZM80.0586 23H78.0586V33H80.0586V23ZM73.2079 29.2127C73.2047 29.2001 73.2192 29.2552 73.2334 29.3975C73.2474 29.5375 73.2586 29.7354 73.2586 30H83.2586C83.2586 28.9587 83.1755 27.8522 82.9093 26.7873L73.2079 29.2127ZM73.2586 30C73.2586 30.4949 73.2138 30.7601 73.1915 30.8548L82.9257 33.1452C83.1701 32.1066 83.2586 31.0384 83.2586 30H73.2586ZM78.0586 37H80.0586V27H78.0586V37ZM75.2079 33.2127C75.2047 33.2001 75.2192 33.2552 75.2334 33.3975C75.2474 33.5375 75.2586 33.7354 75.2586 34H85.2586C85.2586 32.9587 85.1755 31.8522 84.9093 30.7873L75.2079 33.2127ZM75.2586 34C75.2586 34.4949 75.2138 34.7601 75.1915 34.8548L84.9257 37.1452C85.1701 36.1066 85.2586 35.0384 85.2586 34H75.2586ZM80.0586 41H85.0586V31H80.0586V41ZM105.078 28L100.211 26.8548L99.9332 28.0357L100.227 29.2127L105.078 28ZM105.078 32V37H109.038L109.945 33.1452L105.078 32ZM94.5781 32V27H88.1742L89.7274 33.2127L94.5781 32ZM94.5781 36L89.711 34.8548L88.2651 41H94.5781V36ZM103.078 36L107.929 34.7873L106.982 31H103.078V36ZM103.078 40V45H107.038L107.945 41.1452L103.078 40ZM93.0781 40L88.211 41.1452L89.118 45H93.0781V40ZM93.0781 36L97.9288 37.2127L99.482 31H93.0781V36ZM90.5781 36L85.711 37.1452L86.618 41H90.5781V36ZM90.5781 32L95.4288 33.2127L96.982 27H90.5781V32ZM89.0781 32L84.211 33.1452L85.118 37H89.0781V32ZM89.0781 28V23H85.1742L84.2274 26.7873L89.0781 28ZM90.5781 28V33H96.8911L95.4452 26.8548L90.5781 28ZM90.5781 24V19H86.6742L85.7274 22.7873L90.5781 24ZM93.0781 24V29H99.3911L97.9452 22.8548L93.0781 24ZM93.0781 20V15H89.1742L88.2274 18.7873L93.0781 20ZM103.078 20L107.929 18.7873L106.982 15H103.078V20ZM103.078 24L98.211 22.8548L96.7651 29H103.078V24ZM105.078 24L109.929 22.7873L108.982 19H105.078V24ZM101.078 28V33H107.391L105.945 26.8548L101.078 28ZM101.078 24L105.929 25.2127L107.482 19H101.078V24ZM94.5781 24V19H88.1742L89.7274 25.2127L94.5781 24ZM94.5781 28L89.711 26.8548L88.2651 33H94.5781V28ZM100.278 26C100.278 26.4949 100.233 26.7601 100.211 26.8548L109.945 29.1452C110.19 28.1066 110.278 27.0384 110.278 26H100.278ZM100.227 29.2127C100.224 29.2001 100.239 29.2552 100.253 29.3975C100.267 29.5375 100.278 29.7354 100.278 30H110.278C110.278 28.9587 110.195 27.8522 109.929 26.7873L100.227 29.2127ZM100.278 30C100.278 30.4949 100.233 30.7601 100.211 30.8548L109.945 33.1452C110.19 32.1066 110.278 31.0384 110.278 30H100.278ZM105.078 27H94.5781V37H105.078V27ZM89.7274 33.2127C89.7243 33.2001 89.7387 33.2552 89.7529 33.3975C89.7669 33.5375 89.7781 33.7354 89.7781 34H99.7781C99.7781 32.9587 99.6951 31.8522 99.4288 30.7873L89.7274 33.2127ZM89.7781 34C89.7781 34.4949 89.7333 34.7601 89.711 34.8548L99.4452 37.1452C99.6896 36.1066 99.7781 35.0384 99.7781 34H89.7781ZM94.5781 41H103.078V31H94.5781V41ZM98.2274 37.2127C98.2243 37.2001 98.2387 37.2552 98.2529 37.3975C98.2669 37.5375 98.2781 37.7354 98.2781 38H108.278C108.278 36.9587 108.195 35.8522 107.929 34.7873L98.2274 37.2127ZM98.2781 38C98.2781 38.4949 98.2333 38.7601 98.211 38.8548L107.945 41.1452C108.19 40.1066 108.278 39.0384 108.278 38H98.2781ZM103.078 35H93.0781V45H103.078V35ZM97.9452 38.8548C97.9229 38.7601 97.8781 38.4949 97.8781 38H87.8781C87.8781 39.0384 87.9667 40.1066 88.211 41.1452L97.9452 38.8548ZM97.8781 38C97.8781 37.7354 97.8893 37.5375 97.9033 37.3975C97.9175 37.2552 97.932 37.2001 97.9288 37.2127L88.2274 34.7873C87.9612 35.8522 87.8781 36.9587 87.8781 38H97.8781ZM93.0781 31H90.5781V41H93.0781V31ZM95.4452 34.8548C95.4229 34.7601 95.3781 34.4949 95.3781 34H85.3781C85.3781 35.0384 85.4667 36.1066 85.711 37.1452L95.4452 34.8548ZM95.3781 34C95.3781 33.7354 95.3893 33.5375 95.4033 33.3975C95.4175 33.2552 95.432 33.2001 95.4288 33.2127L85.7274 30.7873C85.4612 31.8522 85.3781 32.9587 85.3781 34H95.3781ZM90.5781 27H89.0781V37H90.5781V27ZM93.9452 30.8548C93.9229 30.7601 93.8781 30.4949 93.8781 30H83.8781C83.8781 31.0384 83.9667 32.1066 84.211 33.1452L93.9452 30.8548ZM93.8781 30C93.8781 29.7354 93.8893 29.5375 93.9033 29.3975C93.9175 29.2552 93.932 29.2001 93.9288 29.2127L84.2274 26.7873C83.9612 27.8522 83.8781 28.9587 83.8781 30H93.8781ZM89.0781 33H90.5781V23H89.0781V33ZM95.4452 26.8548C95.4229 26.7601 95.3781 26.4949 95.3781 26H85.3781C85.3781 27.0384 85.4667 28.1066 85.711 29.1452L95.4452 26.8548ZM95.3781 26C95.3781 25.7354 95.3893 25.5375 95.4033 25.3975C95.4175 25.2552 95.432 25.2001 95.4288 25.2127L85.7274 22.7873C85.4612 23.8522 85.3781 24.9587 85.3781 26H95.3781ZM90.5781 29H93.0781V19H90.5781V29ZM97.9452 22.8548C97.9229 22.7601 97.8781 22.4949 97.8781 22H87.8781C87.8781 23.0384 87.9667 24.1066 88.211 25.1452L97.9452 22.8548ZM97.8781 22C97.8781 21.7354 97.8893 21.5375 97.9033 21.3975C97.9175 21.2552 97.932 21.2001 97.9288 21.2127L88.2274 18.7873C87.9612 19.8522 87.8781 20.9587 87.8781 22H97.8781ZM93.0781 25H103.078V15H93.0781V25ZM98.2274 21.2127C98.2243 21.2001 98.2387 21.2552 98.2529 21.3975C98.2669 21.5375 98.2781 21.7354 98.2781 22H108.278C108.278 20.9587 108.195 19.8522 107.929 18.7873L98.2274 21.2127ZM98.2781 22C98.2781 22.4949 98.2333 22.7601 98.211 22.8548L107.945 25.1452C108.19 24.1066 108.278 23.0384 108.278 22H98.2781ZM103.078 29H105.078V19H103.078V29ZM100.227 25.2127C100.224 25.2001 100.239 25.2552 100.253 25.3975C100.267 25.5375 100.278 25.7354 100.278 26H110.278C110.278 24.9587 110.195 23.8522 109.929 22.7873L100.227 25.2127ZM105.945 26.8548C105.923 26.7601 105.878 26.4949 105.878 26H95.8781C95.8781 27.0384 95.9667 28.1066 96.211 29.1452L105.945 26.8548ZM105.878 26C105.878 25.7354 105.889 25.5375 105.903 25.3975C105.918 25.2552 105.932 25.2 105.929 25.2127L96.2274 22.7873C95.9612 23.8522 95.8781 24.9587 95.8781 26H105.878ZM101.078 19H94.5781V29H101.078V19ZM89.7274 25.2127C89.7243 25.2001 89.7387 25.2552 89.7529 25.3975C89.7669 25.5375 89.7781 25.7354 89.7781 26H99.7781C99.7781 24.9587 99.6951 23.8522 99.4288 22.7873L89.7274 25.2127ZM89.7781 26C89.7781 26.4949 89.7333 26.7601 89.711 26.8548L99.4452 29.1452C99.6896 28.1066 99.7781 27.0384 99.7781 26H89.7781ZM94.5781 33H101.078V23H94.5781V33ZM123.098 36L127.948 34.7873L127.002 31H123.098V36ZM123.098 40V45H127.058L127.965 41.1452L123.098 40ZM115.098 40L110.231 41.1452L111.138 45H115.098V40ZM115.098 36L119.948 37.2127L121.502 31H115.098V36ZM113.098 36L108.231 37.1452L109.138 41H113.098V36ZM113.098 32L117.948 33.2127L118.243 32.0357L117.965 30.8548L113.098 32ZM113.098 28L117.948 29.2127L118.243 28.0357L117.965 26.8548L113.098 28ZM113.098 24L117.948 25.2127L119.502 19H113.098V24ZM109.098 24L104.231 25.1452L105.138 29H109.098V24ZM109.098 20V15H105.194L104.247 18.7873L109.098 20ZM113.098 20V25H119.411L117.965 18.8548L113.098 20ZM113.098 16L117.948 17.2127L118.243 16.0357L117.965 14.8548L113.098 16ZM113.098 12V7H109.194L108.247 10.7873L113.098 12ZM117.098 12L121.948 10.7873L121.002 7H117.098V12ZM117.098 16L112.231 14.8548L111.953 16.0357L112.247 17.2127L117.098 16ZM117.098 20L112.231 18.8548L110.785 25H117.098V20ZM123.098 20L127.948 18.7873L127.002 15H123.098V20ZM123.098 24V29H127.058L127.965 25.1452L123.098 24ZM117.098 24V19H110.694L112.247 25.2127L117.098 24ZM117.098 28L112.231 26.8548L111.953 28.0357L112.247 29.2127L117.098 28ZM117.098 32L112.231 30.8548L111.953 32.0357L112.247 33.2127L117.098 32ZM117.098 36L112.231 34.8548L110.785 41H117.098V36ZM118.247 37.2127C118.244 37.2001 118.258 37.2552 118.272 37.3975C118.286 37.5375 118.298 37.7354 118.298 38H128.298C128.298 36.9587 128.215 35.8522 127.948 34.7873L118.247 37.2127ZM118.298 38C118.298 38.4949 118.253 38.7601 118.231 38.8548L127.965 41.1452C128.209 40.1066 128.298 39.0384 128.298 38H118.298ZM123.098 35H115.098V45H123.098V35ZM119.965 38.8548C119.942 38.7601 119.898 38.4949 119.898 38H109.898C109.898 39.0384 109.986 40.1066 110.231 41.1452L119.965 38.8548ZM119.898 38C119.898 37.7354 119.909 37.5375 119.923 37.3975C119.937 37.2552 119.952 37.2001 119.948 37.2127L110.247 34.7873C109.981 35.8522 109.898 36.9587 109.898 38H119.898ZM115.098 31H113.098V41H115.098V31ZM117.965 34.8548C117.942 34.7601 117.898 34.4949 117.898 34H107.898C107.898 35.0384 107.986 36.1066 108.231 37.1452L117.965 34.8548ZM117.898 34C117.898 33.7354 117.909 33.5375 117.923 33.3975C117.937 33.2552 117.952 33.2001 117.948 33.2127L108.247 30.7873C107.981 31.8522 107.898 32.9587 107.898 34H117.898ZM117.965 30.8548C117.942 30.7601 117.898 30.4949 117.898 30H107.898C107.898 31.0384 107.986 32.1066 108.231 33.1452L117.965 30.8548ZM117.898 30C117.898 29.7354 117.909 29.5375 117.923 29.3975C117.937 29.2552 117.952 29.2001 117.948 29.2127L108.247 26.7873C107.981 27.8522 107.898 28.9587 107.898 30H117.898ZM117.965 26.8548C117.942 26.7601 117.898 26.4949 117.898 26H107.898C107.898 27.0384 107.986 28.1066 108.231 29.1452L117.965 26.8548ZM117.898 26C117.898 25.7354 117.909 25.5375 117.923 25.3975C117.937 25.2552 117.952 25.2001 117.948 25.2127L108.247 22.7873C107.981 23.8522 107.898 24.9587 107.898 26H117.898ZM113.098 19H109.098V29H113.098V19ZM113.965 22.8548C113.942 22.7601 113.898 22.4949 113.898 22H103.898C103.898 23.0384 103.986 24.1066 104.231 25.1452L113.965 22.8548ZM113.898 22C113.898 21.7354 113.909 21.5375 113.923 21.3975C113.937 21.2552 113.952 21.2001 113.948 21.2127L104.247 18.7873C103.981 19.8522 103.898 20.9587 103.898 22H113.898ZM109.098 25H113.098V15H109.098V25ZM117.965 18.8548C117.942 18.7601 117.898 18.4949 117.898 18H107.898C107.898 19.0384 107.986 20.1066 108.231 21.1452L117.965 18.8548ZM117.898 18C117.898 17.7354 117.909 17.5375 117.923 17.3975C117.937 17.2552 117.952 17.2001 117.948 17.2127L108.247 14.7873C107.981 15.8522 107.898 16.9587 107.898 18H117.898ZM117.965 14.8548C117.942 14.7601 117.898 14.4949 117.898 14H107.898C107.898 15.0384 107.986 16.1066 108.231 17.1452L117.965 14.8548ZM117.898 14C117.898 13.7354 117.909 13.5375 117.923 13.3975C117.937 13.2552 117.952 13.2001 117.948 13.2127L108.247 10.7873C107.981 11.8522 107.898 12.9587 107.898 14H117.898ZM113.098 17H117.098V7H113.098V17ZM112.247 13.2127C112.244 13.2001 112.258 13.2552 112.272 13.3975C112.286 13.5375 112.298 13.7354 112.298 14H122.298C122.298 12.9587 122.215 11.8522 121.948 10.7873L112.247 13.2127ZM112.298 14C112.298 14.4949 112.253 14.7601 112.231 14.8548L121.965 17.1452C122.209 16.1066 122.298 15.0384 122.298 14H112.298ZM112.247 17.2127C112.244 17.2001 112.258 17.2552 112.272 17.3975C112.286 17.5375 112.298 17.7354 112.298 18H122.298C122.298 16.9587 122.215 15.8522 121.948 14.7873L112.247 17.2127ZM112.298 18C112.298 18.4949 112.253 18.7601 112.231 18.8548L121.965 21.1452C122.209 20.1066 122.298 19.0384 122.298 18H112.298ZM117.098 25H123.098V15H117.098V25ZM118.247 21.2127C118.244 21.2001 118.258 21.2552 118.272 21.3975C118.286 21.5375 118.298 21.7354 118.298 22H128.298C128.298 20.9587 128.215 19.8522 127.948 18.7873L118.247 21.2127ZM118.298 22C118.298 22.4949 118.253 22.7601 118.231 22.8548L127.965 25.1452C128.209 24.1066 128.298 23.0384 128.298 22H118.298ZM123.098 19H117.098V29H123.098V19ZM112.247 25.2127C112.244 25.2001 112.258 25.2552 112.272 25.3975C112.286 25.5375 112.298 25.7354 112.298 26H122.298C122.298 24.9587 122.215 23.8522 121.948 22.7873L112.247 25.2127ZM112.298 26C112.298 26.4949 112.253 26.7601 112.231 26.8548L121.965 29.1452C122.209 28.1066 122.298 27.0384 122.298 26H112.298ZM112.247 29.2127C112.244 29.2001 112.258 29.2552 112.272 29.3975C112.286 29.5375 112.298 29.7354 112.298 30H122.298C122.298 28.9587 122.215 27.8522 121.948 26.7873L112.247 29.2127ZM112.298 30C112.298 30.4949 112.253 30.7601 112.231 30.8548L121.965 33.1452C122.209 32.1066 122.298 31.0384 122.298 30H112.298ZM112.247 33.2127C112.244 33.2001 112.258 33.2552 112.272 33.3975C112.286 33.5375 112.298 33.7354 112.298 34H122.298C122.298 32.9587 122.215 31.8522 121.948 30.7873L112.247 33.2127ZM112.298 34C112.298 34.4949 112.253 34.7601 112.231 34.8548L121.965 37.1452C122.209 36.1066 122.298 35.0384 122.298 34H112.298ZM117.098 41H123.098V31H117.098V41ZM145.117 32V37H149.077L149.984 33.1452L145.117 32ZM143.117 32V27H136.713L138.266 33.2127L143.117 32ZM143.117 36V41H147.077L147.984 37.1452L143.117 36ZM141.117 36V31H134.713L136.266 37.2127L141.117 36ZM141.117 40V45H145.077L145.984 41.1452L141.117 40ZM133.117 40V35H126.713L128.266 41.2127L133.117 40ZM133.117 44L128.25 42.8548L127.972 44.0357L128.266 45.2127L133.117 44ZM133.117 48V53H137.077L137.984 49.1452L133.117 48ZM129.117 48L124.25 49.1452L125.157 53H129.117V48ZM129.117 44L133.968 45.2127L134.262 44.0357L133.984 42.8548L129.117 44ZM129.117 40L133.968 41.2127L134.262 40.0357L133.984 38.8548L129.117 40ZM129.117 36L133.968 37.2127L134.262 36.0357L133.984 34.8548L129.117 36ZM129.117 32L133.968 33.2127L134.262 32.0357L133.984 30.8548L129.117 32ZM129.117 28L133.968 29.2127L134.262 28.0357L133.984 26.8548L129.117 28ZM129.117 24L133.968 25.2127L134.262 24.0357L133.984 22.8548L129.117 24ZM129.117 20V15H125.213L124.266 18.7873L129.117 20ZM133.117 20L137.968 18.7873L137.021 15H133.117V20ZM133.117 24L128.25 22.8548L126.804 29H133.117V24ZM135.117 24L139.968 22.7873L139.021 19H135.117V24ZM135.117 28V33H139.077L139.984 29.1452L135.117 28ZM133.117 28V23H126.713L128.266 29.2127L133.117 28ZM133.117 32L128.25 30.8548L127.972 32.0357L128.266 33.2127L133.117 32ZM133.117 36L128.25 34.8548L126.804 41H133.117V36ZM139.117 36V41H145.43L143.984 34.8548L139.117 36ZM139.117 32V27H135.213L134.266 30.7873L139.117 32ZM141.117 32V37H147.43L145.984 30.8548L141.117 32ZM141.117 28L145.968 29.2127L147.521 23H141.117V28ZM139.117 28L134.25 29.1452L135.157 33H139.117V28ZM139.117 24L143.968 25.2127L145.521 19H139.117V24ZM135.117 24L130.25 25.1452L131.157 29H135.117V24ZM135.117 20V15H131.213L130.266 18.7873L135.117 20ZM141.117 20L145.968 18.7873L145.021 15H141.117V20ZM141.117 24L136.25 22.8548L134.804 29H141.117V24ZM143.117 24L147.968 22.7873L147.021 19H143.117V24ZM143.117 28L138.25 26.8548L136.804 33H143.117V28ZM145.117 28L149.968 26.7873L149.021 23H145.117V28ZM140.317 30C140.317 30.4949 140.272 30.7601 140.25 30.8548L149.984 33.1452C150.229 32.1066 150.317 31.0384 150.317 30H140.317ZM145.117 27H143.117V37H145.117V27ZM138.266 33.2127C138.263 33.2001 138.278 33.2552 138.292 33.3975C138.306 33.5375 138.317 33.7354 138.317 34H148.317C148.317 32.9587 148.234 31.8522 147.968 30.7873L138.266 33.2127ZM138.317 34C138.317 34.4949 138.272 34.7601 138.25 34.8548L147.984 37.1452C148.229 36.1066 148.317 35.0384 148.317 34H138.317ZM143.117 31H141.117V41H143.117V31ZM136.266 37.2127C136.263 37.2001 136.278 37.2552 136.292 37.3975C136.306 37.5375 136.317 37.7354 136.317 38H146.317C146.317 36.9587 146.234 35.8522 145.968 34.7873L136.266 37.2127ZM136.317 38C136.317 38.4949 136.272 38.7601 136.25 38.8548L145.984 41.1452C146.229 40.1066 146.317 39.0384 146.317 38H136.317ZM141.117 35H133.117V45H141.117V35ZM128.266 41.2127C128.263 41.2001 128.278 41.2552 128.292 41.3975C128.306 41.5375 128.317 41.7354 128.317 42H138.317C138.317 40.9587 138.234 39.8522 137.968 38.7873L128.266 41.2127ZM128.317 42C128.317 42.4949 128.272 42.7601 128.25 42.8548L137.984 45.1452C138.229 44.1066 138.317 43.0384 138.317 42H128.317ZM128.266 45.2127C128.263 45.2001 128.278 45.2552 128.292 45.3975C128.306 45.5375 128.317 45.7354 128.317 46H138.317C138.317 44.9587 138.234 43.8522 137.968 42.7873L128.266 45.2127ZM128.317 46C128.317 46.4949 128.272 46.7601 128.25 46.8548L137.984 49.1452C138.229 48.1066 138.317 47.0384 138.317 46H128.317ZM133.117 43H129.117V53H133.117V43ZM133.984 46.8548C133.962 46.7601 133.917 46.4949 133.917 46H123.917C123.917 47.0384 124.006 48.1066 124.25 49.1452L133.984 46.8548ZM133.917 46C133.917 45.7354 133.928 45.5375 133.942 45.3975C133.957 45.2552 133.971 45.2001 133.968 45.2127L124.266 42.7873C124 43.8522 123.917 44.9587 123.917 46H133.917ZM133.984 42.8548C133.962 42.7601 133.917 42.4949 133.917 42H123.917C123.917 43.0384 124.006 44.1066 124.25 45.1452L133.984 42.8548ZM133.917 42C133.917 41.7354 133.928 41.5375 133.942 41.3975C133.957 41.2552 133.971 41.2001 133.968 41.2127L124.266 38.7873C124 39.8522 123.917 40.9587 123.917 42H133.917ZM133.984 38.8548C133.962 38.7601 133.917 38.4949 133.917 38H123.917C123.917 39.0384 124.006 40.1066 124.25 41.1452L133.984 38.8548ZM133.917 38C133.917 37.7354 133.928 37.5375 133.942 37.3975C133.957 37.2552 133.971 37.2001 133.968 37.2127L124.266 34.7873C124 35.8522 123.917 36.9587 123.917 38H133.917ZM133.984 34.8548C133.962 34.7601 133.917 34.4949 133.917 34H123.917C123.917 35.0384 124.006 36.1066 124.25 37.1452L133.984 34.8548ZM133.917 34C133.917 33.7354 133.928 33.5375 133.942 33.3975C133.957 33.2552 133.971 33.2001 133.968 33.2127L124.266 30.7873C124 31.8522 123.917 32.9587 123.917 34H133.917ZM133.984 30.8548C133.962 30.7601 133.917 30.4949 133.917 30H123.917C123.917 31.0384 124.006 32.1066 124.25 33.1452L133.984 30.8548ZM133.917 30C133.917 29.7354 133.928 29.5375 133.942 29.3975C133.957 29.2552 133.971 29.2001 133.968 29.2127L124.266 26.7873C124 27.8522 123.917 28.9587 123.917 30H133.917ZM133.984 26.8548C133.962 26.7601 133.917 26.4949 133.917 26H123.917C123.917 27.0384 124.006 28.1066 124.25 29.1452L133.984 26.8548ZM133.917 26C133.917 25.7354 133.928 25.5375 133.942 25.3975C133.957 25.2552 133.971 25.2001 133.968 25.2127L124.266 22.7873C124 23.8522 123.917 24.9587 123.917 26H133.917ZM133.984 22.8548C133.962 22.7601 133.917 22.4949 133.917 22H123.917C123.917 23.0384 124.006 24.1066 124.25 25.1452L133.984 22.8548ZM133.917 22C133.917 21.7354 133.928 21.5375 133.942 21.3975C133.957 21.2552 133.971 21.2001 133.968 21.2127L124.266 18.7873C124 19.8522 123.917 20.9587 123.917 22H133.917ZM129.117 25H133.117V15H129.117V25ZM128.266 21.2127C128.263 21.2001 128.278 21.2552 128.292 21.3975C128.306 21.5375 128.317 21.7354 128.317 22H138.317C138.317 20.9587 138.234 19.8522 137.968 18.7873L128.266 21.2127ZM128.317 22C128.317 22.4949 128.272 22.7601 128.25 22.8548L137.984 25.1452C138.229 24.1066 138.317 23.0384 138.317 22H128.317ZM133.117 29H135.117V19H133.117V29ZM130.266 25.2127C130.263 25.2001 130.278 25.2552 130.292 25.3975C130.306 25.5375 130.317 25.7354 130.317 26H140.317C140.317 24.9587 140.234 23.8522 139.968 22.7873L130.266 25.2127ZM130.317 26C130.317 26.4949 130.272 26.7601 130.25 26.8548L139.984 29.1452C140.229 28.1066 140.317 27.0384 140.317 26H130.317ZM135.117 23H133.117V33H135.117V23ZM128.266 29.2127C128.263 29.2001 128.278 29.2552 128.292 29.3975C128.306 29.5375 128.317 29.7354 128.317 30H138.317C138.317 28.9587 138.234 27.8522 137.968 26.7873L128.266 29.2127ZM128.317 30C128.317 30.4949 128.272 30.7601 128.25 30.8548L137.984 33.1452C138.229 32.1066 138.317 31.0384 138.317 30H128.317ZM128.266 33.2127C128.263 33.2001 128.278 33.2552 128.292 33.3975C128.306 33.5375 128.317 33.7354 128.317 34H138.317C138.317 32.9587 138.234 31.8522 137.968 30.7873L128.266 33.2127ZM128.317 34C128.317 34.4949 128.272 34.7601 128.25 34.8548L137.984 37.1452C138.229 36.1066 138.317 35.0384 138.317 34H128.317ZM133.117 41H139.117V31H133.117V41ZM143.984 34.8548C143.962 34.7601 143.917 34.4949 143.917 34H133.917C133.917 35.0384 134.006 36.1066 134.25 37.1452L143.984 34.8548ZM143.917 34C143.917 33.7354 143.928 33.5375 143.942 33.3975C143.957 33.2552 143.971 33.2001 143.968 33.2127L134.266 30.7873C134 31.8522 133.917 32.9587 133.917 34H143.917ZM139.117 37H141.117V27H139.117V37ZM145.984 30.8548C145.962 30.7601 145.917 30.4949 145.917 30H135.917C135.917 31.0384 136.006 32.1066 136.25 33.1452L145.984 30.8548ZM145.917 30C145.917 29.7354 145.928 29.5375 145.942 29.3975C145.957 29.2552 145.971 29.2001 145.968 29.2127L136.266 26.7873C136 27.8522 135.917 28.9587 135.917 30H145.917ZM141.117 23H139.117V33H141.117V23ZM143.984 26.8548C143.962 26.7601 143.917 26.4949 143.917 26H133.917C133.917 27.0384 134.006 28.1066 134.25 29.1452L143.984 26.8548ZM143.917 26C143.917 25.7354 143.928 25.5375 143.942 25.3975C143.957 25.2552 143.971 25.2001 143.968 25.2127L134.266 22.7873C134 23.8522 133.917 24.9587 133.917 26H143.917ZM139.117 19H135.117V29H139.117V19ZM139.984 22.8548C139.962 22.7601 139.917 22.4949 139.917 22H129.917C129.917 23.0384 130.006 24.1066 130.25 25.1452L139.984 22.8548ZM139.917 22C139.917 21.7354 139.928 21.5375 139.942 21.3975C139.957 21.2552 139.971 21.2001 139.968 21.2127L130.266 18.7873C130 19.8522 129.917 20.9587 129.917 22H139.917ZM135.117 25H141.117V15H135.117V25ZM136.266 21.2127C136.263 21.2001 136.278 21.2552 136.292 21.3975C136.306 21.5375 136.317 21.7354 136.317 22H146.317C146.317 20.9587 146.234 19.8522 145.968 18.7873L136.266 21.2127ZM136.317 22C136.317 22.4949 136.272 22.7601 136.25 22.8548L145.984 25.1452C146.229 24.1066 146.317 23.0384 146.317 22H136.317ZM141.117 29H143.117V19H141.117V29ZM138.266 25.2127C138.263 25.2 138.278 25.2552 138.292 25.3975C138.306 25.5375 138.317 25.7354 138.317 26H148.317C148.317 24.9587 148.234 23.8522 147.968 22.7873L138.266 25.2127ZM138.317 26C138.317 26.4949 138.272 26.7601 138.25 26.8548L147.984 29.1452C148.229 28.1066 148.317 27.0384 148.317 26H138.317ZM143.117 33H145.117V23H143.117V33ZM140.266 29.2127C140.263 29.2001 140.278 29.2552 140.292 29.3975C140.306 29.5375 140.317 29.7354 140.317 30H150.317C150.317 28.9587 150.234 27.8522 149.968 26.7873L140.266 29.2127ZM163.137 36L167.987 34.7873L167.041 31H163.137V36ZM163.137 40V45H167.097L168.004 41.1452L163.137 40ZM151.137 40L146.27 41.1452L147.177 45H151.137V40ZM151.137 36V31H147.233L146.286 34.7873L151.137 36ZM155.137 36V41H161.45L160.004 34.8548L155.137 36ZM155.137 32L159.987 33.2127L160.282 32.0357L160.004 30.8548L155.137 32ZM155.137 28L159.987 29.2127L160.282 28.0357L160.004 26.8548L155.137 28ZM155.137 24L159.987 25.2127L160.282 24.0357L160.004 22.8548L155.137 24ZM155.137 20L159.987 21.2127L160.282 20.0357L160.004 18.8548L155.137 20ZM155.137 16L159.987 17.2127L161.541 11H155.137V16ZM152.137 16L147.27 17.1452L148.177 21H152.137V16ZM152.137 12V7H148.233L147.286 10.7873L152.137 12ZM159.137 12L163.987 10.7873L163.041 7H159.137V12ZM159.137 16L154.27 14.8548L153.992 16.0357L154.286 17.2127L159.137 16ZM159.137 20L154.27 18.8548L153.992 20.0357L154.286 21.2127L159.137 20ZM159.137 24L154.27 22.8548L153.992 24.0357L154.286 25.2127L159.137 24ZM159.137 28L154.27 26.8548L153.992 28.0357L154.286 29.2127L159.137 28ZM159.137 32L154.27 30.8548L153.992 32.0357L154.286 33.2127L159.137 32ZM159.137 36L154.27 34.8548L152.824 41H159.137V36ZM158.286 37.2127C158.283 37.2001 158.297 37.2552 158.312 37.3975C158.326 37.5375 158.337 37.7354 158.337 38H168.337C168.337 36.9587 168.254 35.8522 167.987 34.7873L158.286 37.2127ZM158.337 38C158.337 38.4949 158.292 38.7601 158.27 38.8548L168.004 41.1452C168.248 40.1066 168.337 39.0384 168.337 38H158.337ZM163.137 35H151.137V45H163.137V35ZM156.004 38.8548C155.982 38.7601 155.937 38.4949 155.937 38H145.937C145.937 39.0384 146.025 40.1066 146.27 41.1452L156.004 38.8548ZM155.937 38C155.937 37.7354 155.948 37.5375 155.962 37.3975C155.976 37.2552 155.991 37.2001 155.987 37.2127L146.286 34.7873C146.02 35.8522 145.937 36.9587 145.937 38H155.937ZM151.137 41H155.137V31H151.137V41ZM160.004 34.8548C159.982 34.7601 159.937 34.4949 159.937 34H149.937C149.937 35.0384 150.025 36.1066 150.27 37.1452L160.004 34.8548ZM159.937 34C159.937 33.7354 159.948 33.5375 159.962 33.3975C159.976 33.2552 159.991 33.2001 159.987 33.2127L150.286 30.7873C150.02 31.8522 149.937 32.9587 149.937 34H159.937ZM160.004 30.8548C159.982 30.7601 159.937 30.4949 159.937 30H149.937C149.937 31.0384 150.025 32.1066 150.27 33.1452L160.004 30.8548ZM159.937 30C159.937 29.7354 159.948 29.5375 159.962 29.3975C159.976 29.2552 159.991 29.2001 159.987 29.2127L150.286 26.7873C150.02 27.8522 149.937 28.9587 149.937 30H159.937ZM160.004 26.8548C159.982 26.7601 159.937 26.4949 159.937 26H149.937C149.937 27.0384 150.025 28.1066 150.27 29.1452L160.004 26.8548ZM159.937 26C159.937 25.7354 159.948 25.5375 159.962 25.3975C159.976 25.2552 159.991 25.2001 159.987 25.2127L150.286 22.7873C150.02 23.8522 149.937 24.9587 149.937 26H159.937ZM160.004 22.8548C159.982 22.7601 159.937 22.4949 159.937 22H149.937C149.937 23.0384 150.025 24.1066 150.27 25.1452L160.004 22.8548ZM159.937 22C159.937 21.7354 159.948 21.5375 159.962 21.3975C159.976 21.2552 159.991 21.2001 159.987 21.2127L150.286 18.7873C150.02 19.8522 149.937 20.9587 149.937 22H159.937ZM160.004 18.8548C159.982 18.7601 159.937 18.4949 159.937 18H149.937C149.937 19.0384 150.025 20.1066 150.27 21.1452L160.004 18.8548ZM159.937 18C159.937 17.7354 159.948 17.5375 159.962 17.3975C159.976 17.2552 159.991 17.2001 159.987 17.2127L150.286 14.7873C150.02 15.8522 149.937 16.9587 149.937 18H159.937ZM155.137 11H152.137V21H155.137V11ZM157.004 14.8548C156.982 14.7601 156.937 14.4949 156.937 14H146.937C146.937 15.0384 147.025 16.1066 147.27 17.1452L157.004 14.8548ZM156.937 14C156.937 13.7354 156.948 13.5375 156.962 13.3975C156.976 13.2552 156.991 13.2001 156.987 13.2127L147.286 10.7873C147.02 11.8522 146.937 12.9587 146.937 14H156.937ZM152.137 17H159.137V7H152.137V17ZM154.286 13.2127C154.283 13.2001 154.297 13.2552 154.312 13.3975C154.326 13.5375 154.337 13.7354 154.337 14H164.337C164.337 12.9587 164.254 11.8522 163.987 10.7873L154.286 13.2127ZM154.337 14C154.337 14.4949 154.292 14.7601 154.27 14.8548L164.004 17.1452C164.248 16.1066 164.337 15.0384 164.337 14H154.337ZM154.286 17.2127C154.283 17.2001 154.297 17.2552 154.312 17.3975C154.326 17.5375 154.337 17.7354 154.337 18H164.337C164.337 16.9587 164.254 15.8522 163.987 14.7873L154.286 17.2127ZM154.337 18C154.337 18.4949 154.292 18.7601 154.27 18.8548L164.004 21.1452C164.248 20.1066 164.337 19.0384 164.337 18H154.337ZM154.286 21.2127C154.283 21.2001 154.297 21.2552 154.312 21.3975C154.326 21.5375 154.337 21.7354 154.337 22H164.337C164.337 20.9587 164.254 19.8522 163.987 18.7873L154.286 21.2127ZM154.337 22C154.337 22.4949 154.292 22.7601 154.27 22.8548L164.004 25.1452C164.248 24.1066 164.337 23.0384 164.337 22H154.337ZM154.286 25.2127C154.283 25.2001 154.297 25.2552 154.312 25.3975C154.326 25.5375 154.337 25.7354 154.337 26H164.337C164.337 24.9587 164.254 23.8522 163.987 22.7873L154.286 25.2127ZM154.337 26C154.337 26.4949 154.292 26.7601 154.27 26.8548L164.004 29.1452C164.248 28.1066 164.337 27.0384 164.337 26H154.337ZM154.286 29.2127C154.283 29.2001 154.297 29.2552 154.312 29.3975C154.326 29.5375 154.337 29.7354 154.337 30H164.337C164.337 28.9587 164.254 27.8522 163.987 26.7873L154.286 29.2127ZM154.337 30C154.337 30.4949 154.292 30.7601 154.27 30.8548L164.004 33.1452C164.248 32.1066 164.337 31.0384 164.337 30H154.337ZM154.286 33.2127C154.283 33.2001 154.297 33.2552 154.312 33.3975C154.326 33.5375 154.337 33.7354 154.337 34H164.337C164.337 32.9587 164.254 31.8522 163.987 30.7873L154.286 33.2127ZM154.337 34C154.337 34.4949 154.292 34.7601 154.27 34.8548L164.004 37.1452C164.248 36.1066 164.337 35.0384 164.337 34H154.337ZM159.137 41H163.137V31H159.137V41ZM185.156 36L190.007 34.7873L189.06 31H185.156V36ZM185.156 40V45H189.116L190.023 41.1452L185.156 40ZM181.156 40L176.289 41.1452L177.196 45H181.156V40ZM181.156 36L186.007 37.2127L187.56 31H181.156V36ZM179.156 36L174.289 37.1452L175.196 41H179.156V36ZM179.156 32L184.007 33.2127L185.56 27H179.156V32ZM173.156 32V27H166.752L168.306 33.2127L173.156 32ZM173.156 36L168.289 34.8548L166.843 41H173.156V36ZM179.156 36L184.007 34.7873L183.06 31H179.156V36ZM179.156 40V45H183.116L184.023 41.1452L179.156 40ZM171.156 40L166.289 41.1452L167.196 45H171.156V40ZM171.156 36L176.007 37.2127L177.56 31H171.156V36ZM169.156 36L164.289 37.1452L165.196 41H169.156V36ZM169.156 32V27H165.252L164.306 30.7873L169.156 32ZM171.156 32V37H177.469L176.023 30.8548L171.156 32ZM171.156 28V23H167.252L166.306 26.7873L171.156 28ZM179.156 28V33H185.469L184.023 26.8548L179.156 28ZM179.156 24L184.007 25.2127L185.56 19H179.156V24ZM172.156 24L167.289 25.1452L168.196 29H172.156V24ZM172.156 20V15H168.252L167.306 18.7873L172.156 20ZM181.156 20L186.007 18.7873L185.06 15H181.156V20ZM181.156 24L176.289 22.8548L174.843 29H181.156V24ZM183.156 24L188.007 22.7873L187.06 19H183.156V24ZM183.156 28L178.289 26.8548L178.011 28.0357L178.306 29.2127L183.156 28ZM183.156 32L178.289 30.8548L178.011 32.0357L178.306 33.2127L183.156 32ZM183.156 36L178.289 34.8548L176.843 41H183.156V36ZM180.306 37.2127C180.302 37.2001 180.317 37.2552 180.331 37.3975C180.345 37.5375 180.356 37.7354 180.356 38H190.356C190.356 36.9587 190.273 35.8522 190.007 34.7873L180.306 37.2127ZM180.356 38C180.356 38.4949 180.311 38.7601 180.289 38.8548L190.023 41.1452C190.268 40.1066 190.356 39.0384 190.356 38H180.356ZM185.156 35H181.156V45H185.156V35ZM186.023 38.8548C186.001 38.7601 185.956 38.4949 185.956 38H175.956C175.956 39.0384 176.045 40.1066 176.289 41.1452L186.023 38.8548ZM185.956 38C185.956 37.7354 185.967 37.5375 185.981 37.3975C185.996 37.2552 186.01 37.2001 186.007 37.2127L176.306 34.7873C176.039 35.8522 175.956 36.9587 175.956 38H185.956ZM181.156 31H179.156V41H181.156V31ZM184.023 34.8548C184.001 34.7601 183.956 34.4949 183.956 34H173.956C173.956 35.0384 174.045 36.1066 174.289 37.1452L184.023 34.8548ZM183.956 34C183.956 33.7354 183.967 33.5375 183.981 33.3975C183.996 33.2552 184.01 33.2001 184.007 33.2127L174.306 30.7873C174.039 31.8522 173.956 32.9587 173.956 34H183.956ZM179.156 27H173.156V37H179.156V27ZM168.306 33.2127C168.302 33.2001 168.317 33.2552 168.331 33.3975C168.345 33.5375 168.356 33.7354 168.356 34H178.356C178.356 32.9587 178.273 31.8522 178.007 30.7873L168.306 33.2127ZM168.356 34C168.356 34.4949 168.311 34.7601 168.289 34.8548L178.023 37.1452C178.268 36.1066 178.356 35.0384 178.356 34H168.356ZM173.156 41H179.156V31H173.156V41ZM174.306 37.2127C174.302 37.2001 174.317 37.2552 174.331 37.3975C174.345 37.5375 174.356 37.7354 174.356 38H184.356C184.356 36.9587 184.273 35.8522 184.007 34.7873L174.306 37.2127ZM174.356 38C174.356 38.4949 174.311 38.7601 174.289 38.8548L184.023 41.1452C184.268 40.1066 184.356 39.0384 184.356 38H174.356ZM179.156 35H171.156V45H179.156V35ZM176.023 38.8548C176.001 38.7601 175.956 38.4949 175.956 38H165.956C165.956 39.0384 166.045 40.1066 166.289 41.1452L176.023 38.8548ZM175.956 38C175.956 37.7354 175.967 37.5375 175.981 37.3975C175.996 37.2552 176.01 37.2001 176.007 37.2127L166.306 34.7873C166.039 35.8522 165.956 36.9587 165.956 38H175.956ZM171.156 31H169.156V41H171.156V31ZM174.023 34.8548C174.001 34.7601 173.956 34.4949 173.956 34H163.956C163.956 35.0384 164.045 36.1066 164.289 37.1452L174.023 34.8548ZM173.956 34C173.956 33.7354 173.967 33.5375 173.981 33.3975C173.996 33.2552 174.01 33.2001 174.007 33.2127L164.306 30.7873C164.039 31.8522 163.956 32.9587 163.956 34H173.956ZM169.156 37H171.156V27H169.156V37ZM176.023 30.8548C176.001 30.7601 175.956 30.4949 175.956 30H165.956C165.956 31.0384 166.045 32.1066 166.289 33.1452L176.023 30.8548ZM175.956 30C175.956 29.7354 175.967 29.5375 175.981 29.3975C175.996 29.2552 176.01 29.2001 176.007 29.2127L166.306 26.7873C166.039 27.8522 165.956 28.9587 165.956 30H175.956ZM171.156 33H179.156V23H171.156V33ZM184.023 26.8548C184.001 26.7601 183.956 26.4949 183.956 26H173.956C173.956 27.0384 174.045 28.1066 174.289 29.1452L184.023 26.8548ZM183.956 26C183.956 25.7354 183.967 25.5375 183.981 25.3975C183.996 25.2552 184.01 25.2001 184.007 25.2127L174.306 22.7873C174.039 23.8522 173.956 24.9587 173.956 26H183.956ZM179.156 19H172.156V29H179.156V19ZM177.023 22.8548C177.001 22.7601 176.956 22.4949 176.956 22H166.956C166.956 23.0384 167.045 24.1066 167.289 25.1452L177.023 22.8548ZM176.956 22C176.956 21.7354 176.967 21.5375 176.981 21.3975C176.996 21.2552 177.01 21.2001 177.007 21.2127L167.306 18.7873C167.039 19.8522 166.956 20.9587 166.956 22H176.956ZM172.156 25H181.156V15H172.156V25ZM176.306 21.2127C176.302 21.2001 176.317 21.2552 176.331 21.3975C176.345 21.5375 176.356 21.7354 176.356 22H186.356C186.356 20.9587 186.273 19.8522 186.007 18.7873L176.306 21.2127ZM176.356 22C176.356 22.4949 176.311 22.7601 176.289 22.8548L186.023 25.1452C186.268 24.1066 186.356 23.0384 186.356 22H176.356ZM181.156 29H183.156V19H181.156V29ZM178.306 25.2127C178.302 25.2 178.317 25.2552 178.331 25.3975C178.345 25.5375 178.356 25.7354 178.356 26H188.356C188.356 24.9587 188.273 23.8522 188.007 22.7873L178.306 25.2127ZM178.356 26C178.356 26.4949 178.311 26.7601 178.289 26.8548L188.023 29.1452C188.268 28.1066 188.356 27.0384 188.356 26H178.356ZM178.306 29.2127C178.302 29.2001 178.317 29.2552 178.331 29.3975C178.345 29.5375 178.356 29.7354 178.356 30H188.356C188.356 28.9587 188.273 27.8522 188.007 26.7873L178.306 29.2127ZM178.356 30C178.356 30.4949 178.311 30.7601 178.289 30.8548L188.023 33.1452C188.268 32.1066 188.356 31.0384 188.356 30H178.356ZM178.306 33.2127C178.302 33.2001 178.317 33.2552 178.331 33.3975C178.345 33.5375 178.356 33.7354 178.356 34H188.356C188.356 32.9587 188.273 31.8522 188.007 30.7873L178.306 33.2127ZM178.356 34C178.356 34.4949 178.311 34.7601 178.289 34.8548L188.023 37.1452C188.268 36.1066 188.356 35.0384 188.356 34H178.356ZM183.156 41H185.156V31H183.156V41ZM205.176 32L210.026 30.7873L209.08 27H205.176V32ZM205.176 36V41H209.136L210.043 37.1452L205.176 36ZM203.176 36V31H196.772L198.325 37.2127L203.176 36ZM203.176 40V45H207.136L208.043 41.1452L203.176 40ZM193.176 40L188.309 41.1452L189.216 45H193.176V40ZM193.176 36L198.026 37.2127L199.58 31H193.176V36ZM191.176 36L186.309 37.1452L187.216 41H191.176V36ZM191.176 32L196.026 33.2127L197.58 27H191.176V32ZM189.176 32L184.309 33.1452L185.216 37H189.176V32ZM189.176 28V23H185.272L184.325 26.7873L189.176 28ZM191.176 28V33H197.489L196.043 26.8548L191.176 28ZM191.176 24V19H187.272L186.325 22.7873L191.176 24ZM193.176 24V29H199.489L198.043 22.8548L193.176 24ZM193.176 20V15H189.272L188.325 18.7873L193.176 20ZM203.176 20L208.026 18.7873L207.08 15H203.176V20ZM203.176 24L198.309 22.8548L196.863 29H203.176V24ZM205.176 24L210.026 22.7873L209.08 19H205.176V24ZM205.176 28V33H209.136L210.043 29.1452L205.176 28ZM201.176 28L196.309 29.1452L197.216 33H201.176V28ZM201.176 24L206.026 25.2127L207.58 19H201.176V24ZM195.176 24V19H188.772L190.325 25.2127L195.176 24ZM195.176 28V33H199.136L200.043 29.1452L195.176 28ZM193.176 28V23H186.772L188.325 29.2127L193.176 28ZM193.176 32L188.309 30.8548L186.863 37H193.176V32ZM195.176 32L200.026 30.7873L199.08 27H195.176V32ZM195.176 36L190.309 34.8548L188.863 41H195.176V36ZM201.176 36V41H207.489L206.043 34.8548L201.176 36ZM201.176 32V27H197.272L196.325 30.7873L201.176 32ZM200.325 33.2127C200.322 33.2001 200.336 33.2552 200.351 33.3975C200.365 33.5375 200.376 33.7354 200.376 34H210.376C210.376 32.9587 210.293 31.8522 210.026 30.7873L200.325 33.2127ZM200.376 34C200.376 34.4949 200.331 34.7601 200.309 34.8548L210.043 37.1452C210.287 36.1066 210.376 35.0384 210.376 34H200.376ZM205.176 31H203.176V41H205.176V31ZM198.325 37.2127C198.322 37.2001 198.336 37.2552 198.351 37.3975C198.365 37.5375 198.376 37.7354 198.376 38H208.376C208.376 36.9587 208.293 35.8522 208.026 34.7873L198.325 37.2127ZM198.376 38C198.376 38.4949 198.331 38.7601 198.309 38.8548L208.043 41.1452C208.287 40.1066 208.376 39.0384 208.376 38H198.376ZM203.176 35H193.176V45H203.176V35ZM198.043 38.8548C198.021 38.7601 197.976 38.4949 197.976 38H187.976C187.976 39.0384 188.064 40.1066 188.309 41.1452L198.043 38.8548ZM197.976 38C197.976 37.7354 197.987 37.5375 198.001 37.3975C198.015 37.2552 198.03 37.2001 198.026 37.2127L188.325 34.7873C188.059 35.8522 187.976 36.9587 187.976 38H197.976ZM193.176 31H191.176V41H193.176V31ZM196.043 34.8548C196.021 34.7601 195.976 34.4949 195.976 34H185.976C185.976 35.0384 186.064 36.1066 186.309 37.1452L196.043 34.8548ZM195.976 34C195.976 33.7354 195.987 33.5375 196.001 33.3975C196.015 33.2552 196.03 33.2001 196.026 33.2127L186.325 30.7873C186.059 31.8522 185.976 32.9587 185.976 34H195.976ZM191.176 27H189.176V37H191.176V27ZM194.043 30.8548C194.021 30.7601 193.976 30.4949 193.976 30H183.976C183.976 31.0384 184.064 32.1066 184.309 33.1452L194.043 30.8548ZM193.976 30C193.976 29.7354 193.987 29.5375 194.001 29.3975C194.015 29.2552 194.03 29.2001 194.026 29.2127L184.325 26.7873C184.059 27.8522 183.976 28.9587 183.976 30H193.976ZM189.176 33H191.176V23H189.176V33ZM196.043 26.8548C196.021 26.7601 195.976 26.4949 195.976 26H185.976C185.976 27.0384 186.064 28.1066 186.309 29.1452L196.043 26.8548ZM195.976 26C195.976 25.7354 195.987 25.5375 196.001 25.3975C196.015 25.2552 196.03 25.2001 196.026 25.2127L186.325 22.7873C186.059 23.8522 185.976 24.9587 185.976 26H195.976ZM191.176 29H193.176V19H191.176V29ZM198.043 22.8548C198.021 22.7601 197.976 22.4949 197.976 22H187.976C187.976 23.0384 188.064 24.1066 188.309 25.1452L198.043 22.8548ZM197.976 22C197.976 21.7354 197.987 21.5375 198.001 21.3975C198.015 21.2552 198.03 21.2001 198.026 21.2127L188.325 18.7873C188.059 19.8522 187.976 20.9587 187.976 22H197.976ZM193.176 25H203.176V15H193.176V25ZM198.325 21.2127C198.322 21.2001 198.336 21.2552 198.351 21.3975C198.365 21.5375 198.376 21.7354 198.376 22H208.376C208.376 20.9587 208.293 19.8522 208.026 18.7873L198.325 21.2127ZM198.376 22C198.376 22.4949 198.331 22.7601 198.309 22.8548L208.043 25.1452C208.287 24.1066 208.376 23.0384 208.376 22H198.376ZM203.176 29H205.176V19H203.176V29ZM200.325 25.2127C200.322 25.2001 200.336 25.2552 200.351 25.3975C200.365 25.5375 200.376 25.7354 200.376 26H210.376C210.376 24.9587 210.293 23.8522 210.026 22.7873L200.325 25.2127ZM200.376 26C200.376 26.4949 200.331 26.7601 200.309 26.8548L210.043 29.1452C210.287 28.1066 210.376 27.0384 210.376 26H200.376ZM205.176 23H201.176V33H205.176V23ZM206.043 26.8548C206.021 26.7601 205.976 26.4949 205.976 26H195.976C195.976 27.0384 196.064 28.1066 196.309 29.1452L206.043 26.8548ZM205.976 26C205.976 25.7354 205.987 25.5375 206.001 25.3975C206.015 25.2552 206.03 25.2 206.026 25.2127L196.325 22.7873C196.059 23.8522 195.976 24.9587 195.976 26H205.976ZM201.176 19H195.176V29H201.176V19ZM190.325 25.2127C190.322 25.2001 190.336 25.2552 190.351 25.3975C190.365 25.5375 190.376 25.7354 190.376 26H200.376C200.376 24.9587 200.293 23.8522 200.026 22.7873L190.325 25.2127ZM190.376 26C190.376 26.4949 190.331 26.7601 190.309 26.8548L200.043 29.1452C200.287 28.1066 200.376 27.0384 200.376 26H190.376ZM195.176 23H193.176V33H195.176V23ZM188.325 29.2127C188.322 29.2001 188.336 29.2552 188.351 29.3975C188.365 29.5375 188.376 29.7354 188.376 30H198.376C198.376 28.9587 198.293 27.8522 198.026 26.7873L188.325 29.2127ZM188.376 30C188.376 30.4949 188.331 30.7601 188.309 30.8548L198.043 33.1452C198.287 32.1066 198.376 31.0384 198.376 30H188.376ZM193.176 37H195.176V27H193.176V37ZM190.325 33.2127C190.322 33.2001 190.336 33.2552 190.351 33.3975C190.365 33.5375 190.376 33.7354 190.376 34H200.376C200.376 32.9587 200.293 31.8522 200.026 30.7873L190.325 33.2127ZM190.376 34C190.376 34.4949 190.331 34.7601 190.309 34.8548L200.043 37.1452C200.287 36.1066 200.376 35.0384 200.376 34H190.376ZM195.176 41H201.176V31H195.176V41ZM206.043 34.8548C206.021 34.7601 205.976 34.4949 205.976 34H195.976C195.976 35.0384 196.064 36.1066 196.309 37.1452L206.043 34.8548ZM205.976 34C205.976 33.7354 205.987 33.5375 206.001 33.3975C206.015 33.2552 206.03 33.2001 206.026 33.2127L196.325 30.7873C196.059 31.8522 195.976 32.9587 195.976 34H205.976ZM201.176 37H205.176V27H201.176V37ZM225.195 28L220.328 26.8548L220.05 28.0357L220.345 29.2127L225.195 28ZM225.195 32V37H229.155L230.062 33.1452L225.195 32ZM214.695 32V27H208.291L209.845 33.2127L214.695 32ZM214.695 36L209.828 34.8548L208.382 41H214.695V36ZM223.195 36L228.046 34.7873L227.099 31H223.195V36ZM223.195 40V45H227.155L228.062 41.1452L223.195 40ZM213.195 40L208.328 41.1452L209.235 45H213.195V40ZM213.195 36L218.046 37.2127L219.599 31H213.195V36ZM210.695 36L205.828 37.1452L206.735 41H210.695V36ZM210.695 32L215.546 33.2127L217.099 27H210.695V32ZM209.195 32L204.328 33.1452L205.235 37H209.195V32ZM209.195 28V23H205.291L204.345 26.7873L209.195 28ZM210.695 28V33H217.008L215.562 26.8548L210.695 28ZM210.695 24V19H206.791L205.845 22.7873L210.695 24ZM213.195 24V29H219.508L218.062 22.8548L213.195 24ZM213.195 20V15H209.291L208.345 18.7873L213.195 20ZM223.195 20L228.046 18.7873L227.099 15H223.195V20ZM223.195 24L218.328 22.8548L216.882 29H223.195V24ZM225.195 24L230.046 22.7873L229.099 19H225.195V24ZM221.195 28V33H227.508L226.062 26.8548L221.195 28ZM221.195 24L226.046 25.2127L227.599 19H221.195V24ZM214.695 24V19H208.291L209.845 25.2127L214.695 24ZM214.695 28L209.828 26.8548L208.382 33H214.695V28ZM220.395 26C220.395 26.4949 220.351 26.7601 220.328 26.8548L230.062 29.1452C230.307 28.1066 230.395 27.0384 230.395 26H220.395ZM220.345 29.2127C220.341 29.2001 220.356 29.2552 220.37 29.3975C220.384 29.5375 220.395 29.7354 220.395 30H230.395C230.395 28.9587 230.312 27.8522 230.046 26.7873L220.345 29.2127ZM220.395 30C220.395 30.4949 220.351 30.7601 220.328 30.8548L230.062 33.1452C230.307 32.1066 230.395 31.0384 230.395 30H220.395ZM225.195 27H214.695V37H225.195V27ZM209.845 33.2127C209.841 33.2001 209.856 33.2552 209.87 33.3975C209.884 33.5375 209.895 33.7354 209.895 34H219.895C219.895 32.9587 219.812 31.8522 219.546 30.7873L209.845 33.2127ZM209.895 34C209.895 34.4949 209.851 34.7601 209.828 34.8548L219.562 37.1452C219.807 36.1066 219.895 35.0384 219.895 34H209.895ZM214.695 41H223.195V31H214.695V41ZM218.345 37.2127C218.341 37.2001 218.356 37.2552 218.37 37.3975C218.384 37.5375 218.395 37.7354 218.395 38H228.395C228.395 36.9587 228.312 35.8522 228.046 34.7873L218.345 37.2127ZM218.395 38C218.395 38.4949 218.351 38.7601 218.328 38.8548L228.062 41.1452C228.307 40.1066 228.395 39.0384 228.395 38H218.395ZM223.195 35H213.195V45H223.195V35ZM218.062 38.8548C218.04 38.7601 217.995 38.4949 217.995 38H207.995C207.995 39.0384 208.084 40.1066 208.328 41.1452L218.062 38.8548ZM217.995 38C217.995 37.7354 218.007 37.5375 218.02 37.3975C218.035 37.2552 218.049 37.2001 218.046 37.2127L208.345 34.7873C208.078 35.8522 207.995 36.9587 207.995 38H217.995ZM213.195 31H210.695V41H213.195V31ZM215.562 34.8548C215.54 34.7601 215.495 34.4949 215.495 34H205.495C205.495 35.0384 205.584 36.1066 205.828 37.1452L215.562 34.8548ZM215.495 34C215.495 33.7354 215.507 33.5375 215.52 33.3975C215.535 33.2552 215.549 33.2001 215.546 33.2127L205.845 30.7873C205.578 31.8522 205.495 32.9587 205.495 34H215.495ZM210.695 27H209.195V37H210.695V27ZM214.062 30.8548C214.04 30.7601 213.995 30.4949 213.995 30H203.995C203.995 31.0384 204.084 32.1066 204.328 33.1452L214.062 30.8548ZM213.995 30C213.995 29.7354 214.007 29.5375 214.02 29.3975C214.035 29.2552 214.049 29.2001 214.046 29.2127L204.345 26.7873C204.078 27.8522 203.995 28.9587 203.995 30H213.995ZM209.195 33H210.695V23H209.195V33ZM215.562 26.8548C215.54 26.7601 215.495 26.4949 215.495 26H205.495C205.495 27.0384 205.584 28.1066 205.828 29.1452L215.562 26.8548ZM215.495 26C215.495 25.7354 215.507 25.5375 215.52 25.3975C215.535 25.2552 215.549 25.2001 215.546 25.2127L205.845 22.7873C205.578 23.8522 205.495 24.9587 205.495 26H215.495ZM210.695 29H213.195V19H210.695V29ZM218.062 22.8548C218.04 22.7601 217.995 22.4949 217.995 22H207.995C207.995 23.0384 208.084 24.1066 208.328 25.1452L218.062 22.8548ZM217.995 22C217.995 21.7354 218.007 21.5375 218.02 21.3975C218.035 21.2552 218.049 21.2001 218.046 21.2127L208.345 18.7873C208.078 19.8522 207.995 20.9587 207.995 22H217.995ZM213.195 25H223.195V15H213.195V25ZM218.345 21.2127C218.341 21.2001 218.356 21.2552 218.37 21.3975C218.384 21.5375 218.395 21.7354 218.395 22H228.395C228.395 20.9587 228.312 19.8522 228.046 18.7873L218.345 21.2127ZM218.395 22C218.395 22.4949 218.351 22.7601 218.328 22.8548L228.062 25.1452C228.307 24.1066 228.395 23.0384 228.395 22H218.395ZM223.195 29H225.195V19H223.195V29ZM220.345 25.2127C220.341 25.2001 220.356 25.2552 220.37 25.3975C220.384 25.5375 220.395 25.7354 220.395 26H230.395C230.395 24.9587 230.312 23.8522 230.046 22.7873L220.345 25.2127ZM226.062 26.8548C226.04 26.7601 225.995 26.4949 225.995 26H215.995C215.995 27.0384 216.084 28.1066 216.328 29.1452L226.062 26.8548ZM225.995 26C225.995 25.7354 226.007 25.5375 226.02 25.3975C226.035 25.2552 226.049 25.2 226.046 25.2127L216.345 22.7873C216.078 23.8522 215.995 24.9587 215.995 26H225.995ZM221.195 19H214.695V29H221.195V19ZM209.845 25.2127C209.841 25.2001 209.856 25.2552 209.87 25.3975C209.884 25.5375 209.895 25.7354 209.895 26H219.895C219.895 24.9587 219.812 23.8522 219.546 22.7873L209.845 25.2127ZM209.895 26C209.895 26.4949 209.851 26.7601 209.828 26.8548L219.562 29.1452C219.807 28.1066 219.895 27.0384 219.895 26H209.895ZM214.695 33H221.195V23H214.695V33Z"
            fill="black" fill-opacity="0.3"/>
</svg>